<?xml version="1.0" encoding="utf-8"?>
<!-- Generator: Adobe Illustrator 21.0.0, SVG Export Plug-In . SVG Version: 6.00 Build 0)  -->
<svg version="1.1" id="图层_1" xmlns="http://www.w3.org/2000/svg" xmlns:xlink="http://www.w3.org/1999/xlink" x="0px" y="0px"
	 viewBox="0 0 229.1 229.1" style="enable-background:new 0 0 229.1 229.1;" xml:space="preserve">
<style type="text/css">
	.st0{fill:#F5F5F5;}
	.st1{fill:#3F8AE9;}
	.st2{fill:#FFFFFF;}
	.st3{opacity:0.38;fill:#B2B2B2;}
	.st4{fill:#90CAF9;}
	.st5{opacity:0.18;}
	.st6{fill:#5D9FE8;}
	.st7{opacity:0.33;fill:#BDCAD1;}
	.st8{opacity:0.54;}
	.st9{fill:#9AC4DB;}
	.st10{opacity:7.000000e-02;fill:#3F8AE9;}
	.st11{fill:#79AEF0;}
	.st12{fill:#548AC6;}
	.st13{fill:#7F7F7F;}
	.st14{fill:none;stroke:#FFFFFF;stroke-width:2.5;stroke-linecap:round;stroke-linejoin:round;stroke-miterlimit:10;}
	.st15{fill:none;stroke:#FFFFFF;stroke-width:1.5;stroke-linecap:round;stroke-linejoin:round;stroke-miterlimit:10;}
	.st16{fill:#DDDDDD;}
	.st17{fill:none;stroke:#3F8AE9;stroke-miterlimit:10;}
	.st18{fill:#3F8AE9;stroke:#3F8AE9;stroke-miterlimit:10;}
	.st19{clip-path:url(#SVGID_4_);}
	.st20{fill:none;stroke:#3F8AE9;stroke-width:2;stroke-miterlimit:10;}
	.st21{clip-path:url(#SVGID_8_);}
	.st22{clip-path:url(#SVGID_12_);}
	.st23{clip-path:url(#SVGID_16_);}
	.st24{filter:url(#Adobe_OpacityMaskFilter);}
	.st25{opacity:0.1;mask:url(#SVGID_19_);}
	.st26{filter:url(#Adobe_OpacityMaskFilter_1_);}
	.st27{opacity:0.1;mask:url(#SVGID_22_);}
	.st28{fill:#EAEAEA;}
	.st29{fill:#EB3E1D;}
	.st30{fill:#CAD936;}
	.st31{fill:#7CB042;}
	.st32{fill:#273238;}
	.st33{opacity:0.9;fill:#3F8AE9;}
	.st34{opacity:0.9;fill:#CAD936;}
	.st35{opacity:0.9;fill:#7CB042;}
	.st36{opacity:0.9;fill:#273238;}
	.st37{opacity:0.8;fill:#3F8AE9;}
	.st38{opacity:0.8;fill:#CAD936;}
	.st39{opacity:0.8;fill:#7CB042;}
	.st40{opacity:0.8;fill:#273238;}
	.st41{opacity:0.9;fill:#FFFFFF;}
	.st42{opacity:0.8;fill:#FFFFFF;}
	.st43{opacity:0.7;fill:#FFFFFF;}
	.st44{opacity:0.7;fill:#CAD936;}
	.st45{opacity:0.7;fill:#7CB042;}
	.st46{opacity:0.7;fill:#273238;}
	.st47{opacity:0.32;fill:none;stroke:#83A8B5;stroke-width:0.5;stroke-miterlimit:10;}
	.st48{fill:#FFE0B2;}
	.st49{fill:#FB8C00;}
	.st50{opacity:0.87;}
	.st51{fill:none;}
	.st52{fill:#1976D2;}
	.st53{opacity:0.1;}
	.st54{fill:none;stroke:#F5F5F5;stroke-width:2.5;stroke-linecap:round;stroke-linejoin:round;stroke-miterlimit:10;}
	.st55{fill:none;stroke:#F5F5F5;stroke-width:1.5;stroke-linecap:round;stroke-linejoin:round;stroke-miterlimit:10;}
	.st56{fill:none;stroke:#5D9FE8;stroke-width:2;stroke-miterlimit:10;}
	.st57{fill:none;stroke:#1E88E5;stroke-width:2;stroke-linecap:round;stroke-linejoin:round;stroke-miterlimit:10;}
	.st58{opacity:0.12;fill:none;stroke:#000000;stroke-width:0.5;stroke-miterlimit:10;}
	.st59{fill:none;stroke:#F5F5F5;stroke-width:0.5;stroke-miterlimit:10;}
	.st60{opacity:0.38;fill:#5D9FE8;}
	.st61{fill:#FAFAFA;}
	.st62{opacity:0.38;fill:#1E88E5;}
	.st63{opacity:0.19;fill:#B2B2B2;}
	.st64{fill:#5D9FE8;stroke:#F5F5F5;stroke-width:0.5;stroke-miterlimit:10;}
	.st65{opacity:0.8;}
	.st66{opacity:0.38;}
	.st67{opacity:0.38;fill:none;}
	.st68{fill:none;stroke:#3F8AE9;stroke-width:2.5;stroke-linecap:round;stroke-linejoin:round;stroke-miterlimit:10;}
	.st69{clip-path:url(#SVGID_34_);}
	.st70{fill:none;stroke:#B2B2B2;stroke-miterlimit:10;}
	.st71{fill:#B2B2B2;}
	.st72{fill:none;stroke:#3F8AE9;stroke-width:1.5;stroke-miterlimit:10;}
	.st73{opacity:0.5;fill:none;stroke:#3F8AE9;stroke-width:0.5;stroke-miterlimit:10;}
	.st74{fill:none;stroke:#3F8AE9;stroke-width:0.75;stroke-miterlimit:10;}
	.st75{opacity:0.54;fill:#020202;}
	.st76{opacity:0.3;fill:none;stroke:#000000;stroke-width:0.25;stroke-miterlimit:10;}
	.st77{fill:none;stroke:#000000;stroke-width:0.75;stroke-linecap:round;stroke-linejoin:round;stroke-miterlimit:10;}
	.st78{fill:#ED1C24;}
	.st79{fill:#FF0000;}
	.st80{fill:#F90000;}
	.st81{fill:#3F8AE9;stroke:#3F8AE9;stroke-width:0.5;stroke-miterlimit:10;}
	.st82{fill:#73AEEF;}
	.st83{fill:#50D33D;}
</style>
<g>
	<g>
		<path class="st82" d="M38.3,212.7c-7.8,0-10.7-2.9-10.7-10.7V39.6c0-7.8,3.7-9.9,11.5-9.9H53c2.6,0,5.5-3.3,5.5-7.3
			c0-3.2-2.1-7.3-5.2-7.3H33.6c-13,0-20.7,7.7-20.7,20.7v169.9c0,13,8.2,20.7,20.7,20.7h72.8c0,0-6.9-7.4-9.9-13.6L38.3,212.7
			L38.3,212.7z M38.3,212.7"/>
		<path class="st82" d="M161.3,29.7h15.8c7.8,0,9.9,2.7,9.9,10.5v56.6c3.3,1.6,11.2,5.5,14.2,7.5V35.7c0-13-7.7-20.7-20.7-20.7
			h-19.2c-3.1,0-5.5,4.3-5.5,7.6C155.8,26.3,158.7,29.7,161.3,29.7L161.3,29.7z M161.3,29.7"/>
		<path class="st82" d="M48.8,54.7c0,5.9,3.9,11.1,9.8,11.1h96.9c5.8,0,9.8-5.2,9.8-11.1c0-5.9-3.9-11.1-9.8-11.1h-20.2v-24
			c0-9.3-7.5-16.8-16.8-16.8H95.7c-9.3,0-16.8,7.5-16.8,16.8v24H58.6C52.8,43.6,48.8,48.9,48.8,54.7L48.8,54.7z M107,13.3
			c6.1,0,11.2,5,11.2,11.2c0,6.1-5,11.2-11.2,11.2c-6.1,0-11.2-5-11.2-11.2C95.9,18.3,100.9,13.3,107,13.3L107,13.3z M107,13.3"/>
		<path class="st82" d="M140.9,90.9H58.6c-5.9,0-9.8,5.2-9.8,11.1c0,5.9,3.9,11.1,9.8,11.1h43C111.8,102.8,126.2,94.2,140.9,90.9
			L140.9,90.9z M140.9,90.9"/>
		<path class="st82" d="M48.8,148c0,5.9,3.7,11.1,9.5,11.1h24.9c1.1-8,3.3-15.9,8.4-22.2h-33C52.8,136.9,48.8,142.2,48.8,148
			L48.8,148z M48.8,148"/>
		<g>
			<g>
				<path class="st83" d="M158.3,110.6c-32,0-57.9,25.9-57.9,57.9c0,32,25.9,57.9,57.9,57.9c32,0,57.9-25.9,57.9-57.9
					C216.2,136.5,190.3,110.6,158.3,110.6L158.3,110.6z M198.4,154.6L154,199.1c-1.4,1.4-3.3,2.1-5.2,2.1c-1.9,0-3.8-0.7-5.2-2.1
					l-25.3-25.3c-2.9-2.9-2.9-7.5,0-10.4c2.9-2.9,7.5-2.9,10.4,0l20.1,20.1l39.2-39.2c2.9-2.9,7.5-2.9,10.4,0
					C201.3,147.1,201.3,151.8,198.4,154.6L198.4,154.6z M198.4,154.6"/>
			</g>
		</g>
	</g>
</g>
</svg>
