<?xml version="1.0" standalone="no"?><!DOCTYPE svg PUBLIC "-//W3C//DTD SVG 1.1//EN" "http://www.w3.org/Graphics/SVG/1.1/DTD/svg11.dtd"><svg t="1527931739485" class="icon" style="" viewBox="0 0 1024 1024" version="1.1" xmlns="http://www.w3.org/2000/svg" p-id="4027" xmlns:xlink="http://www.w3.org/1999/xlink" width="200" height="200"><defs><style type="text/css"></style></defs><path d="M512 0C230.4 0 0 230.4 0 512s230.4 512 512 512 512-230.4 512-512S793.6 0 512 0z m-76.8 647.314286c-25.6 0-47.542857-3.657143-73.142857-10.971429l-73.142857 36.571429 21.942857-65.828572c-54.857143-36.571429-87.771429-84.114286-87.771429-146.285714 0-102.4 95.085714-182.857143 215.771429-182.857143 106.057143 0 197.485714 65.828571 215.771428 149.942857h-21.942857c-102.4 0-182.857143 76.8-182.857143 171.885715 0 14.628571 3.657143 29.257143 7.314286 43.885714-10.971429 3.657143-14.628571 3.657143-21.942857 3.657143z m314.514286 73.142857l14.628571 54.857143-58.514286-32.914286c-21.942857 3.657143-43.885714 10.971429-65.828571 10.971429-102.4 0-182.857143-69.485714-182.857143-153.6 0-84.114286 80.457143-157.257143 182.857143-157.257143 95.085714 0 182.857143 69.485714 182.857143 157.257143 3.657143 47.542857-29.257143 91.428571-73.142857 120.685714z" p-id="4028" fill="#3f8ae9"></path><path d="M731.428571 548.571429c0 10.971429-10.971429 21.942857-25.6 21.942857-10.971429 0-21.942857-10.971429-21.942857-21.942857s10.971429-21.942857 21.942857-21.942858c14.628571 0 25.6 10.971429 25.6 21.942858zM610.742857 548.571429c0 10.971429-10.971429 21.942857-25.6 21.942857-10.971429 0-21.942857-10.971429-21.942857-21.942857s10.971429-21.942857 21.942857-21.942858c14.628571 0 25.6 10.971429 25.6 21.942858zM541.257143 398.628571c0 14.628571-10.971429 25.6-25.6 25.6s-32.914286-10.971429-32.914286-25.6c0-14.628571 18.285714-25.6 32.914286-25.6s25.6 10.971429 25.6 25.6zM391.314286 398.628571c0 14.628571-10.971429 25.6-25.6 25.6-14.628571 0-32.914286-10.971429-32.914286-25.6s18.285714-25.6 32.914286-25.6 25.6 10.971429 25.6 25.6z" p-id="4029" fill="#3f8ae9"></path></svg>