<?xml version="1.0" encoding="utf-8"?>
<!-- Generator: Adobe Illustrator 21.0.0, SVG Export Plug-In . SVG Version: 6.00 Build 0)  -->
<svg version="1.1" id="图层_1" xmlns="http://www.w3.org/2000/svg" xmlns:xlink="http://www.w3.org/1999/xlink" x="0px" y="0px"
	 viewBox="0 0 200 200" style="enable-background:new 0 0 200 200;" xml:space="preserve">
<style type="text/css">
	.st0{fill:#D81E06;}
	.st1{fill:#FFFFFF;}
</style>
<path class="st0" d="M161.8,38.2c-17.1-17.1-39.4-25.6-61.8-25.6c-22.4,0-44.7,8.5-61.8,25.6c-34.1,34.1-34.1,89.4,0,123.5
	c17.1,17.1,39.4,25.6,61.8,25.6c22.4,0,44.7-8.5,61.8-25.6C195.9,127.6,195.9,72.3,161.8,38.2z M150.2,150.1
	c-13.4,13.4-31.2,20.8-50.2,20.8s-36.8-7.4-50.2-20.8S29.1,118.9,29.1,100s7.4-36.8,20.8-50.2S81.1,29,100.1,29s36.8,7.4,50.2,20.8
	C163.6,63.2,171,81,171,100S163.6,136.7,150.2,150.1z"/>
<circle class="st0" cx="100" cy="97.8" r="76.6"/>
<path class="st1" d="M135.5,91.8h-71c-4.5,0-8.2,3.7-8.2,8.2s3.7,8.2,8.2,8.2h71c4.5,0,8.2-3.7,8.2-8.2S140.1,91.8,135.5,91.8z"/>
</svg>
