<?xml version="1.0" encoding="utf-8"?>
<!-- Generator: Adobe Illustrator 21.0.0, SVG Export Plug-In . SVG Version: 6.00 Build 0)  -->
<svg version="1.1" id="图层_1" xmlns="http://www.w3.org/2000/svg" xmlns:xlink="http://www.w3.org/1999/xlink" x="0px" y="0px"
	 viewBox="0 0 262.3 200" style="enable-background:new 0 0 262.3 200;" xml:space="preserve">
<style type="text/css">
	.st0{fill:#3F8AE9;}
</style>
<path class="st0" d="M3,77.4C-0.6,81.6-0.6,87.8,2.9,92l58.5,71l0,0c4,4.9,11.2,5.6,16.1,1.6c4.9-4,5.6-11.2,1.6-16.1l-41.1-50
	h142.1c32.6,0,59.1,26.5,59.1,59.1c0,1.1,0,26.3-0.1,28.3c-0.2,6.3,4.8,11.5,11,11.7l0.4,0c6.1,0,11.1-4.8,11.4-10.9
	c0.1-1.6,0.1-28.9,0.1-29.2c0-45.2-36.8-82-81.9-82H34.3l45.8-54.4c0.1-0.1,0.2-0.3,0.3-0.4c4-4.9,3.2-12.1-1.7-16.1
	c-4.9-4-12.1-3.2-16.1,1.7L3,77.4L3,77.4z"/>
</svg>
