<?xml version="1.0" encoding="utf-8"?>
<!-- Generator: Adobe Illustrator 21.0.0, SVG Export Plug-In . SVG Version: 6.00 Build 0)  -->
<svg version="1.1" id="图层_1" xmlns="http://www.w3.org/2000/svg" xmlns:xlink="http://www.w3.org/1999/xlink" x="0px" y="0px"
	 viewBox="0 0 261.5 200" style="enable-background:new 0 0 261.5 200;" xml:space="preserve">
<style type="text/css">
	.st0{fill:#97BFF3;}
</style>
<path class="st0" d="M258.9,77.3L199.2,6.5c-4-4.9-11.2-5.7-16.1-1.7c-4.9,4-5.7,11.2-1.7,16.1c0.1,0.1,0.2,0.3,0.3,0.4l45.8,54.4
	H81.9c-45.2,0-81.9,36.8-81.9,82c0,0.3,0,27.6,0.1,29.2c0.3,6.1,5.3,10.9,11.4,10.9h0.4c6.3-0.2,11.2-5.5,11-11.7
	c0-2.1-0.1-27.2-0.1-28.3c0-32.6,26.5-59.1,59.1-59.1H224l-41.1,50c-4,4.9-3.3,12.1,1.6,16.1c4.9,4,12.1,3.3,16.1-1.6l0,0l58.5-71
	C262.5,87.7,262.4,81.5,258.9,77.3L258.9,77.3z"/>
</svg>
