<?xml version="1.0" encoding="utf-8"?>
<!-- Generator: Adobe Illustrator 21.0.0, SVG Export Plug-In . SVG Version: 6.00 Build 0)  -->
<svg version="1.1" id="图层_1" xmlns="http://www.w3.org/2000/svg" xmlns:xlink="http://www.w3.org/1999/xlink" x="0px" y="0px"
	 viewBox="0 0 30.8 20.2" style="enable-background:new 0 0 30.8 20.2;" xml:space="preserve">
<style type="text/css">
	.st0{fill:#F5F5F5;}
	.st1{fill:#3F8AE9;}
	.st2{fill:#FFFFFF;}
	.st3{opacity:0.38;fill:#B2B2B2;}
	.st4{fill:#90CAF9;}
	.st5{opacity:0.18;fill:#5D9FE8;stroke:#5D9FE8;stroke-width:4;stroke-miterlimit:10;}
	.st6{opacity:0.33;fill:#BDCAD1;}
	.st7{opacity:0.54;}
	.st8{fill:#9AC4DB;}
	.st9{opacity:7.000000e-02;fill:#3F8AE9;}
	.st10{fill:#79AEF0;}
	.st11{fill:#548AC6;}
	.st12{fill:#7F7F7F;}
	.st13{fill:none;stroke:#FFFFFF;stroke-width:2.5;stroke-linecap:round;stroke-linejoin:round;stroke-miterlimit:10;}
	.st14{fill:none;stroke:#FFFFFF;stroke-width:1.5;stroke-linecap:round;stroke-linejoin:round;stroke-miterlimit:10;}
	.st15{fill:#DDDDDD;}
	.st16{fill:none;stroke:#3F8AE9;stroke-miterlimit:10;}
	.st17{fill:#3F8AE9;stroke:#3F8AE9;stroke-miterlimit:10;}
	.st18{clip-path:url(#SVGID_4_);}
	.st19{fill:none;stroke:#3F8AE9;stroke-width:2;stroke-miterlimit:10;}
	.st20{clip-path:url(#SVGID_8_);}
	.st21{clip-path:url(#SVGID_12_);}
	.st22{clip-path:url(#SVGID_16_);}
	.st23{filter:url(#Adobe_OpacityMaskFilter);}
	.st24{opacity:0.1;mask:url(#SVGID_19_);}
	.st25{fill:#5D9FE8;}
	.st26{filter:url(#Adobe_OpacityMaskFilter_1_);}
	.st27{opacity:0.1;mask:url(#SVGID_22_);}
	.st28{fill:#EAEAEA;}
	.st29{fill:#EB3E1D;}
	.st30{fill:#CAD936;}
	.st31{fill:#7CB042;}
	.st32{fill:#273238;}
	.st33{opacity:0.9;fill:#3F8AE9;}
	.st34{opacity:0.9;fill:#CAD936;}
	.st35{opacity:0.9;fill:#7CB042;}
	.st36{opacity:0.9;fill:#273238;}
	.st37{opacity:0.8;fill:#3F8AE9;}
	.st38{opacity:0.8;fill:#CAD936;}
	.st39{opacity:0.8;fill:#7CB042;}
	.st40{opacity:0.8;fill:#273238;}
	.st41{opacity:0.9;fill:#FFFFFF;}
	.st42{opacity:0.8;fill:#FFFFFF;}
	.st43{opacity:0.7;fill:#FFFFFF;}
	.st44{opacity:0.7;fill:#CAD936;}
	.st45{opacity:0.7;fill:#7CB042;}
	.st46{opacity:0.7;fill:#273238;}
	.st47{opacity:0.32;fill:none;stroke:#83A8B5;stroke-width:0.5;stroke-miterlimit:10;}
	.st48{fill:#FFE0B2;}
	.st49{fill:#FB8C00;}
	.st50{opacity:0.87;}
	.st51{fill:none;}
	.st52{fill:#1976D2;}
	.st53{opacity:0.1;}
	.st54{fill:none;stroke:#F5F5F5;stroke-width:2.5;stroke-linecap:round;stroke-linejoin:round;stroke-miterlimit:10;}
	.st55{fill:none;stroke:#F5F5F5;stroke-width:1.5;stroke-linecap:round;stroke-linejoin:round;stroke-miterlimit:10;}
	.st56{fill:none;stroke:#5D9FE8;stroke-width:2;stroke-miterlimit:10;}
	.st57{fill:none;stroke:#1E88E5;stroke-width:2;stroke-linecap:round;stroke-linejoin:round;stroke-miterlimit:10;}
	.st58{opacity:0.12;fill:none;stroke:#000000;stroke-width:0.5;stroke-miterlimit:10;}
	.st59{fill:none;stroke:#F5F5F5;stroke-width:0.5;stroke-miterlimit:10;}
	.st60{opacity:0.38;fill:#5D9FE8;}
	.st61{fill:#FAFAFA;}
	.st62{opacity:0.38;fill:#1E88E5;}
	.st63{opacity:0.19;fill:#B2B2B2;}
	.st64{fill:#5D9FE8;stroke:#F5F5F5;stroke-width:0.5;stroke-miterlimit:10;}
	.st65{opacity:0.8;}
	.st66{opacity:0.38;}
	.st67{opacity:0.38;fill:none;}
	.st68{fill:none;stroke:#3F8AE9;stroke-width:2.5;stroke-linecap:round;stroke-linejoin:round;stroke-miterlimit:10;}
	.st69{clip-path:url(#SVGID_34_);}
	.st70{fill:none;stroke:#B2B2B2;stroke-miterlimit:10;}
	.st71{fill:#B2B2B2;}
	.st72{fill:none;stroke:#3F8AE9;stroke-width:1.5;stroke-miterlimit:10;}
	.st73{fill:none;stroke:#3F8AE9;stroke-width:0.75;stroke-miterlimit:10;}
	.st74{fill:#D1D1D1;}
	.st75{opacity:0.54;fill:#020202;}
	.st76{opacity:0.3;fill:none;stroke:#000000;stroke-width:0.25;stroke-miterlimit:10;}
	.st77{fill:none;stroke:#000000;stroke-width:0.75;stroke-linecap:round;stroke-linejoin:round;stroke-miterlimit:10;}
	.st78{clip-path:url(#SVGID_36_);}
</style>
<rect x="224.6" y="-597.6" class="st0" width="375.1" height="664.7"/>
<g>
	
		<image style="overflow:visible;opacity:0.38;" width="388" height="72" xlink:href="2DB959BD.png"  transform="matrix(1 0 0 1 218.8712 -558.5709)">
	</image>
	<g>
		<rect x="224.5" y="-553.9" class="st1" width="375" height="58.4"/>
	</g>
</g>
<g>
	
		<image style="overflow:visible;opacity:0.28;" width="281" height="24" xlink:href="2DB959BF.png"  transform="matrix(1 0 0 1 266.8712 -33.5709)">
	</image>
	<g>
		<rect x="269.7" y="-31.3" class="st2" width="273.5" height="17.1"/>
	</g>
</g>
<path class="st3" d="M475.7-495.3H347.6l8.1-17.1c0.3-0.7,1.1-1.2,2-1.2h108c0.9,0,1.6,0.5,2,1.2L475.7-495.3z"/>
<path class="st4" d="M352.9-495.3H224.8l8.1-17.1c0.3-0.7,1.1-1.2,2-1.2h108c0.9,0,1.6,0.5,2,1.2L352.9-495.3z"/>
<g>
	
		<image style="overflow:visible;opacity:0.17;" width="177" height="52" xlink:href="2DB959BA.png"  transform="matrix(1 0 0 1 284.8712 -476.5709)">
	</image>
	<g>
		<path class="st2" d="M452.3-470.6H297.6c-1.3,0-2.3,1.1-2.3,2.5v19.9l-4.6,4.9l4.6,4.9v3.6c0,1.4,1,2.5,2.3,2.5h154.7
			c1.3,0,2.3-1.1,2.3-2.5v-33.4C454.7-469.5,453.6-470.6,452.3-470.6z"/>
	</g>
</g>
<line class="st5" x1="271.9" y1="-477.5" x2="271.9" y2="-67.7"/>
<rect x="222.7" y="162" class="st6" width="375" height="547.7"/>
<g>
	<defs>
		<circle id="SVGID_1_" cx="258.4" cy="221.2" r="18.6"/>
	</defs>
	<clipPath id="SVGID_2_">
		<use xlink:href="#SVGID_1_"  style="overflow:visible;"/>
	</clipPath>
	<g transform="matrix(1 0 0 1 -1.525879e-05 0)" style="clip-path:url(#SVGID_2_);">
		
			<image style="overflow:visible;" width="186" height="186" xlink:href="../../../../../个人/文档/犬夜叉頭像-微信.png"  transform="matrix(0.2043 0 0 0.2043 239.2336 201.5487)">
		</image>
	</g>
</g>
<g class="st7">
	
		<image style="overflow:visible;opacity:0.34;" width="359" height="478" xlink:href="2DB959C5.png"  transform="matrix(1 0 0 1 234.7324 240.382)">
	</image>
	<g>
		<rect x="246.7" y="253.9" class="st8" width="328.5" height="446.8"/>
	</g>
</g>
<path class="st9" d="M414.5,233.9c0,0,69.3-10.7,108.7,50.7s-7.3,124.7-7.3,124.7s-34,57.3-69.3,56c-35.3-1.3-50.5-20.7-54-40.7
	c-3.3-18.8,6.7-27.8,9.3-52.6c2.7-24.8-12.7-43.1-12.7-43.1C365,300.3,337.4,247.6,414.5,233.9z"/>
<circle class="st9" cx="358.5" cy="208.5" r="35.3"/>
<circle class="st9" cx="421.2" cy="200.6" r="13.5"/>
<circle class="st9" cx="466.5" cy="201.9" r="14.3"/>
<circle class="st9" cx="512.5" cy="218.1" r="16.5"/>
<g>
	<rect x="550.5" y="681.1" class="st2" width="20.2" height="10.3"/>
	<path class="st1" d="M570.1,681.6v9.3H551v-9.3H570.1 M571.1,680.6H550V692h21.2V680.6L571.1,680.6z"/>
</g>
<rect x="222.5" y="711.9" class="st6" width="375" height="87.8"/>
<path class="st1" d="M263,198.5h-40.3v45.3H263c12.5,0,22.7-10.2,22.7-22.7v0C285.7,208.7,275.5,198.5,263,198.5z M258.4,239.2
	c-9.9,0-18-8.1-18-18c0-9.9,8.1-18,18-18s18,8.1,18,18C276.4,231.2,268.3,239.2,258.4,239.2z"/>
<rect x="222.7" y="135.4" class="st1" width="375" height="43.2"/>
<text transform="matrix(1 0 0 1 239.2323 165.2083)" class="st2" style="font-family:'MicrosoftYaHeiLight'; font-size:18.2964px;">路迹本</text>
<path class="st10" d="M401.4,739.5c0-4.5-4.8-8.2-10.8-8.2H257.3c-6,0-10.8,3.7-10.8,8.2v48.9c0,4.5,4.8,8.2,10.8,8.2h106.1
	c1.8,0,3.5-0.5,4.8-1.4l30.8-26.4c1.6-1,2.5-2.5,2.5-4.1V739.5z"/>
<path class="st11" d="M377,796.6h20c4.1,0,4.4-2.5,4.4-5.6v-14.5c0-2.2-2.4-3.3-4.5-1.9l-21.7,18.4
	C373.2,794.2,374.4,796.6,377,796.6z"/>
<path class="st11" d="M571.1,739.5c0-4.5-4.8-8.2-10.8-8.2H426.9c-6,0-10.8,3.7-10.8,8.2v48.9c0,4.5,4.8,8.2,10.8,8.2h106.1
	c1.8,0,3.5-0.5,4.8-1.4l30.8-26.4c1.6-1,2.5-2.5,2.5-4.1V739.5z"/>
<path class="st10" d="M546.6,796.6h20c4.1,0,4.4-2.5,4.4-5.6v-14.5c0-2.2-2.4-3.3-4.5-1.9l-21.7,18.4
	C542.9,794.2,544.1,796.6,546.6,796.6z"/>
<circle class="st1" cx="305.7" cy="429.6" r="5.4"/>
<g>
	<text transform="matrix(1 0 0 1 282.6353 431.0013)"><tspan x="0" y="0" class="st1" style="font-family:'JZunYuan'; font-size:19.2412px;">3</tspan><tspan x="-3.7" y="11.1" class="st1" style="font-family:'JZunYuan'; font-size:9.2358px;">Wed</tspan></text>
</g>
<circle class="st12" cx="305.7" cy="483.5" r="5.4"/>
<g>
	<text transform="matrix(1 0 0 1 282.6172 484.8601)"><tspan x="0" y="0" class="st12" style="font-family:'JZunYuan'; font-size:19.2412px;">4</tspan><tspan x="-3.3" y="11.1" class="st12" style="font-family:'JZunYuan'; font-size:9.2358px;">Thur</tspan></text>
</g>
<circle class="st1" cx="305.7" cy="321.9" r="5.4"/>
<g>
	<text transform="matrix(1 0 0 1 284.4014 323.2838)"><tspan x="0" y="0" class="st1" style="font-family:'JZunYuan'; font-size:19.2412px;">1</tspan><tspan x="-5.4" y="11.1" class="st1" style="font-family:'JZunYuan'; font-size:9.2358px;">Mon</tspan></text>
</g>
<circle class="st1" cx="305.7" cy="375.8" r="5.4"/>
<g>
	<g>
		<g>
			<text transform="matrix(1 0 0 1 282.6355 377.1425)"><tspan x="0" y="0" class="st1" style="font-family:'JZunYuan'; font-size:19.2412px;">2</tspan><tspan x="-1.8" y="11.1" class="st1" style="font-family:'JZunYuan'; font-size:9.2358px;">Tue</tspan></text>
		</g>
	</g>
</g>
<circle class="st1" cx="305.7" cy="591.2" r="5.4"/>
<g>
	<text transform="matrix(1 0 0 1 282.6356 592.5781)"><tspan x="0" y="0" class="st1" style="font-family:'JZunYuan'; font-size:19.2412px;">6</tspan><tspan x="-0.8" y="11.1" class="st1" style="font-family:'JZunYuan'; font-size:9.2358px;">Sat</tspan></text>
</g>
<circle class="st1" cx="305.7" cy="537.3" r="5.4"/>
<g>
	<text transform="matrix(1 0 0 1 282.6356 538.7191)"><tspan x="0" y="0" class="st1" style="font-family:'JZunYuan'; font-size:19.2412px;">5</tspan><tspan x="0.9" y="11.1" class="st1" style="font-family:'JZunYuan'; font-size:9.2358px;">Fri</tspan></text>
</g>
<circle class="st2" cx="305.7" cy="645" r="5.4"/>
<text transform="matrix(1 0 0 1 282.9732 646.4366)"><tspan x="0" y="0" class="st2" style="font-family:'JZunYuan'; font-size:19.2412px;">7</tspan><tspan x="-2.4" y="11.1" class="st2" style="font-family:'JZunYuan'; font-size:9.2358px;">Sun</tspan></text>
<path class="st1" d="M298.7,284.9h-20.2c-4.3,0-7.8-3.5-7.8-7.8v-7c0-4.3,3.5-7.8,7.8-7.8h20.2c4.3,0,7.8,3.5,7.8,7.8v7
	C306.6,281.3,303.1,284.9,298.7,284.9z"/>
<path class="st1" d="M390.5,284.9h-25.6c-2.8,0-5.1-2.3-5.1-5.1v-12.4c0-2.8,2.3-5.1,5.1-5.1h25.6c2.8,0,5.1,2.3,5.1,5.1v12.4
	C395.7,282.6,393.4,284.9,390.5,284.9z"/>
<text transform="matrix(1 0 0 1 273.3358 279.2006)" class="st2" style="font-family:'JZunYuan'; font-size:14.945px;">2018</text>
<path class="st1" d="M263.4,268l-3.8,3.8c-1.4,1.4-1.4,3.6,0,5l3.8,3.8c0.7,0.7,1.6,1,2.5,1V267C264.9,267,264,267.3,263.4,268z"/>
<path class="st1" d="M314.1,280.7l3.8-3.8c1.4-1.4,1.4-3.6,0-5l-3.8-3.8c-0.7-0.7-1.6-1-2.5-1v14.8
	C312.5,281.7,313.4,281.4,314.1,280.7z"/>
<path class="st2" d="M382.9,274.8l2.6,2.6c0.9,0.9,2.5,0.9,3.4,0l2.6-2.6c0.5-0.5,0.7-1.1,0.7-1.7h-10.1
	C382.2,273.7,382.4,274.3,382.9,274.8z"/>
<ellipse class="st13" cx="304.9" cy="752.5" rx="3.4" ry="3"/>
<path class="st13" d="M275.4,774.6l15-13.4c0.7-0.6,1.9-0.6,2.6,0l13.5,11.7l4.9,4.3"/>
<path class="st13" d="M321.2,774.6l-6.9-6.6c-0.5-0.5-1.4-0.5-1.9-0.1l-5.9,4.9"/>
<g>
	<polygon class="st14" points="326.6,774.4 322.8,771.1 344.7,752 348.5,755.3 	"/>
	<polygon class="st14" points="348,754.4 345.7,752.4 347.7,750.7 350,752.7 	"/>
	<polyline class="st14" points="326.3,774.4 321.7,775.3 322.7,771.3 	"/>
	<path class="st14" d="M333.3,758.3l6.8-5.9c0.6-0.5,1.6-0.5,2.2,0l0.6,0.5"/>
</g>
<polygon class="st14" points="498.9,775.8 495.1,772.5 517,753.4 520.8,756.7 "/>
<polygon class="st14" points="520.3,755.8 518,753.8 520,752.1 522.3,754.1 "/>
<polyline class="st14" points="498.7,775.8 494,776.7 495.1,772.7 "/>
<path class="st14" d="M505.6,759.7l6.8-5.9c0.6-0.5,1.6-0.5,2.2,0l0.6,0.5"/>
<line class="st13" x1="449" y1="754.4" x2="476.3" y2="754.4"/>
<line class="st13" x1="450.3" y1="762.9" x2="474.3" y2="762.9"/>
<line class="st13" x1="451.2" y1="771.3" x2="476.3" y2="771.3"/>
<line class="st13" x1="480.8" y1="776.3" x2="493.6" y2="776.3"/>
<path class="st13" d="M326.3,773.9"/>
<path class="st14" d="M326.3,767.4v-19.6c0-0.9-0.9-1.7-1.9-1.7h-53.7c-1.1,0-1.9,0.8-1.9,1.7v32.6c0,0.9,0.9,1.7,1.9,1.7h53.7
	c1.1,0,1.9-0.8,1.9-1.7l0-6"/>
<path class="st14" d="M500,767.5v-18.9c0-1.7-0.9-2.5-1.9-2.5h-53.7c-1.1,0-1.9,0.8-1.9,1.7v32.6c0,0.9,0.9,1.7,1.9,1.7H498
	c1.1,0,1.9-0.8,1.9-1.7l0-4.9"/>
<path class="st13" d="M326.3,768"/>
<path class="st15" d="M397.4,791h-5c-0.4,0-0.7-0.3-0.7-0.7l0,0c0-0.4,0.3-0.7,0.7-0.7h5c0.4,0,0.7,0.3,0.7,0.7l0,0
	C398.1,790.7,397.8,791,397.4,791z"/>
<path class="st15" d="M397.4,794.1h-5c-0.4,0-0.7-0.3-0.7-0.7l0,0c0-0.4,0.3-0.7,0.7-0.7h5c0.4,0,0.7,0.3,0.7,0.7l0,0
	C398.1,793.8,397.8,794.1,397.4,794.1z"/>
<path class="st15" d="M567.7,791h-5c-0.4,0-0.7-0.3-0.7-0.7l0,0c0-0.4,0.3-0.7,0.7-0.7h5c0.4,0,0.7,0.3,0.7,0.7l0,0
	C568.3,790.7,568,791,567.7,791z"/>
<path class="st15" d="M567.7,794.1h-5c-0.4,0-0.7-0.3-0.7-0.7l0,0c0-0.4,0.3-0.7,0.7-0.7h5c0.4,0,0.7,0.3,0.7,0.7l0,0
	C568.3,793.8,568,794.1,567.7,794.1z"/>
<path class="st1" d="M332.3,278.9h-4.8c-1.5,0-2.7-1.2-2.7-2.7v-2.3c0-1.5,1.2-2.7,2.7-2.7h4.8c1.5,0,2.7,1.2,2.7,2.7v2.3
	C335,277.7,333.8,278.9,332.3,278.9z"/>
<g>
	<text transform="matrix(1 0 0 1 326.5326 277.4462)" class="st2" style="font-family:'JZunYuan'; font-size:6.1908px;">年</text>
</g>
<path class="st1" d="M406.4,279h-5.2c-1.5,0-2.7-1.2-2.7-2.7v-2.6c0-1.5,1.2-2.7,2.7-2.7h5.2c1.5,0,2.7,1.2,2.7,2.7v2.6
	C409.2,277.8,407.9,279,406.4,279z"/>
<g>
	<text transform="matrix(1 0 0 1 400.3157 277.4906)" class="st2" style="font-family:'JZunYuan'; font-size:6.4664px;">月</text>
</g>
<path class="st1" d="M568.4,279h-5.2c-1.5,0-2.7-1.2-2.7-2.7v-2.6c0-1.5,1.2-2.7,2.7-2.7h5.2c1.5,0,2.7,1.2,2.7,2.7v2.6
	C571.1,277.8,569.9,279,568.4,279z"/>
<g>
	<text transform="matrix(1 0 0 1 562.3047 277.4906)" class="st2" style="font-family:'JZunYuan'; font-size:6.4664px;">周</text>
</g>
<rect x="430.5" y="267.8" class="st1" width="20.7" height="13.1"/>
<rect x="457.6" y="267.8" class="st16" width="20.7" height="13.1"/>
<rect x="483.3" y="267.8" class="st16" width="20.7" height="13.1"/>
<rect x="508.9" y="267.8" class="st16" width="20.7" height="13.1"/>
<rect x="534.5" y="267.8" class="st16" width="20.7" height="13.1"/>
<g>
	<text transform="matrix(1 0 0 1 438.3584 279.3224)" class="st2" style="font-family:'JZunYuan'; font-size:12.8935px;">1</text>
</g>
<g>
	<text transform="matrix(1 0 0 1 464.2891 279.3224)" style="fill:#606060; font-family:'JZunYuan'; font-size:12.8935px;">2</text>
</g>
<rect x="514.9" y="680.6" class="st1" width="35.1" height="11.3"/>
<g>
	<text transform="matrix(1 0 0 1 517.8404 690.0289)" class="st2" style="font-family:'JZunYuan'; font-size:10.2927px;">时间轴</text>
</g>
<g>
	<rect x="464.9" y="680.6" class="st1" width="17.9" height="11.3"/>
	<g>
		<text transform="matrix(1 0 0 1 469.3754 690.0289)" class="st2" style="font-family:'JZunYuan'; font-size:10.2927px;">图</text>
	</g>
	<rect x="485.2" y="680.6" class="st1" width="17.9" height="11.3"/>
	<g>
		<text transform="matrix(1 0 0 1 489.6479 689.6564)" class="st2" style="font-family:'JZunYuan'; font-size:9px;">文</text>
	</g>
</g>
<g>
	<text transform="matrix(1 0 0 1 491.4043 279.3224)" style="fill:#606060; font-family:'JZunYuan'; font-size:12.8935px;">3</text>
</g>
<g>
	<text transform="matrix(1 0 0 1 515.5596 279.3224)" style="fill:#606060; font-family:'JZunYuan'; font-size:12.8935px;">4</text>
</g>
<g>
	<text transform="matrix(1 0 0 1 541.4434 279.3224)" style="fill:#606060; font-family:'JZunYuan'; font-size:12.8935px;">5</text>
</g>
<g>
	<text transform="matrix(1 0 0 1 367.717 279.5568)" class="st2" style="font-family:'JZunYuan'; font-size:14.945px;">4</text>
</g>
<path class="st17" d="M407.1,329.7H331c-4.9,0-8.8-3.9-8.8-8.8v0c0-4.9,3.9-8.8,8.8-8.8h76.1c4.9,0,8.8,3.9,8.8,8.8v0
	C415.9,325.8,412,329.7,407.1,329.7z"/>
<g>
	<text transform="matrix(1 0 0 1 333.2012 325.1)" class="st28" style="font-family:'MicrosoftYaHei'; font-size:11.9942px;">莲花山游记</text>
</g>
<path class="st2" d="M408.6,324.5h-5c-0.4,0-0.7-0.3-0.7-0.7l0,0c0-0.4,0.3-0.7,0.7-0.7h5c0.4,0,0.7,0.3,0.7,0.7l0,0
	C409.3,324.2,409,324.5,408.6,324.5z"/>
<path class="st2" d="M408.6,327.6h-5c-0.4,0-0.7-0.3-0.7-0.7l0,0c0-0.4,0.3-0.7,0.7-0.7h5c0.4,0,0.7,0.3,0.7,0.7l0,0
	C409.3,327.3,409,327.6,408.6,327.6z"/>
<path class="st1" d="M441.6,383.8H327.9c-4.9,0-8.8-3.9-8.8-8.8v0c0-4.9,3.9-8.8,8.8-8.8h113.8c4.9,0,8.8,3.9,8.8,8.8v0
	C450.4,379.8,446.5,383.8,441.6,383.8z"/>
<path class="st2" d="M443,378.4h-5c-0.4,0-0.7-0.3-0.7-0.7l0,0c0-0.4,0.3-0.7,0.7-0.7h5c0.4,0,0.7,0.3,0.7,0.7l0,0
	C443.6,378.1,443.3,378.4,443,378.4z"/>
<path class="st2" d="M443,381.4h-5c-0.4,0-0.7-0.3-0.7-0.7l0,0c0-0.4,0.3-0.7,0.7-0.7h5c0.4,0,0.7,0.3,0.7,0.7l0,0
	C443.6,381.1,443.3,381.4,443,381.4z"/>
<g>
	<text transform="matrix(1 0 0 1 332.4799 377.6783)" class="st28" style="font-family:'MicrosoftYaHei'; font-size:8px;">[无标题]今天终于把作业做...</text>
</g>
<g>
	<defs>
		<path id="SVGID_3_" d="M369.2,445.9h-36c-6,0-11-5-11-11v-12.8c0-6.1,5-11,11-11h36c6,0,11,4.9,11,11v12.8
			C380.2,441,375.3,445.9,369.2,445.9z"/>
	</defs>
	<clipPath id="SVGID_4_">
		<use xlink:href="#SVGID_3_"  style="overflow:visible;"/>
	</clipPath>
	<g class="st18">
		<defs>
			<rect id="SVGID_5_" x="313.2" y="411" width="71.3" height="35.2"/>
		</defs>
		<clipPath id="SVGID_6_">
			<use xlink:href="#SVGID_5_"  style="overflow:visible;"/>
		</clipPath>
		<g transform="matrix(1 0 0 1 3.051758e-05 0)" style="clip-path:url(#SVGID_6_);">
			
				<image style="overflow:visible;" width="510" height="340" xlink:href="2DB959C7.jpg"  transform="matrix(0.1356 0 0 0.1097 314.1968 411.2049)">
			</image>
		</g>
	</g>
</g>
<path class="st1" d="M459.8,441h-64.2c-4.9,0-8.8-3.9-8.8-8.8l0,0c0-4.9,3.9-8.8,8.8-8.8h64.2c4.9,0,8.8,3.9,8.8,8.8l0,0
	C468.6,437.1,464.6,441,459.8,441z"/>
<path class="st19" d="M369.2,445.9h-36c-6,0-11-5-11-11v-12.8c0-6.1,5-11,11-11h36c6,0,11,4.9,11,11v12.8
	C380.2,441,375.3,445.9,369.2,445.9z"/>
<path class="st1" d="M384.6,443.9h-5c-0.4,0-0.7-0.3-0.7-0.7l0,0c0-0.4,0.3-0.7,0.7-0.7h5c0.4,0,0.7,0.3,0.7,0.7l0,0
	C385.3,443.6,385,443.9,384.6,443.9z"/>
<path class="st1" d="M384.6,446.9h-5c-0.4,0-0.7-0.3-0.7-0.7l0,0c0-0.4,0.3-0.7,0.7-0.7h5c0.4,0,0.7,0.3,0.7,0.7l0,0
	C385.3,446.6,385,446.9,384.6,446.9z"/>
<text transform="matrix(1 0 0 1 392.917 436.6689)" class="st28" style="font-family:'MicrosoftYaHei'; font-size:11.9942px;">开心的一天</text>
<path class="st2" d="M462.6,435.5h-5c-0.4,0-0.7-0.3-0.7-0.7l0,0c0-0.4,0.3-0.7,0.7-0.7h5c0.4,0,0.7,0.3,0.7,0.7l0,0
	C463.3,435.2,463,435.5,462.6,435.5z"/>
<path class="st2" d="M462.6,438.5h-5c-0.4,0-0.7-0.3-0.7-0.7l0,0c0-0.4,0.3-0.7,0.7-0.7h5c0.4,0,0.7,0.3,0.7,0.7l0,0
	C463.3,438.2,463,438.5,462.6,438.5z"/>
<g>
	<path class="st12" d="M424.2,488.8h-7.6c-3.1,0-5.7-2.5-5.7-5.7v0c0-3.1,2.5-5.7,5.7-5.7h7.6c3.1,0,5.7,2.5,5.7,5.7v0
		C429.9,486.2,427.4,488.8,424.2,488.8z"/>
	<text transform="matrix(1 0 0 1 322.5467 485.6956)"><tspan x="0" y="0" class="st12" style="font-family:'JZunYuan'; font-size:8px;">这天没有留下路迹，快来</tspan><tspan x="88" y="0" class="st2" style="font-family:'JZunYuan'; font-size:8px;"> 补写</tspan><tspan x="106" y="0" class="st12" style="font-family:'JZunYuan'; font-size:8px;"> 吧</tspan></text>
</g>
<path class="st1" d="M441.6,545.9H327.9c-4.9,0-8.8-3.9-8.8-8.8v0c0-4.9,3.9-8.8,8.8-8.8h113.8c4.9,0,8.8,3.9,8.8,8.8v0
	C450.4,542,446.5,545.9,441.6,545.9z"/>
<text transform="matrix(1 0 0 1 319.7827 540.6628)" class="st28" style="font-family:'FZLTHK--GBK1-0'; font-size:11.9942px;">《头号玩家》观后感</text>
<path class="st2" d="M444.4,540.9h-5c-0.4,0-0.7-0.3-0.7-0.7l0,0c0-0.4,0.3-0.7,0.7-0.7h5c0.4,0,0.7,0.3,0.7,0.7l0,0
	C445.1,540.6,444.8,540.9,444.4,540.9z"/>
<path class="st2" d="M444.4,543.9h-5c-0.4,0-0.7-0.3-0.7-0.7l0,0c0-0.4,0.3-0.7,0.7-0.7h5c0.4,0,0.7,0.3,0.7,0.7l0,0
	C445.1,543.6,444.8,543.9,444.4,543.9z"/>
<g>
	<path class="st19" d="M369.2,606.5h-36c-6,0-11-5-11-11v-10.4c0-6,5-11,11-11h36c6,0,11,5,11,11v10.4
		C380.2,601.6,375.3,606.5,369.2,606.5z"/>
	<path class="st1" d="M384.8,604.9h-5.3c-0.3,0-0.5-0.2-0.5-0.5l0,0c0-0.3,0.2-0.5,0.5-0.5h5.3c0.3,0,0.5,0.2,0.5,0.5l0,0
		C385.3,604.7,385.1,604.9,384.8,604.9z"/>
	<path class="st1" d="M384.8,607.2h-5.3c-0.3,0-0.5-0.2-0.5-0.5l0,0c0-0.3,0.2-0.5,0.5-0.5h5.3c0.3,0,0.5,0.2,0.5,0.5l0,0
		C385.3,607,385.1,607.2,384.8,607.2z"/>
	<g>
		<defs>
			<path id="SVGID_7_" d="M439.6,606.5h-36c-6.1,0-11-5-11-11v-10.4c0-6,4.9-11,11-11h36c6,0,11,5,11,11v10.4
				C450.6,601.6,445.6,606.5,439.6,606.5z"/>
		</defs>
		<clipPath id="SVGID_8_">
			<use xlink:href="#SVGID_7_"  style="overflow:visible;"/>
		</clipPath>
		<g class="st20">
			<defs>
				<rect id="SVGID_9_" x="383.6" y="574" width="71.3" height="32.8"/>
			</defs>
			<clipPath id="SVGID_10_">
				<use xlink:href="#SVGID_9_"  style="overflow:visible;"/>
			</clipPath>
			<g style="clip-path:url(#SVGID_10_);">
				
					<image style="overflow:visible;" width="510" height="340" xlink:href="2DB959C5.jpg"  transform="matrix(0.1356 0 0 0.1022 384.5302 574.1885)">
				</image>
			</g>
		</g>
	</g>
	<path class="st19" d="M439.6,606.5h-36c-6.1,0-11-5-11-11v-10.4c0-6,4.9-11,11-11h36c6,0,11,5,11,11v10.4
		C450.6,601.6,445.6,606.5,439.6,606.5z"/>
	<path class="st1" d="M455.1,604.9h-5.3c-0.3,0-0.5-0.2-0.5-0.5l0,0c0-0.3,0.2-0.5,0.5-0.5h5.3c0.3,0,0.5,0.2,0.5,0.5l0,0
		C455.7,604.7,455.4,604.9,455.1,604.9z"/>
	<path class="st1" d="M455.1,607.2h-5.3c-0.3,0-0.5-0.2-0.5-0.5l0,0c0-0.3,0.2-0.5,0.5-0.5h5.3c0.3,0,0.5,0.2,0.5,0.5l0,0
		C455.7,607,455.4,607.2,455.1,607.2z"/>
	<g>
		<defs>
			<path id="SVGID_11_" d="M369.2,606.5h-36c-6,0-11-5-11-11v-10.4c0-6,5-11,11-11h36c6,0,11,5,11,11v10.4
				C380.2,601.6,375.3,606.5,369.2,606.5z"/>
		</defs>
		<clipPath id="SVGID_12_">
			<use xlink:href="#SVGID_11_"  style="overflow:visible;"/>
		</clipPath>
		<g class="st21">
			<defs>
				<rect id="SVGID_13_" x="313.2" y="574" width="71.3" height="32.8"/>
			</defs>
			<clipPath id="SVGID_14_">
				<use xlink:href="#SVGID_13_"  style="overflow:visible;"/>
			</clipPath>
			<g transform="matrix(1 0 0 1 3.051758e-05 0)" style="clip-path:url(#SVGID_14_);">
				
					<image style="overflow:visible;" width="510" height="340" xlink:href="2DB959CB.jpg"  transform="matrix(0.1356 0 0 0.1022 314.1968 574.1885)">
				</image>
			</g>
			<use xlink:href="#SVGID_13_"  style="overflow:visible;fill:none;stroke:#3F8AE9;stroke-miterlimit:10;"/>
		</g>
		<use xlink:href="#SVGID_11_"  style="overflow:visible;fill:none;stroke:#3F8AE9;stroke-miterlimit:10;"/>
	</g>
	<path class="st19" d="M509.9,606.5h-36c-6,0-11-5-11-11v-10.4c0-6,5-11,11-11h36c6.1,0,11,5,11,11v10.4
		C520.9,601.6,515.9,606.5,509.9,606.5z"/>
	<path class="st1" d="M525.3,605.4h-5.1c-0.3,0-0.6-0.3-0.6-0.6l0,0c0-0.3,0.3-0.6,0.6-0.6h5.1c0.3,0,0.6,0.3,0.6,0.6l0,0
		C526,605.1,525.7,605.4,525.3,605.4z"/>
	<path class="st1" d="M525.3,608.2h-5.1c-0.3,0-0.6-0.3-0.6-0.6l0,0c0-0.3,0.3-0.6,0.6-0.6h5.1c0.3,0,0.6,0.3,0.6,0.6l0,0
		C526,608,525.7,608.2,525.3,608.2z"/>
	<g>
		<defs>
			<path id="SVGID_15_" d="M509.9,606.5h-36c-6,0-11-5-11-11v-10.4c0-6,5-11,11-11h36c6.1,0,11,5,11,11v10.4
				C520.9,601.6,515.9,606.5,509.9,606.5z"/>
		</defs>
		<clipPath id="SVGID_16_">
			<use xlink:href="#SVGID_15_"  style="overflow:visible;"/>
		</clipPath>
		<g class="st22">
			<defs>
				<rect id="SVGID_17_" x="453.9" y="574" width="71.3" height="32.8"/>
			</defs>
			<clipPath id="SVGID_18_">
				<use xlink:href="#SVGID_17_"  style="overflow:visible;"/>
			</clipPath>
			<g style="clip-path:url(#SVGID_18_);">
				
					<image style="overflow:visible;" width="510" height="340" xlink:href="2DB959CD.jpg"  transform="matrix(0.1356 0 0 0.1022 454.8635 574.1885)">
				</image>
			</g>
			<use xlink:href="#SVGID_17_"  style="overflow:visible;fill:none;stroke:#3F8AE9;stroke-miterlimit:10;"/>
		</g>
		<use xlink:href="#SVGID_15_"  style="overflow:visible;fill:none;stroke:#3F8AE9;stroke-miterlimit:10;"/>
	</g>
	<path class="st1" d="M549.6,594.4l3.8-3.8c1.4-1.4,1.4-3.6,0-5l-3.8-3.8c-0.7-0.7-1.6-1-2.5-1v14.8
		C548,595.4,548.9,595.1,549.6,594.4z"/>
</g>
<g>
	<g>
		<g>
			<path class="st1" d="M451.1,693.6H288.8c-3.8,0-6.8-3.1-6.8-6.8l0,0c0-3.8,3.1-6.8,6.8-6.8h162.3c3.8,0,6.8,3.1,6.8,6.8l0,0
				C458,690.5,454.9,693.6,451.1,693.6z"/>
		</g>
		<defs>
			<filter id="Adobe_OpacityMaskFilter" filterUnits="userSpaceOnUse" x="282" y="679.9" width="176" height="13.7">
				
					<feColorMatrix  type="matrix" values="-1 0 0 0 1  0 -1 0 0 1  0 0 -1 0 1  0 0 0 1 0" color-interpolation-filters="sRGB" result="source"/>
			</filter>
		</defs>
		<mask maskUnits="userSpaceOnUse" x="282" y="679.9" width="176" height="13.7" id="SVGID_19_">
			<g class="st23">
				
					<image style="overflow:visible;" width="181" height="19" xlink:href="9BC9F856.jpg"  transform="matrix(1 0 0 1 279.7324 677.382)">
				</image>
			</g>
		</mask>
		<g class="st24">
			<path d="M451.1,693.6H288.8c-3.8,0-6.8-3.1-6.8-6.8l0,0c0-3.8,3.1-6.8,6.8-6.8h162.3c3.8,0,6.8,3.1,6.8,6.8l0,0
				C458,690.5,454.9,693.6,451.1,693.6z"/>
		</g>
	</g>
	<g>
		
			<image style="overflow:visible;opacity:0.21;" width="17" height="18" xlink:href="9BC9F856.png"  transform="matrix(1 0 0 1 287.7324 679.382)">
		</image>
		<g>
			<g>
				<path class="st2" d="M300.2,691.3l-2.2-2.2c0.5-0.7,0.8-1.6,0.8-2.5c0-2.5-2-4.5-4.5-4.5c-2.5,0-4.5,2-4.5,4.5s2,4.5,4.5,4.5
					c1,0,2-0.4,2.7-0.9l2.2,2.2c0.1,0.1,0.3,0.2,0.5,0.2s0.4-0.1,0.5-0.2C300.5,692.1,300.5,691.6,300.2,691.3z M291.3,686.6
					c0-1.7,1.4-3,3-3c1.7,0,3,1.4,3,3s-1.4,3-3,3C292.6,689.6,291.3,688.2,291.3,686.6z"/>
			</g>
		</g>
	</g>
</g>
<circle class="st6" cx="548.9" cy="257.2" r="13.3"/>
<g>
	<circle class="st1" cx="265.6" cy="686.7" r="3.4"/>
	<circle class="st16" cx="265.6" cy="686.7" r="5.8"/>
	<line class="st16" x1="258.3" y1="686.1" x2="272.5" y2="686.1"/>
	<line class="st16" x1="265.8" y1="679.7" x2="265.8" y2="693.8"/>
</g>
<rect x="246.6" y="291.9" class="st1" width="328.8" height="1"/>
<rect x="246.6" y="292.9" class="st25" width="328.8" height="1"/>
<rect x="246.6" y="292.9" class="st25" width="328.8" height="0"/>
<rect x="246.6" y="669.2" class="st1" width="328.8" height="1"/>
<rect x="246.6" y="670.2" class="st25" width="328.8" height="1"/>
<rect x="246.6" y="670.2" class="st25" width="328.8" height="0"/>
<path class="st1" d="M752.2,198.5h-40.3v45.3h40.3c12.5,0,22.7-10.2,22.7-22.7v0C774.8,208.7,764.6,198.5,752.2,198.5z M747.5,239.2
	c-9.9,0-18-8.1-18-18c0-9.9,8.1-18,18-18s18,8.1,18,18C765.5,231.2,757.4,239.2,747.5,239.2z"/>
<path class="st9" d="M903.3,233.9c0,0,69.3-10.7,108.7,50.7c39.3,61.3-7.3,124.7-7.3,124.7s-34,57.3-69.3,56
	c-35.3-1.3-50.5-20.7-54-40.7c-3.3-18.8,6.7-27.8,9.3-52.6c2.7-24.8-12.7-43.1-12.7-43.1C853.8,300.3,826.3,247.6,903.3,233.9z"/>
<circle class="st9" cx="847.3" cy="208.5" r="35.3"/>
<circle class="st9" cx="910" cy="200.6" r="13.5"/>
<circle class="st9" cx="955.3" cy="201.9" r="14.3"/>
<circle class="st9" cx="1001.3" cy="218.1" r="16.5"/>
<rect x="711.5" y="162" class="st6" width="375" height="547.7"/>
<rect x="711.5" y="712.2" class="st6" width="375" height="87.8"/>
<g class="st7">
	
		<image style="overflow:visible;opacity:0.34;" width="360" height="478" xlink:href="9BC9F852.png"  transform="matrix(1 0 0 1 722.8712 240.4291)">
	</image>
	<g>
		<rect x="735.5" y="253.9" class="st8" width="328.5" height="446.8"/>
	</g>
</g>
<rect x="711.5" y="135.4" class="st1" width="375" height="43.2"/>
<text transform="matrix(1 0 0 1 728.04 165.2083)" class="st2" style="font-family:'MicrosoftYaHeiLight'; font-size:18.2964px;">路迹本</text>
<path class="st10" d="M889.4,737.4c0-4.5-4.8-8.2-10.8-8.2H745.3c-6,0-10.8,3.7-10.8,8.2v48.9c0,4.5,4.8,8.2,10.8,8.2h106.1
	c1.8,0,3.5-0.5,4.8-1.4l30.8-26.4c1.6-1,2.5-2.5,2.5-4.1V737.4z"/>
<path class="st11" d="M865,794.5h20c4.1,0,4.4-2.5,4.4-5.6v-14.5c0-2.2-2.4-3.3-4.5-1.9l-21.7,18.4
	C861.2,792.1,862.4,794.5,865,794.5z"/>
<path class="st11" d="M1059,737.4c0-4.5-4.8-8.2-10.8-8.2H914.9c-6,0-10.8,3.7-10.8,8.2v48.9c0,4.5,4.8,8.2,10.8,8.2h106.1
	c1.8,0,3.5-0.5,4.8-1.4l30.8-26.4c1.6-1,2.5-2.5,2.5-4.1V737.4z"/>
<path class="st10" d="M1034.6,794.5h20c4.1,0,4.4-2.5,4.4-5.6v-14.5c0-2.2-2.4-3.3-4.5-1.9l-21.7,18.4
	C1030.9,792.1,1032.1,794.5,1034.6,794.5z"/>
<g>
	<defs>
		<circle id="SVGID_20_" cx="747.2" cy="221.2" r="18.6"/>
	</defs>
	<clipPath id="SVGID_21_">
		<use xlink:href="#SVGID_20_"  style="overflow:visible;"/>
	</clipPath>
	<g style="clip-path:url(#SVGID_21_);">
		
			<image style="overflow:visible;" width="186" height="186" xlink:href="../../../../../个人/文档/犬夜叉頭像-微信.png"  transform="matrix(0.2043 0 0 0.2043 728.0413 201.5487)">
		</image>
	</g>
</g>
<path class="st1" d="M787.5,284.9h-20.2c-4.3,0-7.8-3.5-7.8-7.8v-7c0-4.3,3.5-7.8,7.8-7.8h20.2c4.3,0,7.8,3.5,7.8,7.8v7
	C795.4,281.3,791.9,284.9,787.5,284.9z"/>
<path class="st1" d="M879.3,284.9h-25.6c-2.8,0-5.1-2.3-5.1-5.1v-12.4c0-2.8,2.3-5.1,5.1-5.1h25.6c2.8,0,5.1,2.3,5.1,5.1v12.4
	C884.5,282.6,882.2,284.9,879.3,284.9z"/>
<text transform="matrix(1 0 0 1 762.1435 279.2006)" class="st2" style="font-family:'JZunYuan'; font-size:14.945px;">2018</text>
<path class="st1" d="M752.2,268l-3.8,3.8c-1.4,1.4-1.4,3.6,0,5l3.8,3.8c0.7,0.7,1.6,1,2.5,1V267C753.8,267,752.8,267.3,752.2,268z"
	/>
<path class="st1" d="M802.9,280.7l3.8-3.8c1.4-1.4,1.4-3.6,0-5l-3.8-3.8c-0.7-0.7-1.6-1-2.5-1v14.8
	C801.3,281.7,802.3,281.4,802.9,280.7z"/>
<path class="st2" d="M871.7,274.8l2.6,2.6c0.9,0.9,2.5,0.9,3.4,0l2.6-2.6c0.5-0.5,0.7-1.1,0.7-1.7H871
	C871,273.7,871.2,274.3,871.7,274.8z"/>
<ellipse class="st13" cx="792.9" cy="751.3" rx="3.4" ry="3"/>
<path class="st13" d="M763.4,773.4l15-13.4c0.7-0.6,1.9-0.6,2.6,0l13.5,11.7l4.9,4.3"/>
<path class="st13" d="M809.2,772.5l-6.9-6.6c-0.5-0.5-1.4-0.5-1.9-0.1l-5.9,4.9"/>
<g>
	<polygon class="st14" points="814.6,772.3 810.8,769 832.7,749.9 836.5,753.2 	"/>
	<polygon class="st14" points="836,752.3 833.7,750.3 835.7,748.6 837.9,750.6 	"/>
	<polyline class="st14" points="814.3,772.3 809.7,773.3 810.7,769.3 	"/>
	<path class="st14" d="M821.3,756.2l6.8-5.9c0.6-0.5,1.6-0.5,2.2,0l0.6,0.5"/>
</g>
<polygon class="st14" points="986.9,773.7 983.1,770.4 1005,751.3 1008.8,754.6 "/>
<polygon class="st14" points="1008.3,753.7 1006,751.7 1008,750.1 1010.3,752.1 "/>
<polyline class="st14" points="986.7,773.7 982,774.7 983.1,770.7 "/>
<path class="st14" d="M993.6,757.7l6.8-5.9c0.6-0.5,1.6-0.5,2.2,0l0.6,0.5"/>
<line class="st13" x1="937" y1="752.3" x2="964.3" y2="752.3"/>
<line class="st13" x1="938.3" y1="760.8" x2="962.3" y2="760.8"/>
<line class="st13" x1="939.2" y1="769.3" x2="964.3" y2="769.3"/>
<line class="st13" x1="968.8" y1="774.3" x2="981.6" y2="774.3"/>
<path class="st13" d="M814.3,771.8"/>
<path class="st14" d="M814.3,765.3v-19.6c0-0.9-0.9-1.7-1.9-1.7h-53.7c-1.1,0-1.9,0.8-1.9,1.7v32.6c0,0.9,0.9,1.7,1.9,1.7h53.7
	c1.1,0,1.9-0.8,1.9-1.7l0-6"/>
<path class="st14" d="M988,765.4v-18.9c0-1.7-0.9-2.5-1.9-2.5h-53.7c-1.1,0-1.9,0.8-1.9,1.7v32.6c0,0.9,0.9,1.7,1.9,1.7H986
	c1.1,0,1.9-0.8,1.9-1.7l0-4.9"/>
<path class="st13" d="M814.3,765.9"/>
<path class="st15" d="M885.4,789h-5c-0.4,0-0.7-0.3-0.7-0.7l0,0c0-0.4,0.3-0.7,0.7-0.7h5c0.4,0,0.7,0.3,0.7,0.7l0,0
	C886.1,788.7,885.8,789,885.4,789z"/>
<path class="st15" d="M885.4,792h-5c-0.4,0-0.7-0.3-0.7-0.7l0,0c0-0.4,0.3-0.7,0.7-0.7h5c0.4,0,0.7,0.3,0.7,0.7l0,0
	C886.1,791.7,885.8,792,885.4,792z"/>
<path class="st15" d="M1055.7,789h-5c-0.4,0-0.7-0.3-0.7-0.7l0,0c0-0.4,0.3-0.7,0.7-0.7h5c0.4,0,0.7,0.3,0.7,0.7l0,0
	C1056.3,788.7,1056,789,1055.7,789z"/>
<path class="st15" d="M1055.7,792h-5c-0.4,0-0.7-0.3-0.7-0.7l0,0c0-0.4,0.3-0.7,0.7-0.7h5c0.4,0,0.7,0.3,0.7,0.7l0,0
	C1056.3,791.7,1056,792,1055.7,792z"/>
<path class="st1" d="M821.1,278.9h-4.8c-1.5,0-2.7-1.2-2.7-2.7v-2.3c0-1.5,1.2-2.7,2.7-2.7h4.8c1.5,0,2.7,1.2,2.7,2.7v2.3
	C823.8,277.7,822.6,278.9,821.1,278.9z"/>
<g>
	<text transform="matrix(1 0 0 1 815.3403 277.4462)" class="st2" style="font-family:'JZunYuan'; font-size:6.1908px;">年</text>
</g>
<path class="st1" d="M895.2,279H890c-1.5,0-2.7-1.2-2.7-2.7v-2.6c0-1.5,1.2-2.7,2.7-2.7h5.2c1.5,0,2.7,1.2,2.7,2.7v2.6
	C898,277.8,896.7,279,895.2,279z"/>
<g>
	<text transform="matrix(1 0 0 1 889.1235 277.4906)" class="st2" style="font-family:'JZunYuan'; font-size:6.4664px;">月</text>
</g>
<path class="st1" d="M1057.2,279h-5.2c-1.5,0-2.7-1.2-2.7-2.7v-2.6c0-1.5,1.2-2.7,2.7-2.7h5.2c1.5,0,2.7,1.2,2.7,2.7v2.6
	C1060,277.8,1058.7,279,1057.2,279z"/>
<g>
	<text transform="matrix(1 0 0 1 1051.1125 277.4906)" class="st2" style="font-family:'JZunYuan'; font-size:6.4664px;">周</text>
</g>
<rect x="919.3" y="267.8" class="st1" width="20.7" height="13.1"/>
<rect x="946.4" y="267.8" class="st16" width="20.7" height="13.1"/>
<rect x="972.1" y="267.8" class="st16" width="20.7" height="13.1"/>
<rect x="997.7" y="267.8" class="st16" width="20.7" height="13.1"/>
<rect x="1023.3" y="267.8" class="st16" width="20.7" height="13.1"/>
<g>
	<text transform="matrix(1 0 0 1 927.1663 279.3224)" class="st2" style="font-family:'JZunYuan'; font-size:12.8935px;">1</text>
</g>
<g>
	<text transform="matrix(1 0 0 1 953.0969 279.3224)" style="fill:#606060; font-family:'JZunYuan'; font-size:12.8935px;">2</text>
</g>
<rect x="1003.7" y="680.6" class="st1" width="35.1" height="11.3"/>
<g>
	<text transform="matrix(1 0 0 1 1006.6481 690.0291)" class="st2" style="font-family:'JZunYuan'; font-size:10.2927px;">时间轴</text>
</g>
<g>
	<path class="st1" d="M1059,681.6v9.3h-19.2v-9.3H1059 M1060,680.6h-21.2V692h21.2V680.6L1060,680.6z"/>
</g>
<g>
	<text transform="matrix(1 0 0 1 1040.7533 689.5294)" class="st2" style="font-family:'JZunYuan'; font-size:9px;">日历</text>
</g>
<g>
	<rect x="953.7" y="680.6" class="st1" width="17.9" height="11.3"/>
	<g>
		<text transform="matrix(1 0 0 1 958.1832 690.0291)" class="st2" style="font-family:'JZunYuan'; font-size:10.2927px;">图</text>
	</g>
	<rect x="974" y="680.6" class="st1" width="17.9" height="11.3"/>
	<g>
		<text transform="matrix(1 0 0 1 978.4556 689.6567)" class="st2" style="font-family:'JZunYuan'; font-size:9px;">文</text>
	</g>
</g>
<g>
	<text transform="matrix(1 0 0 1 980.2122 279.3224)" style="fill:#606060; font-family:'JZunYuan'; font-size:12.8935px;">3</text>
</g>
<g>
	<text transform="matrix(1 0 0 1 1004.3674 279.3224)" style="fill:#606060; font-family:'JZunYuan'; font-size:12.8935px;">4</text>
</g>
<g>
	<text transform="matrix(1 0 0 1 1030.2512 279.3224)" style="fill:#606060; font-family:'JZunYuan'; font-size:12.8935px;">5</text>
</g>
<g>
	<text transform="matrix(1 0 0 1 856.5247 279.5568)" class="st2" style="font-family:'JZunYuan'; font-size:14.945px;">4</text>
</g>
<g>
	<g>
		<g>
			<path class="st1" d="M939.9,693.6H777.6c-3.8,0-6.8-3.1-6.8-6.8l0,0c0-3.8,3.1-6.8,6.8-6.8h162.3c3.8,0,6.8,3.1,6.8,6.8l0,0
				C946.8,690.5,943.7,693.6,939.9,693.6z"/>
		</g>
		<defs>
			<filter id="Adobe_OpacityMaskFilter_1_" filterUnits="userSpaceOnUse" x="770.8" y="679.9" width="176" height="13.7">
				
					<feColorMatrix  type="matrix" values="-1 0 0 0 1  0 -1 0 0 1  0 0 -1 0 1  0 0 0 1 0" color-interpolation-filters="sRGB" result="source"/>
			</filter>
		</defs>
		<mask maskUnits="userSpaceOnUse" x="770.8" y="679.9" width="176" height="13.7" id="SVGID_22_">
			<g class="st26">
				
					<image style="overflow:visible;" width="181" height="19" xlink:href="9BC9F86E.jpg"  transform="matrix(1 0 0 1 767.8667 677.382)">
				</image>
			</g>
		</mask>
		<g class="st27">
			<path d="M939.9,693.6H777.6c-3.8,0-6.8-3.1-6.8-6.8l0,0c0-3.8,3.1-6.8,6.8-6.8h162.3c3.8,0,6.8,3.1,6.8,6.8l0,0
				C946.8,690.5,943.7,693.6,939.9,693.6z"/>
		</g>
	</g>
	<g>
		
			<image style="overflow:visible;opacity:0.21;" width="18" height="18" xlink:href="9BC9F86E.png"  transform="matrix(1 0 0 1 775.8667 679.382)">
		</image>
		<g>
			<g>
				<path class="st2" d="M789.1,691.3l-2.2-2.2c0.5-0.7,0.8-1.6,0.8-2.5c0-2.5-2-4.5-4.5-4.5c-2.5,0-4.5,2-4.5,4.5s2,4.5,4.5,4.5
					c1,0,2-0.4,2.7-0.9l2.2,2.2c0.1,0.1,0.3,0.2,0.5,0.2s0.4-0.1,0.5-0.2C789.3,692.1,789.3,691.6,789.1,691.3z M780.1,686.6
					c0-1.7,1.4-3,3-3c1.7,0,3,1.4,3,3s-1.4,3-3,3C781.4,689.6,780.1,688.2,780.1,686.6z"/>
			</g>
		</g>
	</g>
</g>
<circle class="st6" cx="1037.7" cy="257.2" r="13.3"/>
<g>
	<circle class="st1" cx="754.4" cy="686.7" r="3.4"/>
	<circle class="st16" cx="754.4" cy="686.7" r="5.8"/>
	<line class="st16" x1="747.1" y1="686.1" x2="761.3" y2="686.1"/>
	<line class="st16" x1="754.6" y1="679.7" x2="754.6" y2="693.8"/>
</g>
<rect x="735.4" y="291.9" class="st1" width="328.8" height="1"/>
<rect x="735.4" y="292.9" class="st25" width="328.8" height="1"/>
<rect x="735.4" y="292.9" class="st25" width="328.8" height="0"/>
<rect x="735.4" y="669.2" class="st1" width="328.8" height="1"/>
<rect x="735.4" y="670.2" class="st25" width="328.8" height="1"/>
<rect x="735.4" y="670.2" class="st25" width="328.8" height="0"/>
<path class="st1" d="M1046.9,318.8c0-7.1-5.2-12.8-11.5-12.8H764.2c-6.3,0-11.5,5.8-11.5,12.8v11.4h294.2V318.8z"/>
<path class="st1" d="M752.7,333.9V500c0,6.1,5.2,11.1,11.5,11.1h271.2c6.3,0,11.5-5,11.5-11.1V333.9H752.7z"/>
<g>
	<text transform="matrix(1 0 0 1 786.3228 319.2716)"><tspan x="0" y="0" class="st2" style="font-family:'JZunYuan'; font-size:13.1774px;">一</tspan><tspan x="-0.9" y="9.5" class="st2" style="font-family:'JZunYuan'; font-size:7.8873px;">Mon</tspan></text>
</g>
<g>
	<text transform="matrix(1 0 0 1 822.7642 319.2716)"><tspan x="0" y="0" class="st2" style="font-family:'JZunYuan'; font-size:13.1774px;">二</tspan><tspan x="0.7" y="9.5" class="st2" style="font-family:'JZunYuan'; font-size:7.8873px;">Tue</tspan></text>
</g>
<g>
	<text transform="matrix(1 0 0 1 859.2056 319.2716)"><tspan x="0" y="0" class="st2" style="font-family:'JZunYuan'; font-size:13.1774px;">三</tspan><tspan x="-0.9" y="9.5" class="st2" style="font-family:'JZunYuan'; font-size:7.8873px;">Wed</tspan></text>
</g>
<g>
	<text transform="matrix(1 0 0 1 895.6314 319.2716)"><tspan x="0" y="0" class="st2" style="font-family:'JZunYuan'; font-size:13.1774px;">四</tspan><tspan x="-0.6" y="9.5" class="st2" style="font-family:'JZunYuan'; font-size:7.8873px;">Thur</tspan></text>
</g>
<g>
	<text transform="matrix(1 0 0 1 932.0894 319.2716)"><tspan x="0" y="0" class="st2" style="font-family:'JZunYuan'; font-size:13.1774px;">五</tspan><tspan x="3" y="9.5" class="st2" style="font-family:'JZunYuan'; font-size:7.8873px;">Fri</tspan></text>
</g>
<g>
	<text transform="matrix(1 0 0 1 968.5308 319.2716)"><tspan x="0" y="0" class="st2" style="font-family:'JZunYuan'; font-size:13.1774px;">六</tspan><tspan x="1.5" y="9.5" class="st2" style="font-family:'JZunYuan'; font-size:7.8873px;">Sat</tspan></text>
</g>
<g>
	<text transform="matrix(1 0 0 1 1004.9722 319.2716)"><tspan x="0" y="0" class="st2" style="font-family:'JZunYuan'; font-size:13.1774px;">日</tspan><tspan x="0.5" y="9.5" class="st2" style="font-family:'JZunYuan'; font-size:7.8873px;">Sun</tspan></text>
</g>
<path class="st28" d="M1025.9,503.2H774c-5.9,0-10.7-4.8-10.7-10.7V352.4c0-5.9,4.8-10.7,10.7-10.7h251.9c5.9,0,10.7,4.8,10.7,10.7
	v140.1C1036.6,498.4,1031.8,503.2,1025.9,503.2z"/>
<g>
	<text transform="matrix(1 0 0 1 1008.192 362.1207)" class="st12" style="font-family:'Candara'; font-size:19.2767px;">1</text>
</g>
<g>
	<text transform="matrix(1 0 0 1 788.4586 387.8834)" class="st12" style="font-family:'Candara'; font-size:19.2767px;">2</text>
	<text transform="matrix(1 0 0 1 824.6705 387.8829)" class="st12" style="font-family:'Candara'; font-size:19.2767px;">3</text>
	<text transform="matrix(1 0 0 1 860.6558 387.8829)" class="st12" style="font-family:'Candara'; font-size:19.2767px;">4</text>
	<text transform="matrix(1 0 0 1 897.5015 387.8829)" class="st12" style="font-family:'Candara'; font-size:19.2767px;">5</text>
	<text transform="matrix(1 0 0 1 933.3599 387.8834)" class="st12" style="font-family:'Candara'; font-size:19.2767px;">6</text>
	<text transform="matrix(1 0 0 1 970.564 387.8829)" class="st12" style="font-family:'Candara'; font-size:19.2767px;">7</text>
	<text transform="matrix(1 0 0 1 1006.2574 387.8834)" class="st12" style="font-family:'Candara'; font-size:19.2767px;">8</text>
</g>
<circle class="st1" cx="829.4" cy="408.5" r="12.4"/>
<text transform="matrix(1 0 0 1 787.6255 413.6451)" class="st12" style="font-family:'Candara'; font-size:19.2767px;">9</text>
<text transform="matrix(1 0 0 1 820.688 413.6451)" class="st28" style="font-family:'Candara'; font-size:19.2767px;">10</text>
<text transform="matrix(1 0 0 1 859.0562 413.6451)" class="st12" style="font-family:'Candara'; font-size:19.2767px;">11</text>
<text transform="matrix(1 0 0 1 894.4136 413.6451)" class="st12" style="font-family:'Candara'; font-size:19.2767px;">12</text>
<text transform="matrix(1 0 0 1 930.6255 413.6451)" class="st12" style="font-family:'Candara'; font-size:19.2767px;">13</text>
<text transform="matrix(1 0 0 1 966.6109 413.6451)" class="st12" style="font-family:'Candara'; font-size:19.2767px;">14</text>
<text transform="matrix(1 0 0 1 1003.4566 413.6451)" class="st12" style="font-family:'Candara'; font-size:19.2767px;">15</text>
<g>
	<text transform="matrix(1 0 0 1 784.2222 439.4078)" class="st12" style="font-family:'Candara'; font-size:19.2767px;">16</text>
	<text transform="matrix(1 0 0 1 821.4273 439.4088)" class="st12" style="font-family:'Candara'; font-size:19.2767px;">17</text>
	<text transform="matrix(1 0 0 1 857.1216 439.4088)" class="st12" style="font-family:'Candara'; font-size:19.2767px;">18</text>
	<text transform="matrix(1 0 0 1 893.5816 439.4088)" class="st12" style="font-family:'Candara'; font-size:19.2767px;">19</text>
	<text transform="matrix(1 0 0 1 928.9322 439.4078)" class="st12" style="font-family:'Candara'; font-size:19.2767px;">20</text>
	<text transform="matrix(1 0 0 1 967.2974 439.4088)" class="st12" style="font-family:'Candara'; font-size:19.2767px;">21</text>
	<text transform="matrix(1 0 0 1 1002.6568 439.4088)" class="st12" style="font-family:'Candara'; font-size:19.2767px;">22</text>
</g>
<circle class="st29" cx="792.2" cy="461.3" r="12.4"/>
<g>
	<text transform="matrix(1 0 0 1 783.7759 465.1695)" style="fill:#E2E2E2; font-family:'Candara'; font-size:19.2767px;">23</text>
	<text transform="matrix(1 0 0 1 819.7613 465.1695)" class="st12" style="font-family:'Candara'; font-size:19.2767px;">24</text>
	<text transform="matrix(1 0 0 1 856.6089 465.1705)" class="st12" style="font-family:'Candara'; font-size:19.2767px;">25</text>
	<text transform="matrix(1 0 0 1 892.4664 465.1705)" class="st12" style="font-family:'Candara'; font-size:19.2767px;">26</text>
	<text transform="matrix(1 0 0 1 929.6705 465.1695)" class="st12" style="font-family:'Candara'; font-size:19.2767px;">27</text>
	<text transform="matrix(1 0 0 1 965.3638 465.1695)" class="st12" style="font-family:'Candara'; font-size:19.2767px;">28</text>
	<text transform="matrix(1 0 0 1 1001.8238 465.1695)" class="st12" style="font-family:'Candara'; font-size:19.2767px;">29</text>
</g>
<text transform="matrix(1 0 0 1 782.9332 490.9327)" class="st12" style="font-family:'Candara'; font-size:19.2767px;">30</text>
<rect x="-449.9" y="150.6" class="st1" width="26.1" height="11.2"/>
<rect x="-408.6" y="150.6" class="st30" width="26.1" height="11.2"/>
<rect x="-372.8" y="150.6" class="st31" width="26.1" height="11.2"/>
<rect x="-338.9" y="150.6" class="st32" width="26.1" height="11.2"/>
<rect x="-449.9" y="168.4" class="st33" width="26.1" height="11.2"/>
<rect x="-408.6" y="168.4" class="st34" width="26.1" height="11.2"/>
<rect x="-372.8" y="168.4" class="st35" width="26.1" height="11.2"/>
<rect x="-338.9" y="168.4" class="st36" width="26.1" height="11.2"/>
<rect x="-449.9" y="186.1" class="st37" width="26.1" height="11.2"/>
<rect x="-408.6" y="186.1" class="st38" width="26.1" height="11.2"/>
<rect x="-372.8" y="186.1" class="st39" width="26.1" height="11.2"/>
<rect x="-338.9" y="186.1" class="st40" width="26.1" height="11.2"/>
<rect x="-449.9" y="203.9" class="st10" width="26.1" height="11.2"/>
<rect x="-487.9" y="150.6" class="st2" width="26.1" height="11.2"/>
<rect x="-487.9" y="168.4" class="st41" width="26.1" height="11.2"/>
<rect x="-487.9" y="186.1" class="st42" width="26.1" height="11.2"/>
<rect x="-488.5" y="203.1" class="st43" width="26.1" height="11.2"/>
<rect x="-408.6" y="203.9" class="st44" width="26.1" height="11.2"/>
<rect x="-372.8" y="203.9" class="st45" width="26.1" height="11.2"/>
<rect x="-338.9" y="203.9" class="st46" width="26.1" height="11.2"/>
<path class="st44" d="M-279.6,798h-159.3c-5,0-9.1-4.1-9.1-9.1v-76.5c0-5,4.1-9.1,9.1-9.1h159.3c5,0,9.1,4.1,9.1,9.1v76.5
	C-270.5,793.9-274.6,798-279.6,798z"/>
<path class="st10" d="M-278.2,658.7h-152.5c-4.9,0-8.9-4-8.9-8.9v-76.9c0-4.9,4-8.9,8.9-8.9h152.5c4.9,0,8.9,4,8.9,8.9v76.9
	C-269.3,654.7-273.3,658.7-278.2,658.7z"/>
<image style="overflow:visible;" width="675" height="195" xlink:href="9BC9F872.jpg"  transform="matrix(0.4052 0 0 0.4052 -630.4244 371.7664)">
</image>
<image style="overflow:visible;" width="433" height="464" xlink:href="9BC9F871.jpg"  transform="matrix(1 0 0 1 2762.3879 231.6644)">
</image>
<g>
	<text transform="matrix(1 0 0 1 551.9456 689.5291)" class="st1" style="font-family:'JZunYuan'; font-size:9px;">日历</text>
</g>
<line class="st47" x1="735.4" y1="520.3" x2="1064.2" y2="520.3"/>
<line class="st47" x1="247.7" y1="348.8" x2="576.4" y2="348.8"/>
<line class="st47" x1="247.7" y1="402.7" x2="576.4" y2="402.7"/>
<line class="st47" x1="247.7" y1="456.5" x2="576.4" y2="456.5"/>
<line class="st47" x1="247.7" y1="510.4" x2="576.4" y2="510.4"/>
<line class="st47" x1="247.7" y1="564.3" x2="576.4" y2="564.3"/>
<line class="st47" x1="247.7" y1="618.1" x2="576.4" y2="618.1"/>
<g>
	
		<image style="overflow:visible;opacity:0.32;" width="388" height="74" xlink:href="9BC9F876.png"  transform="matrix(1 0 0 1 218.8712 -2.5709)">
	</image>
	<g>
		<rect x="224.7" y="6.3" class="st1" width="375" height="60.9"/>
	</g>
</g>
<circle class="st4" cx="271.9" cy="-442.7" r="8.1"/>
<circle class="st1" cx="271.9" cy="-442.7" r="5.7"/>
<circle class="st4" cx="271.9" cy="-348.5" r="8.1"/>
<circle class="st1" cx="271.9" cy="-348.5" r="5.7"/>
<circle class="st4" cx="271.9" cy="-271.6" r="8.1"/>
<circle class="st1" cx="271.9" cy="-271.6" r="5.7"/>
<circle class="st4" cx="271.9" cy="-175.3" r="8.1"/>
<circle class="st1" cx="271.9" cy="-175.3" r="5.7"/>
<circle class="st48" cx="271.9" cy="-67.7" r="8.1"/>
<circle class="st49" cx="271.9" cy="-67.7" r="5.7"/>
<text transform="matrix(1 0 0 1 240.0607 -436.1329)"><tspan x="0" y="0" style="opacity:0.54;fill:#3F8AE9; font-family:'NotoSansCJKsc-Medium-GBpc-EUC-H'; font-size:18px;">7</tspan><tspan x="-4.2" y="10.8" style="opacity:0.38;fill:#3F8AE9; font-family:'NotoSansCJKsc-Medium-GBpc-EUC-H'; font-size:9px;">Mon</tspan></text>
<text transform="matrix(1 0 0 1 240.0607 -342.3738)"><tspan x="0" y="0" style="opacity:0.54;fill:#3F8AE9; font-family:'NotoSansCJKsc-Medium-GBpc-EUC-H'; font-size:18px;">8</tspan><tspan x="-2.9" y="10.8" style="opacity:0.38;fill:#3F8AE9; font-family:'NotoSansCJKsc-Medium-GBpc-EUC-H'; font-size:9px;">Tue</tspan></text>
<text transform="matrix(1 0 0 1 234.9309 -265.7985)"><tspan x="0" y="0" style="opacity:0.54;fill:#3F8AE9; font-family:'NotoSansCJKsc-Medium-GBpc-EUC-H'; font-size:18px;">10</tspan><tspan x="0.1" y="10.8" style="opacity:0.38;fill:#3F8AE9; font-family:'NotoSansCJKsc-Medium-GBpc-EUC-H'; font-size:9px;">Thur</tspan></text>
<text transform="matrix(1 0 0 1 234.9309 -169.7781)"><tspan x="0" y="0" style="opacity:0.54;fill:#3F8AE9; font-family:'NotoSansCJKsc-Medium-GBpc-EUC-H'; font-size:18px;">11</tspan><tspan x="4.6" y="10.8" style="opacity:0.38;fill:#3F8AE9; font-family:'NotoSansCJKsc-Medium-GBpc-EUC-H'; font-size:9px;">Fri</tspan></text>
<text transform="matrix(1 0 0 1 234.9309 -62.3828)"><tspan x="0" y="0" style="opacity:0.54;fill:#FB8C00; font-family:'NotoSansCJKsc-Medium-GBpc-EUC-H'; font-size:18px;">15</tspan><tspan x="1" y="10.8" style="opacity:0.38;fill:#FB8C00; font-family:'NotoSansCJKsc-Medium-GBpc-EUC-H'; font-size:9px;">Mon</tspan></text>
<g class="st50">
	
		<text transform="matrix(1 0 0 1 301.4916 -454.502)" style="font-family:'NotoSansCJKsc-Regular-GBpc-EUC-H'; font-size:14.5013px;">莲花山游记</text>
</g>
<path class="st1" d="M580.7-90.8l4.3-4.3c1.6-1.6,1.6-4.1,0-5.6l-4.3-4.3c-0.8-0.8-1.8-1.2-2.8-1.2v16.6
	C578.9-89.6,579.9-90,580.7-90.8z"/>
<path class="st1" d="M580.7-273.1l4.3-4.3c1.6-1.6,1.6-4.1,0-5.6l-4.3-4.3c-0.8-0.8-1.8-1.2-2.8-1.2v16.6
	C578.9-272,579.9-272.3,580.7-273.1z"/>
<circle class="st51" cx="341.7" cy="-24" r="3"/>
<path class="st1" d="M323.8-17.6l-2.3-2.3c0.5-0.8,0.8-1.7,0.8-2.6c0-2.6-2.1-4.7-4.7-4.7c-2.6,0-4.7,2.1-4.7,4.7s2.1,4.7,4.7,4.7
	c1.1,0,2-0.4,2.8-1l2.3,2.3c0.2,0.2,0.4,0.2,0.6,0.2c0.2,0,0.4-0.1,0.6-0.2C324.1-16.8,324.1-17.3,323.8-17.6z M314.4-22.5
	c0-1.7,1.4-3.2,3.2-3.2c1.7,0,3.2,1.4,3.2,3.2c0,1.7-1.4,3.2-3.2,3.2C315.8-19.3,314.4-20.8,314.4-22.5z"/>
<path class="st1" d="M23.2,17.2l-3.4-3.4c0.7-1.1,1.2-2.4,1.2-3.8c0-3.8-3.1-6.9-6.9-6.9c-3.8,0-6.9,3.1-6.9,6.9s3.1,6.9,6.9,6.9
	c1.6,0,3-0.5,4.1-1.4l3.3,3.3c0.2,0.2,0.5,0.3,0.8,0.3s0.6-0.1,0.8-0.3C23.7,18.4,23.7,17.7,23.2,17.2z M9.5,10
	c0-2.5,2.1-4.6,4.6-4.6c2.5,0,4.6,2.1,4.6,4.6s-2.1,4.6-4.6,4.6C11.6,14.6,9.5,12.6,9.5,10z"/>
<image style="overflow:visible;" width="477" height="754" xlink:href="9BC9F876.jpg"  transform="matrix(0.4307 0 0 0.4307 -328.9987 -507.4478)">
</image>
<image style="overflow:visible;" width="445" height="743" xlink:href="9BC9F895.jpg"  transform="matrix(0.4021 0 0 0.4021 -530.8818 -476.8989)">
</image>
<g class="st7">
	
		<text transform="matrix(1 0 0 1 302.0913 -438.9371)" style="font-family:'NotoSansCJKsc-DemiLight-GBpc-EUC-H'; font-size:7.4875px;">美好的四月适合踏青，特别是走出房门, 感受...</text>
</g>
<g>
	
		<image style="overflow:visible;opacity:0.17;" width="165" height="52" xlink:href="9BC9F897.png"  transform="matrix(1 0 0 1 284.8712 -305.5709)">
	</image>
	<g>
		<path class="st2" d="M440.5-299.7H297.1c-1.2,0-2.2,1.1-2.2,2.5v19.9l-4.3,4.9l4.3,4.9v3.6c0,1.4,1,2.5,2.2,2.5h143.4
			c1.2,0,2.2-1.1,2.2-2.5v-33.4C442.7-298.6,441.7-299.7,440.5-299.7z"/>
	</g>
</g>
<g class="st50">
	
		<text transform="matrix(1 0 0 1 299.394 -283.5849)" style="font-family:'NotoSansCJKsc-Regular-GBpc-EUC-H'; font-size:14.5013px;">看《头号玩家》有感</text>
</g>
<g class="st7">
	
		<text transform="matrix(1 0 0 1 301.0907 -268.0199)" style="font-family:'NotoSansCJKsc-DemiLight-GBpc-EUC-H'; font-size:7.4875px;">和小伙伴闲着没事就去看了这部蜚声中外...</text>
</g>
<g>
	<g>
		
			<image style="overflow:visible;opacity:0.17;" width="134" height="94" xlink:href="9BC9F895.png"  transform="matrix(1 0 0 1 288.8712 -411.5709)">
		</image>
		<g>
			<path class="st2" d="M413-325.3H296.2c-1.1,0-2-0.9-2-2l0-76.8c0-1.1,0.9-2,2-2H413c1.1,0,2,0.9,2,2v76.8
				C415-326.2,414.1-325.3,413-325.3z"/>
		</g>
	</g>
	<path class="st7" d="M302.6-334.8c-1.2,0-2.2,1-2.2,2.2c0,1.7,2.2,4.2,2.2,4.2s2.2-2.5,2.2-4.2
		C304.8-333.8,303.8-334.8,302.6-334.8z M302.6-331.7c-0.4,0-0.8-0.4-0.8-0.8s0.4-0.8,0.8-0.8c0.4,0,0.8,0.4,0.8,0.8
		S303-331.7,302.6-331.7z"/>
	<g>
		<defs>
			<path id="SVGID_23_" d="M415-338.1H294.1v-66c0-1.1,0.9-2,2-2H413c1.1,0,2,0.9,2,2V-338.1z"/>
		</defs>
		<clipPath id="SVGID_24_">
			<use xlink:href="#SVGID_23_"  style="overflow:visible;"/>
		</clipPath>
		<g style="clip-path:url(#SVGID_24_);">
			
				<image style="overflow:visible;" width="510" height="340" xlink:href="9BC9F893.jpg"  transform="matrix(0.246 0 0 0.2027 291.5162 -406.8854)">
			</image>
		</g>
	</g>
	<g class="st7">
		
			<text transform="matrix(1 0 0 1 307.0803 -329.1093)" style="font-family:'NotoSansCJKsc-DemiLight-GBpc-EUC-H'; font-size:5.9147px;">深圳市南山区深圳大学</text>
	</g>
</g>
<g>
	<g>
		
			<image style="overflow:visible;opacity:0.17;" width="135" height="94" xlink:href="9BC9F89D.png"  transform="matrix(1 0 0 1 287.8712 -241.5709)">
		</image>
		<g>
			<path class="st2" d="M413.3-154.7H295.7c-1.1,0-2-0.9-2-2V-234c0-1.1,0.9-2,2-2h117.6c1.1,0,2,0.9,2,2v77.3
				C415.3-155.6,414.4-154.7,413.3-154.7z"/>
		</g>
	</g>
	<path class="st7" d="M302.1-164.3c-1.3,0-2.3,1-2.3,2.3c0,1.7,2.3,4.2,2.3,4.2s2.3-2.5,2.3-4.2
		C304.4-163.2,303.4-164.3,302.1-164.3z M302.1-161.2c-0.4,0-0.8-0.4-0.8-0.8s0.4-0.8,0.8-0.8s0.8,0.4,0.8,0.8
		S302.6-161.2,302.1-161.2z"/>
	<g>
		<defs>
			<path id="SVGID_25_" d="M415.3-167.6H293.6V-234c0-1.1,0.9-2,2-2h117.7c1.1,0,2,0.9,2,2V-167.6z"/>
		</defs>
		<clipPath id="SVGID_26_">
			<use xlink:href="#SVGID_25_"  style="overflow:visible;"/>
		</clipPath>
		<g style="clip-path:url(#SVGID_26_);">
			
				<image style="overflow:visible;" width="510" height="340" xlink:href="9BC9F89F.jpg"  transform="matrix(0.2477 0 0 0.204 290.9684 -236.823)">
			</image>
		</g>
	</g>
	<g class="st7">
		
			<text transform="matrix(1 0 0 1 306.636 -158.5277)" style="font-family:'NotoSansCJKsc-DemiLight-GBpc-EUC-H'; font-size:5.9541px;">深圳市南山区深圳大学</text>
	</g>
</g>
<g>
	<g>
		
			<image style="overflow:visible;opacity:0.17;" width="135" height="94" xlink:href="9BC9F89C.png"  transform="matrix(1 0 0 1 287.8712 -133.5709)">
		</image>
		<g>
			<path class="st2" d="M412.9-46.9H295.7c-1.1,0-2-0.9-2-2V-126c0-1.1,0.9-2,2-2h117.2c1.1,0,2,0.9,2,2v77.1
				C414.9-47.8,414-46.9,412.9-46.9z"/>
		</g>
	</g>
	<path class="st7" d="M302.1-56.4c-1.2,0-2.3,1-2.3,2.3c0,1.7,2.3,4.2,2.3,4.2s2.3-2.5,2.3-4.2C304.3-55.4,303.3-56.4,302.1-56.4z
		 M302.1-53.4c-0.4,0-0.8-0.4-0.8-0.8s0.4-0.8,0.8-0.8s0.8,0.4,0.8,0.8S302.5-53.4,302.1-53.4z"/>
	<g>
		<defs>
			<path id="SVGID_27_" d="M414.9-59.7H293.6V-126c0-1.1,0.9-2,2-2h117.3c1.1,0,2,0.9,2,2V-59.7z"/>
		</defs>
		<clipPath id="SVGID_28_">
			<use xlink:href="#SVGID_27_"  style="overflow:visible;"/>
		</clipPath>
		<g transform="matrix(1 0 0 1 0 0)" style="clip-path:url(#SVGID_28_);">
			
				<image style="overflow:visible;" width="510" height="340" xlink:href="9BC9F894.jpg"  transform="matrix(0.2469 0 0 0.2034 290.9763 -128.784)">
			</image>
		</g>
	</g>
	<g class="st7">
		
			<text transform="matrix(1 0 0 1 306.5968 -50.7252)" style="font-family:'NotoSansCJKsc-DemiLight-GBpc-EUC-H'; font-size:5.9363px;">深圳市南山区深圳大学</text>
	</g>
</g>
<g>
	<g>
		
			<image style="overflow:visible;opacity:0.17;" width="135" height="94" xlink:href="9BC9F894.png"  transform="matrix(1 0 0 1 420.8712 -133.5709)">
		</image>
		<g>
			<path class="st2" d="M546.1-46.8H428.8c-1.1,0-2-0.9-2-2V-126c0-1.1,0.9-2,2-2h117.3c1.1,0,2,0.9,2,2v77.2
				C548.1-47.7,547.2-46.8,546.1-46.8z"/>
		</g>
	</g>
	<path class="st7" d="M435.2-56.4c-1.2,0-2.3,1-2.3,2.3c0,1.7,2.3,4.2,2.3,4.2s2.3-2.5,2.3-4.2C437.5-55.4,436.4-56.4,435.2-56.4z
		 M435.2-53.3c-0.4,0-0.8-0.4-0.8-0.8c0-0.4,0.4-0.8,0.8-0.8s0.8,0.4,0.8,0.8C436-53.7,435.6-53.3,435.2-53.3z"/>
	<g>
		<defs>
			<path id="SVGID_29_" d="M548.1-59.7H426.7V-126c0-1.1,0.9-2,2-2h117.4c1.1,0,2,0.9,2,2V-59.7z"/>
		</defs>
		<clipPath id="SVGID_30_">
			<use xlink:href="#SVGID_29_"  style="overflow:visible;"/>
		</clipPath>
		<g style="clip-path:url(#SVGID_30_);">
			
				<image style="overflow:visible;" width="510" height="340" xlink:href="9BC9F897.jpg"  transform="matrix(0.2472 0 0 0.2036 424.0768 -128.7848)">
			</image>
		</g>
	</g>
	<g class="st7">
		
			<text transform="matrix(1 0 0 1 439.7129 -50.649)" style="font-family:'NotoSansCJKsc-DemiLight-GBpc-EUC-H'; font-size:5.942px;">深圳市南山区深圳大学</text>
	</g>
</g>
<g>
	<rect x="265.8" y="-324.1" class="st0" width="13.6" height="4.9"/>
	<rect x="265.8" y="-314.1" class="st0" width="13.6" height="4.9"/>
	<rect x="265.8" y="-304.1" class="st0" width="13.6" height="4.9"/>
</g>
<g>
	
		<image style="overflow:visible;opacity:0.17;" width="118" height="52" xlink:href="9BC9F8B8.png"  transform="matrix(1 0 0 1 449.8712 -305.5709)">
	</image>
	<g>
		<path class="st2" d="M558.4-261.2H457.7c-1.1,0-2-0.9-2-2v-34.5c0-1.1,0.9-2,2-2h100.6c1.1,0,2,0.9,2,2v34.5
			C560.4-262.1,559.5-261.2,558.4-261.2z"/>
	</g>
</g>
<g class="st50">
	
		<text transform="matrix(1 0 0 1 462.3451 -283.5849)" style="font-family:'NotoSansCJKsc-Regular-GBpc-EUC-H'; font-size:14.5013px;">[无标题]</text>
</g>
<g class="st7">
	
		<text transform="matrix(1 0 0 1 463.2495 -268.0199)" style="font-family:'NotoSansCJKsc-DemiLight-GBpc-EUC-H'; font-size:7.4875px;">终于将屯了一个礼拜的作业...</text>
</g>
<g>
	
		<image style="overflow:visible;opacity:0.17;" width="157" height="51" xlink:href="9BC9F887.png"  transform="matrix(1 0 0 1 410.8712 -224.5709)">
	</image>
	<g>
		<path class="st2" d="M558.2-181H418.7c-1.1,0-2-0.9-2-2v-34.5c0-1.1,0.9-2,2-2h139.5c1.1,0,2,0.9,2,2v34.5
			C560.2-181.9,559.3-181,558.2-181z"/>
	</g>
</g>
<g class="st50">
	
		<text transform="matrix(1 0 0 1 423.3208 -202.3309)" style="font-family:'NotoSansCJKsc-Regular-GBpc-EUC-H'; font-size:14.5013px;">这是一个很长的标...</text>
</g>
<g class="st7">
</g>
<g class="st7">
	
		<text transform="matrix(1 0 0 1 424.7465 -187.0024)" style="font-family:'NotoSansCJKsc-DemiLight-GBpc-EUC-H'; font-size:7.4875px;">我啥都不写， 我就是想测试下排版，发现...</text>
</g>
<g>
	<rect x="265.8" y="-154.3" class="st0" width="13.6" height="4.9"/>
	<rect x="265.8" y="-144.3" class="st0" width="13.6" height="4.9"/>
	<rect x="265.8" y="-134.2" class="st0" width="13.6" height="4.9"/>
</g>
<rect x="224.5" y="-597.6" class="st52" width="375" height="43.7"/>
<text transform="matrix(1 0 0 1 240.9828 -567.3528)" class="st2" style="font-family:'MicrosoftYaHeiLight'; font-size:18.2964px;">路迹本</text>
<rect x="408.6" y="-332.2" class="st53" width="6.4" height="1.9"/>
<rect x="408.6" y="-329.2" class="st53" width="6.4" height="1.9"/>
<rect x="436.3" y="-290.6" class="st53" width="6.4" height="1.9"/>
<rect x="436.3" y="-287.6" class="st53" width="6.4" height="1.9"/>
<rect x="408.3" y="-161.8" class="st53" width="7" height="2"/>
<rect x="408.3" y="-158.5" class="st53" width="7" height="2"/>
<rect x="407.9" y="-54.7" class="st53" width="7" height="2"/>
<rect x="407.9" y="-51.4" class="st53" width="7" height="2"/>
<rect x="541.1" y="-54.6" class="st53" width="7" height="2"/>
<rect x="541.1" y="-51.4" class="st53" width="7" height="2"/>
<rect x="553.9" y="-215.5" class="st53" width="6.4" height="1.9"/>
<rect x="553.9" y="-212.5" class="st53" width="6.4" height="1.9"/>
<rect x="553.9" y="-290.6" class="st53" width="6.4" height="1.9"/>
<rect x="553.9" y="-287.6" class="st53" width="6.4" height="1.9"/>
<rect x="448.2" y="-468.9" class="st53" width="6.4" height="1.9"/>
<rect x="448.2" y="-465.9" class="st53" width="6.4" height="1.9"/>
<g>
	<ellipse class="st54" cx="318" cy="24.5" rx="3.4" ry="3"/>
	<path class="st54" d="M288.5,46.5l15-13.4c0.7-0.6,1.9-0.6,2.6,0l13.5,11.7l4.9,4.3"/>
	<path class="st54" d="M334.3,46.5l-6.9-6.6c-0.5-0.5-1.4-0.5-1.9-0.1l-5.9,4.9"/>
	<polygon class="st55" points="339.7,46.3 335.9,43 357.8,23.9 361.6,27.2 	"/>
	<polygon class="st55" points="361.1,26.4 358.8,24.4 360.7,22.7 363,24.7 	"/>
	<polyline class="st55" points="339.4,46.3 334.8,47.3 335.8,43.3 	"/>
	<path class="st55" d="M346.4,30.3l6.8-5.9c0.6-0.5,1.6-0.5,2.2,0l0.6,0.5"/>
	<path class="st54" d="M339.4,45.9"/>
	<path class="st55" d="M339.4,39.3V19.7c0-0.9-0.9-1.7-1.9-1.7h-53.7c-1.1,0-1.9,0.8-1.9,1.7v32.6c0,0.9,0.9,1.7,1.9,1.7h53.7
		c1.1,0,1.9-0.8,1.9-1.7l0-6"/>
	<path class="st54" d="M339.4,39.9"/>
</g>
<g>
	<polygon class="st55" points="527.5,47.7 523.7,44.4 545.6,25.3 549.4,28.7 	"/>
	<polygon class="st55" points="548.9,27.8 546.6,25.8 548.5,24.1 550.8,26.1 	"/>
	<polyline class="st55" points="527.2,47.8 522.6,48.7 523.6,44.7 	"/>
	<path class="st55" d="M534.2,31.7l6.8-5.9c0.6-0.5,1.6-0.5,2.2,0l0.6,0.5"/>
	<line class="st54" x1="477.6" y1="26.3" x2="504.8" y2="26.3"/>
	<line class="st54" x1="478.8" y1="34.8" x2="502.8" y2="34.8"/>
	<line class="st54" x1="479.8" y1="43.3" x2="504.8" y2="43.3"/>
	<line class="st54" x1="509.3" y1="48.3" x2="522.1" y2="48.3"/>
	<path class="st55" d="M528.5,39.4V20.5c0-1.7-0.9-2.5-1.9-2.5h-53.7c-1.1,0-1.9,0.8-1.9,1.7v32.6c0,0.9,0.9,1.7,1.9,1.7h53.7
		c1.1,0,1.9-0.8,1.9-1.7l0-4.9"/>
</g>
<g>
	<g>
		
			<image style="overflow:visible;opacity:0.28;" width="42" height="43" xlink:href="9BC9F888.png"  transform="matrix(1 0 0 1 250.8712 -515.5709)">
		</image>
		<g>
			<circle class="st0" cx="271.9" cy="-495.1" r="17"/>
			<circle class="st56" cx="271.9" cy="-495.1" r="17"/>
		</g>
	</g>
	<polyline class="st57" points="279.5,-492.7 269.5,-492.7 269.5,-502.7 	"/>
</g>
<path class="st51" d="M271.9-515.1c-7.2,0-13,5.8-13,13c0,0.1,0,0.1,0,0.2h26c0-0.1,0-0.1,0-0.2C284.9-509.3,279-515.1,271.9-515.1z
	"/>
<path class="st1" d="M286.6-25.2c-1.2,0-2.2,1-2.2,2.2c0,1.2,1,2.2,2.2,2.2c1.2,0,2.2-1,2.2-2.2C288.8-24.2,287.8-25.2,286.6-25.2z
	 M291.5-23.5c-0.3-2.3-2.1-4.1-4.4-4.4V-29h-1.1v1.1c-2.3,0.3-4.1,2.1-4.4,4.4h-1.1v1.1h1.1c0.3,2.3,2.1,4.1,4.4,4.4v1.1h1.1v-1.1
	c2.3-0.3,4.1-2.1,4.4-4.4h1.1v-1.1H291.5z M286.6-19.1c-2.1,0-3.8-1.7-3.8-3.8s1.7-3.8,3.8-3.8c2.1,0,3.8,1.7,3.8,3.8
	S288.7-19.1,286.6-19.1z"/>
<circle class="st51" cx="242.5" cy="-538" r="12.7"/>
<path class="st1" d="M528.8-26.5c-3.2,0-5.9,2-7,4.8c1.1,2.8,3.8,4.8,7,4.8s5.9-2,7-4.8C534.7-24.5,532-26.5,528.8-26.5z
	 M528.8-18.5c-1.8,0-3.2-1.4-3.2-3.2s1.4-3.2,3.2-3.2c1.8,0,3.2,1.4,3.2,3.2S530.6-18.5,528.8-18.5z M528.8-23.6
	c-1.1,0-1.9,0.9-1.9,1.9c0,1.1,0.9,1.9,1.9,1.9s1.9-0.9,1.9-1.9C530.7-22.8,529.9-23.6,528.8-23.6z"/>
<line class="st58" x1="303.1" y1="-31.3" x2="303.1" y2="-14.2"/>
<line class="st58" x1="412.1" y1="6.3" x2="412.1" y2="67.1"/>
<line class="st58" x1="514.3" y1="-31.3" x2="514.3" y2="-14.2"/>
<g>
	<g>
		<path class="st0" d="M523.3-536.5c-0.6,0-1.1-0.5-1.1-1.1v-3.1c0-0.6,0.5-1.1,1.1-1.1c0.6,0,1.1,0.5,1.1,1.1v3.1
			C524.4-537,523.9-536.5,523.3-536.5z"/>
		<path class="st0" d="M515.6-528.7h-3.1c-0.6,0-1.1-0.5-1.1-1.1c0-0.6,0.5-1.1,1.1-1.1h3.1c0.6,0,1.1,0.5,1.1,1.1
			C516.6-529.2,516.2-528.7,515.6-528.7z"/>
		<path class="st0" d="M523.3-517.8c-0.6,0-1.1-0.5-1.1-1.1v-3.1c0-0.6,0.5-1.1,1.1-1.1c0.6,0,1.1,0.5,1.1,1.1v3.1
			C524.4-518.3,523.9-517.8,523.3-517.8z"/>
		<path class="st0" d="M534.3-528.7h-3.1c-0.6,0-1.1-0.5-1.1-1.1c0-0.6,0.5-1.1,1.1-1.1h3.1c0.6,0,1.1,0.5,1.1,1.1
			C535.3-529.2,534.9-528.7,534.3-528.7z"/>
		<path class="st0" d="M523.3-524.1c-3.2,0-5.7-2.6-5.7-5.7c0-3.2,2.6-5.7,5.7-5.7s5.7,2.6,5.7,5.7
			C529.1-526.6,526.5-524.1,523.3-524.1z M523.3-533.4c-2,0-3.6,1.6-3.6,3.6c0,2,1.6,3.6,3.6,3.6s3.6-1.6,3.6-3.6
			C526.9-531.8,525.3-533.4,523.3-533.4z"/>
	</g>
	<path class="st0" d="M517.8-534.2c-0.3,0-0.6-0.1-0.8-0.3l-1.1-1.1c-0.4-0.4-0.4-1.1,0-1.5c0.4-0.4,1.1-0.4,1.5,0l1.1,1.1
		c0.4,0.4,0.4,1.1,0,1.5C518.4-534.3,518.1-534.2,517.8-534.2z"/>
	<path class="st0" d="M516.7-522.1c-0.3,0-0.6-0.1-0.8-0.3c-0.4-0.4-0.4-1.1,0-1.5l1.1-1.1c0.4-0.4,1.1-0.4,1.5,0
		c0.4,0.4,0.4,1.1,0,1.5l-1.1,1.1C517.3-522.2,517-522.1,516.7-522.1z"/>
	<path class="st0" d="M530-522.1c-0.3,0-0.6-0.1-0.8-0.3l-1.1-1.1c-0.4-0.4-0.4-1.1,0-1.5c0.4-0.4,1.1-0.4,1.5,0l1.1,1.1
		c0.4,0.4,0.4,1.1,0,1.5C530.5-522.2,530.2-522.1,530-522.1z"/>
	<path class="st0" d="M528.8-534.2c-0.3,0-0.6-0.1-0.8-0.3c-0.4-0.4-0.4-1.1,0-1.5l1.1-1.1c0.4-0.4,1.1-0.4,1.5,0
		c0.4,0.4,0.4,1.1,0,1.5l-1.1,1.1C529.4-534.3,529.1-534.2,528.8-534.2z"/>
</g>
<text transform="matrix(1 0 0 1 539.7516 -528.3179)" class="st0" style="font-family:'NotoSansCJKsc-Medium-GBpc-EUC-H'; font-size:16.1785px;">24℃</text>
<text transform="matrix(1 0 0 1 545.8511 -517.7943)" class="st0" style="font-family:'NotoSansCJKsc-Medium-GBpc-EUC-H'; font-size:7.3611px;">深   圳</text>
<g>
	
		<text transform="matrix(1 0 0 1 524.8706 -504.8614)" class="st0" style="font-family:'NotoSansCJKsc-Medium-GBpc-EUC-H'; font-size:8.0642px;">世界无烟日</text>
</g>
<rect x="523.1" y="-513.4" class="st59" width="42.9" height="10.4"/>
<g>
	<path class="st57" d="M409.2-502.7"/>
	<path class="st57" d="M409.2-492.7"/>
	<polygon class="st3" points="407.3,-501.9 407,-501.9 407,-500.5 405.6,-500.5 405.6,-501.9 405.3,-501.9 405.1,-501.9 405.1,-500 
		407.5,-500 407.5,-501.9 	"/>
	<g>
		<polygon class="st3" points="417.4,-501.9 417.4,-500.3 415.4,-500.3 415.4,-501.9 415.2,-501.9 415.2,-500 417.7,-500 
			417.7,-501.9 		"/>
		<polygon class="st3" points="417.4,-500.3 417.4,-501.9 417.2,-501.9 417.2,-500.5 415.7,-500.5 415.7,-501.9 415.4,-501.9 
			415.4,-500.3 		"/>
	</g>
	<path class="st3" d="M411.6-510.9c-8.6,0-15.6,6.9-15.9,15.4h31.9C427.3-504.1,420.2-510.9,411.6-510.9z"/>
	<path class="st60" d="M411.7-511.9c9.2,0,16.6,7.3,16.9,16.4h1c-0.3-9.6-8.2-17.4-17.9-17.4s-17.6,7.8-17.9,17.4h1
		C395-504.6,402.5-511.9,411.7-511.9z"/>
	<path class="st60" d="M411.7-511.9c-9.2,0-16.6,7.3-16.9,16.4h1c0.3-8.5,7.3-15.4,15.9-15.4c8.6,0,15.6,6.9,15.9,15.4h1
		C428.3-504.6,420.8-511.9,411.7-511.9z"/>
	<path class="st51" d="M414.3-497.6c-0.5,0-1,0.4-1,1.3c0,0.3,0.1,0.6,0.2,0.8h1.8c0.1-0.1,0.1-0.2,0.2-0.3
		C415.4-497.1,414.9-497.6,414.3-497.6z"/>
	<path class="st51" d="M414.4-495c0.3,0,0.7-0.2,1-0.5h-1.8C413.7-495.2,414-495,414.4-495z"/>
	<path class="st3" d="M408.6-498.6c-0.5,0.3-1,0.5-1.7,0.6v0.9h1.3v1.5h1.4v-3H408.6z"/>
	<path class="st3" d="M413.3-496.3c0-0.9,0.4-1.3,1-1.3c0.6,0,1.1,0.5,1.2,1.8c-0.1,0.1-0.1,0.2-0.2,0.3h1.5
		c-0.1-2.2-1.3-3.2-2.6-3.2c-1.2,0-2.3,0.9-2.3,2.4c0,0.3,0,0.5,0.1,0.8h1.4C413.4-495.7,413.3-496,413.3-496.3z"/>
	<path class="st60" d="M418.3-501.9h-1.1v-0.9v-1.7h-1.5v1.7v0.9H407v-2.6h-1.5v2.6h-1.3c-1.3,0-2.4,1.1-2.4,2.4v4h18.7v-4
		C420.6-500.8,419.6-501.9,418.3-501.9z"/>
</g>
<rect x="1243.6" y="-597.6" class="st0" width="375.1" height="664.7"/>
<rect x="1243.6" y="-597.6" class="st52" width="375" height="43.7"/>
<text transform="matrix(1 0 0 1 1260.0392 -567.3528)" class="st2" style="font-family:'MicrosoftYaHeiLight'; font-size:18.2964px;">&lt;-图片日记</text>
<rect x="711.5" y="-597.6" class="st0" width="375.1" height="664.7"/>
<g>
	
		<image style="overflow:visible;opacity:0.38;" width="388" height="72" xlink:href="9BC9F88B.png"  transform="matrix(1 0 0 1 705.8379 -558.5709)">
	</image>
	<g>
		<rect x="711.5" y="-553.9" class="st1" width="375" height="58.4"/>
	</g>
</g>
<g>
	
		<image style="overflow:visible;opacity:0.28;" width="281" height="24" xlink:href="9BC9F889.png"  transform="matrix(1 0 0 1 753.8379 -33.5709)">
	</image>
	<g>
		<rect x="756.7" y="-31.3" class="st2" width="273.5" height="17.1"/>
	</g>
</g>
<g>
	
		<image style="overflow:visible;opacity:0.32;" width="388" height="74" xlink:href="9BC9F88F.png"  transform="matrix(1 0 0 1 705.8379 -2.5709)">
	</image>
	<g>
		<rect x="711.6" y="6.3" class="st1" width="375" height="60.9"/>
	</g>
</g>
<circle class="st51" cx="828.6" cy="-24" r="3"/>
<path class="st1" d="M810.8-17.6l-2.3-2.3c0.5-0.8,0.8-1.7,0.8-2.6c0-2.6-2.1-4.7-4.7-4.7c-2.6,0-4.7,2.1-4.7,4.7s2.1,4.7,4.7,4.7
	c1.1,0,2-0.4,2.8-1l2.3,2.3c0.2,0.2,0.4,0.2,0.6,0.2s0.4-0.1,0.6-0.2C811.1-16.8,811.1-17.3,810.8-17.6z M801.4-22.5
	c0-1.7,1.4-3.2,3.2-3.2c1.7,0,3.2,1.4,3.2,3.2c0,1.7-1.4,3.2-3.2,3.2C802.8-19.3,801.4-20.8,801.4-22.5z"/>
<rect x="711.5" y="-597.6" class="st52" width="375" height="43.7"/>
<text transform="matrix(1 0 0 1 727.9495 -567.3528)" class="st2" style="font-family:'MicrosoftYaHeiLight'; font-size:18.2964px;">路迹本</text>
<g>
	<ellipse class="st54" cx="805" cy="24.5" rx="3.4" ry="3"/>
	<path class="st54" d="M775.5,46.5l15-13.4c0.7-0.6,1.9-0.6,2.6,0l13.5,11.7l4.9,4.3"/>
	<path class="st54" d="M821.2,46.5l-6.9-6.6c-0.5-0.5-1.4-0.5-1.9-0.1l-5.9,4.9"/>
	<polygon class="st55" points="826.6,46.3 822.8,43 844.7,23.9 848.5,27.2 	"/>
	<polygon class="st55" points="848.1,26.4 845.8,24.4 847.7,22.7 850,24.7 	"/>
	<polyline class="st55" points="826.4,46.3 821.7,47.3 822.8,43.3 	"/>
	<path class="st55" d="M833.4,30.3l6.8-5.9c0.6-0.5,1.6-0.5,2.2,0l0.6,0.5"/>
	<path class="st54" d="M826.4,45.9"/>
	<path class="st55" d="M826.4,39.3V19.7c0-0.9-0.9-1.7-1.9-1.7h-53.7c-1.1,0-1.9,0.8-1.9,1.7v32.6c0,0.9,0.9,1.7,1.9,1.7h53.7
		c1.1,0,1.9-0.8,1.9-1.7l0-6"/>
	<path class="st54" d="M826.4,39.9"/>
</g>
<g>
	<polygon class="st55" points="1014.4,47.7 1010.6,44.4 1032.5,25.3 1036.3,28.7 	"/>
	<polygon class="st55" points="1035.9,27.8 1033.6,25.8 1035.5,24.1 1037.8,26.1 	"/>
	<polyline class="st55" points="1014.2,47.8 1009.5,48.7 1010.6,44.7 	"/>
	<path class="st55" d="M1021.2,31.7l6.8-5.9c0.6-0.5,1.6-0.5,2.2,0l0.6,0.5"/>
	<line class="st54" x1="964.6" y1="26.3" x2="991.8" y2="26.3"/>
	<line class="st54" x1="965.8" y1="34.8" x2="989.8" y2="34.8"/>
	<line class="st54" x1="966.8" y1="43.3" x2="991.8" y2="43.3"/>
	<line class="st54" x1="996.3" y1="48.3" x2="1009.1" y2="48.3"/>
	<path class="st55" d="M1015.5,39.4V20.5c0-1.7-0.9-2.5-1.9-2.5h-53.7c-1.1,0-1.9,0.8-1.9,1.7v32.6c0,0.9,0.9,1.7,1.9,1.7h53.7
		c1.1,0,1.9-0.8,1.9-1.7l0-4.9"/>
</g>
<path class="st1" d="M773.6-25.2c-1.2,0-2.2,1-2.2,2.2c0,1.2,1,2.2,2.2,2.2c1.2,0,2.2-1,2.2-2.2C775.8-24.2,774.8-25.2,773.6-25.2z
	 M778.5-23.5c-0.3-2.3-2.1-4.1-4.4-4.4V-29H773v1.1c-2.3,0.3-4.1,2.1-4.4,4.4h-1.1v1.1h1.1c0.3,2.3,2.1,4.1,4.4,4.4v1.1h1.1v-1.1
	c2.3-0.3,4.1-2.1,4.4-4.4h1.1v-1.1H778.5z M773.6-19.1c-2.1,0-3.8-1.7-3.8-3.8s1.7-3.8,3.8-3.8s3.8,1.7,3.8,3.8
	S775.7-19.1,773.6-19.1z"/>
<circle class="st51" cx="729.5" cy="-538" r="12.7"/>
<g>
	<defs>
		<circle id="SVGID_31_" cx="730.2" cy="-534.3" r="13.1"/>
	</defs>
	<clipPath id="SVGID_32_">
		<use xlink:href="#SVGID_31_"  style="overflow:visible;"/>
	</clipPath>
	<g style="clip-path:url(#SVGID_32_);">
		
			<image style="overflow:visible;" width="186" height="186" xlink:href="../../../../../个人/文档/犬夜叉頭像-微信.png"  transform="matrix(0.1438 0 0 0.1438 716.6771 -548.1221)">
		</image>
	</g>
</g>
<path class="st1" d="M1015.8-26.5c-3.2,0-5.9,2-7,4.8c1.1,2.8,3.8,4.8,7,4.8s5.9-2,7-4.8C1021.7-24.5,1019-26.5,1015.8-26.5z
	 M1015.8-18.5c-1.8,0-3.2-1.4-3.2-3.2s1.4-3.2,3.2-3.2c1.8,0,3.2,1.4,3.2,3.2S1017.5-18.5,1015.8-18.5z M1015.8-23.6
	c-1.1,0-1.9,0.9-1.9,1.9c0,1.1,0.9,1.9,1.9,1.9s1.9-0.9,1.9-1.9C1017.7-22.8,1016.8-23.6,1015.8-23.6z"/>
<line class="st58" x1="790.1" y1="-31.3" x2="790.1" y2="-14.2"/>
<line class="st58" x1="899.1" y1="6.3" x2="899.1" y2="67.1"/>
<line class="st58" x1="1001.2" y1="-31.3" x2="1001.2" y2="-14.2"/>
<g>
	<g>
		<path class="st0" d="M1010.3-536.5c-0.6,0-1.1-0.5-1.1-1.1v-3.1c0-0.6,0.5-1.1,1.1-1.1c0.6,0,1.1,0.5,1.1,1.1v3.1
			C1011.4-537,1010.9-536.5,1010.3-536.5z"/>
		<path class="st0" d="M1002.5-528.7h-3.1c-0.6,0-1.1-0.5-1.1-1.1c0-0.6,0.5-1.1,1.1-1.1h3.1c0.6,0,1.1,0.5,1.1,1.1
			C1003.6-529.2,1003.1-528.7,1002.5-528.7z"/>
		<path class="st0" d="M1010.3-517.8c-0.6,0-1.1-0.5-1.1-1.1v-3.1c0-0.6,0.5-1.1,1.1-1.1c0.6,0,1.1,0.5,1.1,1.1v3.1
			C1011.4-518.3,1010.9-517.8,1010.3-517.8z"/>
		<path class="st0" d="M1021.2-528.7h-3.1c-0.6,0-1.1-0.5-1.1-1.1c0-0.6,0.5-1.1,1.1-1.1h3.1c0.6,0,1.1,0.5,1.1,1.1
			C1022.3-529.2,1021.8-528.7,1021.2-528.7z"/>
		<path class="st0" d="M1010.3-524.1c-3.2,0-5.7-2.6-5.7-5.7c0-3.2,2.6-5.7,5.7-5.7s5.7,2.6,5.7,5.7
			C1016.1-526.6,1013.5-524.1,1010.3-524.1z M1010.3-533.4c-2,0-3.6,1.6-3.6,3.6c0,2,1.6,3.6,3.6,3.6s3.6-1.6,3.6-3.6
			C1013.9-531.8,1012.3-533.4,1010.3-533.4z"/>
	</g>
	<path class="st0" d="M1004.8-534.2c-0.3,0-0.6-0.1-0.8-0.3l-1.1-1.1c-0.4-0.4-0.4-1.1,0-1.5c0.4-0.4,1.1-0.4,1.5,0l1.1,1.1
		c0.4,0.4,0.4,1.1,0,1.5C1005.4-534.3,1005.1-534.2,1004.8-534.2z"/>
	<path class="st0" d="M1003.7-522.1c-0.3,0-0.6-0.1-0.8-0.3c-0.4-0.4-0.4-1.1,0-1.5l1.1-1.1c0.4-0.4,1.1-0.4,1.5,0
		c0.4,0.4,0.4,1.1,0,1.5l-1.1,1.1C1004.2-522.2,1004-522.1,1003.7-522.1z"/>
	<path class="st0" d="M1016.9-522.1c-0.3,0-0.6-0.1-0.8-0.3l-1.1-1.1c-0.4-0.4-0.4-1.1,0-1.5c0.4-0.4,1.1-0.4,1.5,0l1.1,1.1
		c0.4,0.4,0.4,1.1,0,1.5C1017.5-522.2,1017.2-522.1,1016.9-522.1z"/>
	<path class="st0" d="M1015.8-534.2c-0.3,0-0.6-0.1-0.8-0.3c-0.4-0.4-0.4-1.1,0-1.5l1.1-1.1c0.4-0.4,1.1-0.4,1.5,0
		c0.4,0.4,0.4,1.1,0,1.5l-1.1,1.1C1016.4-534.3,1016.1-534.2,1015.8-534.2z"/>
</g>
<text transform="matrix(1 0 0 1 1026.7183 -528.3179)" class="st0" style="font-family:'NotoSansCJKsc-Medium-GBpc-EUC-H'; font-size:16.1785px;">24℃</text>
<text transform="matrix(1 0 0 1 1032.8177 -517.7943)" class="st0" style="font-family:'NotoSansCJKsc-Medium-GBpc-EUC-H'; font-size:7.3611px;">深   圳</text>
<g>
	
		<text transform="matrix(1 0 0 1 1011.8375 -504.8614)" class="st0" style="font-family:'NotoSansCJKsc-Medium-GBpc-EUC-H'; font-size:8.0642px;">世界无烟日</text>
</g>
<rect x="1010.1" y="-513.4" class="st59" width="42.9" height="10.4"/>
<path class="st57" d="M899.3-492.7"/>
<g>
	
		<image style="overflow:visible;opacity:0.38;" width="362" height="252" xlink:href="9BC9F88A.png"  transform="matrix(1 0 0 1 718.8712 -491.5709)">
	</image>
	<g>
		<path class="st61" d="M1071.5-486.8H920.7c-0.8,0-1.5,0.5-1.8,1.2c-3.5,8.2-11,13.8-19.6,13.8s-16-5.6-19.6-13.8
			c-0.3-0.7-1-1.2-1.8-1.2H726.5c-1.1,0-2,1-2,2.2v234.2c0,1.2,0.9,2.2,2,2.2h345c1.1,0,2-1,2-2.2v-234.2
			C1073.5-485.8,1072.6-486.8,1071.5-486.8z"/>
	</g>
</g>
<text transform="matrix(1 0 0 1 751.8917 -446.2661)" class="st65"><tspan x="0" y="0" class="st1" style="font-family:'NotoSansCJKsc-Regular-GBpc-EUC-H'; font-size:11.1674px;">一</tspan><tspan x="-1.2" y="8" class="st1" style="font-family:'NotoSansCJKsc-Regular-GBpc-EUC-H'; font-size:6.6842px;">Mon</tspan></text>
<text transform="matrix(1 0 0 1 799.8156 -446.2661)" class="st65"><tspan x="0" y="0" class="st1" style="font-family:'NotoSansCJKsc-Regular-GBpc-EUC-H'; font-size:11.1674px;">二</tspan><tspan x="-0.3" y="8" class="st1" style="font-family:'NotoSansCJKsc-Regular-GBpc-EUC-H'; font-size:6.6842px;">Tue</tspan></text>
<text transform="matrix(1 0 0 1 847.7394 -446.2661)" class="st65"><tspan x="0" y="0" class="st1" style="font-family:'NotoSansCJKsc-Regular-GBpc-EUC-H'; font-size:11.1674px;">三</tspan><tspan x="-1.3" y="8" class="st1" style="font-family:'NotoSansCJKsc-Regular-GBpc-EUC-H'; font-size:6.6842px;">Wed</tspan></text>
<text transform="matrix(1 0 0 1 895.6564 -446.2661)" class="st65"><tspan x="0" y="0" class="st1" style="font-family:'NotoSansCJKsc-Regular-GBpc-EUC-H'; font-size:11.1674px;">四</tspan><tspan x="-1.8" y="8" class="st1" style="font-family:'NotoSansCJKsc-Regular-GBpc-EUC-H'; font-size:6.6842px;">Thur</tspan></text>
<text transform="matrix(1 0 0 1 943.5861 -446.2661)" class="st65"><tspan x="0" y="0" class="st1" style="font-family:'NotoSansCJKsc-Regular-GBpc-EUC-H'; font-size:11.1674px;">五</tspan><tspan x="1.5" y="8" class="st1" style="font-family:'NotoSansCJKsc-Regular-GBpc-EUC-H'; font-size:6.6842px;">Fri</tspan></text>
<text transform="matrix(1 0 0 1 991.5099 -446.2661)" class="st65"><tspan x="0" y="0" class="st1" style="font-family:'NotoSansCJKsc-Regular-GBpc-EUC-H'; font-size:11.1674px;">六</tspan><tspan x="0.4" y="8" class="st1" style="font-family:'NotoSansCJKsc-Regular-GBpc-EUC-H'; font-size:6.6842px;">Sat</tspan></text>
<text transform="matrix(1 0 0 1 1039.4347 -446.2661)" class="st65"><tspan x="0" y="0" class="st1" style="font-family:'NotoSansCJKsc-Regular-GBpc-EUC-H'; font-size:11.1674px;">日</tspan><tspan x="-0.5" y="8" class="st1" style="font-family:'NotoSansCJKsc-Regular-GBpc-EUC-H'; font-size:6.6842px;">Sun</tspan></text>
<g>
	<g class="st7">
		
			<text transform="matrix(1 0 0 1 1040.1056 -416.0761)" style="font-family:'NotoSansCJKsc-Medium-GBpc-EUC-H'; font-size:17.0613px;">1</text>
	</g>
</g>
<g>
	
		<text transform="matrix(1 0 0 1 801.4806 -384.0966)" class="st7" style="font-family:'NotoSansCJKsc-Medium-GBpc-EUC-H'; font-size:17.0613px;">3</text>
	
		<text transform="matrix(1 0 0 1 848.2716 -384.0966)" class="st7" style="font-family:'NotoSansCJKsc-Medium-GBpc-EUC-H'; font-size:17.0613px;">4</text>
	
		<text transform="matrix(1 0 0 1 896.1798 -384.0966)" class="st7" style="font-family:'NotoSansCJKsc-Medium-GBpc-EUC-H'; font-size:17.0613px;">5</text>
	
		<text transform="matrix(1 0 0 1 942.8048 -384.0957)" class="st7" style="font-family:'NotoSansCJKsc-Medium-GBpc-EUC-H'; font-size:17.0613px;">6</text>
	
		<text transform="matrix(1 0 0 1 991.1798 -384.0966)" class="st7" style="font-family:'NotoSansCJKsc-Medium-GBpc-EUC-H'; font-size:17.0613px;">7</text>
	
		<text transform="matrix(1 0 0 1 1040.1056 -384.0957)" class="st7" style="font-family:'NotoSansCJKsc-Medium-GBpc-EUC-H'; font-size:17.0613px;">8</text>
	
		<text transform="matrix(1 0 0 1 754.3956 -384.0957)" class="st7" style="font-family:'NotoSansCJKsc-Medium-GBpc-EUC-H'; font-size:17.0613px;">2</text>
</g>
<g>
	
		<text transform="matrix(1 0 0 1 796.0778 -320.1347)" class="st7" style="font-family:'NotoSansCJKsc-Medium-GBpc-EUC-H'; font-size:17.0613px;">17</text>
	
		<text transform="matrix(1 0 0 1 842.8688 -320.1347)" class="st7" style="font-family:'NotoSansCJKsc-Medium-GBpc-EUC-H'; font-size:17.0613px;">18</text>
	
		<text transform="matrix(1 0 0 1 890.7775 -320.1347)" class="st7" style="font-family:'NotoSansCJKsc-Medium-GBpc-EUC-H'; font-size:17.0613px;">19</text>
	
		<text transform="matrix(1 0 0 1 937.4025 -320.1357)" class="st7" style="font-family:'NotoSansCJKsc-Medium-GBpc-EUC-H'; font-size:17.0613px;">20</text>
	
		<text transform="matrix(1 0 0 1 984.2238 -320.1347)" class="st7" style="font-family:'NotoSansCJKsc-Medium-GBpc-EUC-H'; font-size:17.0613px;">21</text>
	
		<text transform="matrix(1 0 0 1 1033.1505 -320.1347)" class="st7" style="font-family:'NotoSansCJKsc-Medium-GBpc-EUC-H'; font-size:17.0613px;">22</text>
	
		<text transform="matrix(1 0 0 1 748.9928 -320.1357)" class="st7" style="font-family:'NotoSansCJKsc-Medium-GBpc-EUC-H'; font-size:17.0613px;">16</text>
</g>
<g>
	
		<text transform="matrix(1 0 0 1 796.0778 -288.1548)" class="st7" style="font-family:'NotoSansCJKsc-Medium-GBpc-EUC-H'; font-size:17.0613px;">24</text>
	
		<text transform="matrix(1 0 0 1 842.8688 -288.1538)" class="st7" style="font-family:'NotoSansCJKsc-Medium-GBpc-EUC-H'; font-size:17.0613px;">25</text>
	
		<text transform="matrix(1 0 0 1 890.7765 -288.1538)" class="st7" style="font-family:'NotoSansCJKsc-Medium-GBpc-EUC-H'; font-size:17.0613px;">26</text>
	
		<text transform="matrix(1 0 0 1 937.4025 -288.1548)" class="st7" style="font-family:'NotoSansCJKsc-Medium-GBpc-EUC-H'; font-size:17.0613px;">27</text>
	
		<text transform="matrix(1 0 0 1 984.2238 -288.1548)" class="st7" style="font-family:'NotoSansCJKsc-Medium-GBpc-EUC-H'; font-size:17.0613px;">28</text>
	
		<text transform="matrix(1 0 0 1 1033.1505 -288.1548)" class="st7" style="font-family:'NotoSansCJKsc-Medium-GBpc-EUC-H'; font-size:17.0613px;">29</text>
	
		<text transform="matrix(1 0 0 1 748.9928 -288.1548)" class="st7" style="font-family:'NotoSansCJKsc-Medium-GBpc-EUC-H'; font-size:17.0613px;">23</text>
</g>
<text transform="matrix(1 0 0 1 748.9928 -256.1738)" class="st7" style="font-family:'NotoSansCJKsc-Medium-GBpc-EUC-H'; font-size:17.0613px;">30</text>
<path class="st3" d="M839.7-495.5H711.6l8.1-17.1c0.3-0.7,1.1-1.2,2-1.2h108c0.9,0,1.6,0.5,2,1.2L839.7-495.5z"/>
<path class="st4" d="M962.5-495.5H834.4l8.1-17.1c0.3-0.7,1.1-1.2,2-1.2h108c0.9,0,1.6,0.5,2,1.2L962.5-495.5z"/>
<path class="st51" d="M758.8-515.1c-7.2,0-13,5.8-13,13c0,0.1,0,0.1,0,0.2h26c0-0.1,0-0.1,0-0.2C771.8-509.3,766-515.1,758.8-515.1z
	"/>
<path class="st3" d="M758.8-511c-8.6,0-15.6,6.9-15.9,15.4h31.9C774.5-504.2,767.4-511,758.8-511z"/>
<path class="st60" d="M758.8-512c9.2,0,16.6,7.3,16.9,16.4h1c-0.3-9.6-8.2-17.4-17.9-17.4s-17.6,7.8-17.9,17.4h1
	C742.2-504.7,749.6-512,758.8-512z"/>
<path class="st60" d="M758.8-512c-9.2,0-16.6,7.3-16.9,16.4h1c0.3-8.5,7.3-15.4,15.9-15.4c8.6,0,15.6,6.9,15.9,15.4h1
	C775.5-504.7,768-512,758.8-512z"/>
<path class="st62" d="M757.4-502.7c0-0.6-0.4-1-1-1s-1,0.4-1,1v7.1h2V-502.7z"/>
<path class="st57" d="M899.3-502.7"/>
<polygon class="st3" points="900.3,-501.9 900,-501.9 900,-500.5 898.5,-500.5 898.5,-501.9 898.3,-501.9 898,-501.9 898,-500 
	900.5,-500 900.5,-501.9 "/>
<g>
	<polygon class="st3" points="900.3,-501.9 900.3,-500.3 898.3,-500.3 898.3,-501.9 898,-501.9 898,-500 900.5,-500 900.5,-501.9 	
		"/>
	<polygon class="st3" points="900.3,-500.3 900.3,-501.9 900,-501.9 900,-500.5 898.5,-500.5 898.5,-501.9 898.3,-501.9 
		898.3,-500.3 	"/>
</g>
<path class="st63" d="M899.3-510.9c-8.6,0-15.6,6.9-15.9,15.4h31.9C914.9-504.1,907.9-510.9,899.3-510.9z"/>
<path class="st60" d="M899.3-511.9c9.2,0,16.6,7.3,16.9,16.4h1c-0.3-9.6-8.2-17.4-17.9-17.4s-17.6,7.8-17.9,17.4h1
	C882.6-504.6,890.1-511.9,899.3-511.9z"/>
<path class="st60" d="M899.3-511.9c-9.2,0-16.6,7.3-16.9,16.4h1c0.3-8.5,7.3-15.4,15.9-15.4c8.6,0,15.6,6.9,15.9,15.4h1
	C915.9-504.6,908.5-511.9,899.3-511.9z"/>
<path class="st51" d="M899.1-497.6c-0.5,0-1,0.4-1,1.3c0,0.3,0.1,0.6,0.2,0.8h1.8c0.1-0.1,0.1-0.2,0.2-0.3
	C900.3-497.1,899.8-497.6,899.1-497.6z"/>
<path class="st51" d="M899.2-495c0.3,0,0.7-0.2,1-0.5h-1.8C898.5-495.2,898.8-495,899.2-495z"/>
<path class="st3" d="M899.6-498.6c-0.5,0.3-1,0.5-1.7,0.6v0.9h1.3v1.5h1.4v-3H899.6z"/>
<path class="st3" d="M898.2-496.3c0-0.9,0.4-1.3,1-1.3c0.6,0,1.1,0.5,1.2,1.8c-0.1,0.1-0.1,0.2-0.2,0.3h1.5
	c-0.1-2.2-1.3-3.2-2.6-3.2c-1.2,0-2.3,0.9-2.3,2.4c0,0.3,0,0.5,0.1,0.8h1.4C898.2-495.7,898.2-496,898.2-496.3z"/>
<path class="st60" d="M906.3-501.9h-1.1v-0.9v-1.7h-1.5v1.7v0.9h-8.7v-2.6h-1.5v2.6h-1.3c-1.3,0-2.4,1.1-2.4,2.4v4h18.7v-4
	C908.7-500.8,907.6-501.9,906.3-501.9z"/>
<g>
	<g>
		
			<image style="overflow:visible;opacity:0.28;" width="43" height="43" xlink:href="9BC9F886.png"  transform="matrix(1 0 0 1 877.8712 -515.5709)">
		</image>
		<g>
			<circle class="st0" cx="899.3" cy="-495.3" r="17"/>
			<circle class="st56" cx="899.3" cy="-495.3" r="17"/>
		</g>
	</g>
	<path class="st57" d="M896.9-502.9"/>
	<path class="st57" d="M896.9-492.9"/>
</g>
<path class="st25" d="M905.9-488.7h-14c-1.3,0-2.4-1.1-2.4-2.4v-8.6c0-1.3,1.1-2.4,2.4-2.4h14c1.3,0,2.4,1.1,2.4,2.4v8.6
	C908.3-489.8,907.2-488.7,905.9-488.7z"/>
<rect x="893" y="-505" class="st64" width="2" height="4.5"/>
<rect x="903.1" y="-505" class="st64" width="2" height="4.5"/>
<g class="st65">
	
		<text transform="matrix(1 0 0 1 774.3712 -467.1541)" class="st1" style="font-family:'NotoSansCJKsc-Bold-GBpc-EUC-H'; font-size:15px;">2018</text>
</g>
<g class="st65">
	
		<text transform="matrix(1 0 0 1 984.5726 -467.1541)" class="st1" style="font-family:'NotoSansCJKsc-Bold-GBpc-EUC-H'; font-size:15px;">4</text>
</g>
<line class="st58" x1="722.7" y1="-461.3" x2="1073.5" y2="-461.3"/>
<line class="st58" x1="722.7" y1="-192.8" x2="1073.5" y2="-192.8"/>
<path class="st0" d="M895.8-496h-2.9c-0.3,0-0.5-0.2-0.5-0.5v-0.9c0-0.3,0.2-0.5,0.5-0.5h2.9c0.3,0,0.5,0.2,0.5,0.5v0.9
	C896.3-496.2,896.1-496,895.8-496z"/>
<path class="st0" d="M901.7-495.8h-2.9c-0.3,0-0.5-0.2-0.5-0.5v-0.9c0-0.3,0.2-0.5,0.5-0.5h2.9c0.3,0,0.5,0.2,0.5,0.5v0.9
	C902.2-496,901.9-495.8,901.7-495.8z"/>
<path class="st0" d="M904.8-491.3h-2.9c-0.3,0-0.5-0.2-0.5-0.5v-0.9c0-0.3,0.2-0.5,0.5-0.5h2.9c0.3,0,0.5,0.2,0.5,0.5v0.9
	C905.3-491.5,905.1-491.3,904.8-491.3z"/>
<path class="st0" d="M895.8-491.3h-2.9c-0.3,0-0.5-0.2-0.5-0.5v-0.9c0-0.3,0.2-0.5,0.5-0.5h2.9c0.3,0,0.5,0.2,0.5,0.5v0.9
	C896.3-491.5,896.1-491.3,895.8-491.3z"/>
<path class="st66" d="M967.4-476.9l-1.4-1.4l-6,6l6,6l1.4-1.4l-4.6-4.6L967.4-476.9z"/>
<path class="st66" d="M1013.5-478.6l-1.4,1.4l4.6,4.6l-4.6,4.6l1.4,1.4l6-6L1013.5-478.6z"/>
<path class="st67" d="M1002.5-484.6h24v24h-24V-484.6z"/>
<circle class="st49" cx="1042.9" cy="-358.5" r="12.7"/>
<text transform="matrix(1 0 0 1 796.0782 -352.1152)" class="st7" style="font-family:'NotoSansCJKsc-Medium-GBpc-EUC-H'; font-size:17.0613px;">10</text>
<text transform="matrix(1 0 0 1 842.8688 -352.1152)" class="st7" style="font-family:'NotoSansCJKsc-Medium-GBpc-EUC-H'; font-size:17.0613px;">11</text>
<text transform="matrix(1 0 0 1 890.7775 -352.1152)" class="st7" style="font-family:'NotoSansCJKsc-Medium-GBpc-EUC-H'; font-size:17.0613px;">12</text>
<text transform="matrix(1 0 0 1 937.4025 -352.1152)" class="st7" style="font-family:'NotoSansCJKsc-Medium-GBpc-EUC-H'; font-size:17.0613px;">13</text>
<text transform="matrix(1 0 0 1 984.2238 -352.1152)" class="st7" style="font-family:'NotoSansCJKsc-Medium-GBpc-EUC-H'; font-size:17.0613px;">14</text>
<text transform="matrix(1 0 0 1 754.3956 -352.1152)" class="st7" style="font-family:'NotoSansCJKsc-Medium-GBpc-EUC-H'; font-size:17.0613px;">9</text>
<text transform="matrix(1 0 0 1 1033.1495 -352.1152)" class="st2" style="font-family:'NotoSansCJKsc-Medium-GBpc-EUC-H'; font-size:17.0613px;">15</text>
<line class="st68" x1="991.2" y1="-379.6" x2="1000.9" y2="-379.6"/>
<line class="st68" x1="1040" y1="-379.6" x2="1049.8" y2="-379.6"/>
<line class="st68" x1="802.1" y1="-346.2" x2="811.9" y2="-346.2"/>
<line class="st68" x1="848.2" y1="-346.2" x2="858" y2="-346.2"/>
<g class="st66">
	<defs>
		<rect id="SVGID_33_" x="1401.6" y="-457.6" class="st66" width="59.1" height="59.1"/>
	</defs>
	<clipPath id="SVGID_34_">
		<use xlink:href="#SVGID_33_"  style="overflow:visible;"/>
	</clipPath>
	<path class="st69" d="M1408.9-447.8v-7.4h4.9v7.4h7.4v4.9h-7.4v7.4h-4.9v-7.4h-7.4v-4.9H1408.9z M1416.3-433v-7.4h7.4v-7.4h17.2
		l4.5,4.9h7.8c2.7,0,4.9,2.2,4.9,4.9v29.5c0,2.7-2.2,4.9-4.9,4.9h-39.4c-2.7,0-4.9-2.2-4.9-4.9V-433H1416.3z M1433.6-410.9
		c6.8,0,12.3-5.5,12.3-12.3c0-6.8-5.5-12.3-12.3-12.3s-12.3,5.5-12.3,12.3C1421.3-416.4,1426.8-410.9,1433.6-410.9z M1425.7-423.2
		c0,4.4,3.5,7.9,7.9,7.9s7.9-3.5,7.9-7.9c0-4.4-3.5-7.9-7.9-7.9S1425.7-427.5,1425.7-423.2z"/>
</g>
<g>
	
		<image style="overflow:visible;opacity:0.36;" width="383" height="340" xlink:href="9BC9F885.png"  transform="matrix(1 0 0 1 1239.8712 -269.5709)">
	</image>
	<g>
		<rect x="1243.6" y="-265.8" class="st61" width="375.5" height="333"/>
	</g>
</g>
<path class="st70" d="M1588.7-205.7H1575c-2.9,0-5.3-2.4-5.3-5.3v0c0-2.9,2.4-5.3,5.3-5.3h13.7c2.9,0,5.3,2.4,5.3,5.3v0
	C1594-208,1591.6-205.7,1588.7-205.7z"/>
<circle class="st71" cx="1572.8" cy="-211.3" r="7.7"/>
<g>
	
		<text transform="matrix(1 0 0 1 1507.0518 -206.3899)" class="st1" style="font-family:'NotoSansCJKsc-DemiLight-GBpc-EUC-H'; font-size:13px;">叙事模式</text>
</g>
<text transform="matrix(1 0 0 1 1294.5438 -185.8021)" class="st1" style="font-family:'NotoSansCJKsc-DemiLight-GBpc-EUC-H'; font-size:10px;">文案</text>
<text transform="matrix(1 0 0 1 1294.5438 -65.0176)" class="st1" style="font-family:'NotoSansCJKsc-DemiLight-GBpc-EUC-H'; font-size:10px;">样式</text>
<g>
	
		<text transform="matrix(1 0 0 1 1321.6293 14.6031)" class="st1" style="font-family:'NotoSansCJKsc-DemiLight-GBpc-EUC-H'; font-size:13px;">天气</text>
</g>
<line class="st72" x1="1294.9" y1="-153.9" x2="1571.1" y2="-153.9"/>
<text transform="matrix(1 0 0 1 1294.271 -164.5307)" style="font-family:'NotoSansCJKsc-DemiLight-GBpc-EUC-H'; font-size:13px;">这是激活状态</text>
<line class="st73" x1="1375" y1="-178.4" x2="1375" y2="-160.3"/>
<g>
	<circle class="st7" cx="1562" cy="-169.6" r="4.9"/>
	<path class="st51" d="M1553.8-177.5h16.3v16.3h-16.3V-177.5z"/>
	<path class="st74" d="M1562-175.3c-3.8,0-6.8,3-6.8,6.8s3,6.8,6.8,6.8c3.8,0,6.8-3,6.8-6.8S1565.7-175.3,1562-175.3z M1565.4-166.1
		l-1,1l-2.4-2.4l-2.4,2.4l-1-1l2.4-2.4l-2.4-2.4l1-1l2.4,2.4l2.4-2.4l1,1l-2.4,2.4L1565.4-166.1z"/>
</g>
<text transform="matrix(1 0 0 1 1543.468 -140.0522)" class="st66" style="font-family:'NotoSansCJKsc-DemiLight-GBpc-EUC-H'; font-size:10px;">6/25</text>
<path class="st1" d="M1299.8-139.3h1v-1h-1V-139.3z M1300.3-147.5c-2.8,0-5.1,2.3-5.1,5.1c0,2.8,2.3,5.1,5.1,5.1s5.1-2.3,5.1-5.1
	C1305.5-145.2,1303.2-147.5,1300.3-147.5z M1300.3-138.3c-2.3,0-4.1-1.8-4.1-4.1c0-2.3,1.8-4.1,4.1-4.1s4.1,1.8,4.1,4.1
	C1304.4-140.2,1302.6-138.3,1300.3-138.3z M1300.3-145.5c-1.1,0-2,0.9-2,2h1c0-0.6,0.5-1,1-1s1,0.5,1,1c0,1-1.5,0.9-1.5,2.6h1
	c0-1.2,1.5-1.3,1.5-2.6C1302.4-144.6,1301.5-145.5,1300.3-145.5z"/>
<line class="st58" x1="1269.2" y1="-12" x2="1601" y2="-12"/>
<line class="st58" x1="1269.2" y1="-89" x2="1601" y2="-89"/>
<g>
	
		<image style="overflow:visible;opacity:0.36;" width="283" height="31" xlink:href="9BC9F8E3.png"  transform="matrix(1 0 0 1 1292.8712 -59.1159)">
	</image>
	<g>
		<rect x="1296.8" y="-55.9" class="st0" width="275.5" height="23.8"/>
	</g>
</g>
<g>
	
		<image style="overflow:visible;opacity:0.36;" width="76" height="27" xlink:href="9BC9F8E5.png"  transform="matrix(1 0 0 1 1356.8712 -128.5709)">
	</image>
	<g>
		<rect x="1360.8" y="-125.4" class="st0" width="68.5" height="19.8"/>
	</g>
</g>
<g>
	
		<image style="overflow:visible;opacity:0.36;" width="76" height="27" xlink:href="9BC9F8E7.png"  transform="matrix(1 0 0 1 1445.3563 -128.5709)">
	</image>
	<g>
		<rect x="1449.3" y="-125.4" class="st0" width="68.5" height="19.8"/>
	</g>
</g>
<text transform="matrix(1 0 0 1 1299.5824 -40.0792)" class="st50" style="font-family:'NotoSansCJKsc-DemiLight-GBpc-EUC-H'; font-size:10px;">Noto Sans CJ...</text>
<text transform="matrix(1 0 0 1 1437.697 -40.0792)" class="st50" style="font-family:'NotoSansCJKsc-DemiLight-GBpc-EUC-H'; font-size:10px;">12</text>
<polyline class="st75" points="1384.7,-47.2 1380.9,-43.4 1377.2,-47.2 "/>
<polyline class="st75" points="1423.4,-115.4 1419.6,-111.6 1415.8,-115.4 "/>
<polyline class="st75" points="1509.6,-115.4 1505.8,-111.6 1502,-115.4 "/>
<polyline class="st75" points="1486.7,-47.2 1482.9,-43.4 1479.1,-47.2 "/>
<line class="st76" x1="1398.9" y1="-52" x2="1398.9" y2="-36.3"/>
<line class="st76" x1="1496.6" y1="-52" x2="1496.6" y2="-36.3"/>
<g>
	
		<text transform="matrix(1 0 0 1 1535.3268 14.1275)" class="st1" style="font-family:'NotoSansCJKsc-DemiLight-GBpc-EUC-H'; font-size:13px;">位置</text>
</g>
<g>
	
		<text transform="matrix(1 0 0 1 1426.5527 14.603)" class="st1" style="font-family:'NotoSansCJKsc-DemiLight-GBpc-EUC-H'; font-size:13px;">时间</text>
</g>
<path class="st1" d="M1521.5,2.8h-10.4c-0.8,0-1.5,0.7-1.5,1.5v10.4c0,0.8,0.7,1.5,1.5,1.5h10.4c0.8,0,1.5-0.7,1.5-1.5V4.3
	C1522.9,3.5,1522.3,2.8,1521.5,2.8z M1514.8,13.2l-3.7-3.7l1-1l2.7,2.7l5.6-5.6l1,1.1L1514.8,13.2z"/>
<path class="st1" d="M1307.9-123.1h-10.4c-0.8,0-1.5,0.7-1.5,1.5v10.4c0,0.8,0.7,1.5,1.5,1.5h10.4c0.8,0,1.5-0.7,1.5-1.5v-10.4
	C1309.4-122.5,1308.7-123.1,1307.9-123.1z M1301.2-112.8l-3.7-3.7l1-1l2.7,2.7l5.6-5.6l1,1.1L1301.2-112.8z"/>
<path class="st1" d="M1308,4.5v10.6h-10.6V4.5H1308 M1308,3h-10.6c-0.8,0-1.5,0.7-1.5,1.5v10.6c0,0.8,0.7,1.5,1.5,1.5h10.6
	c0.8,0,1.5-0.7,1.5-1.5V4.5C1309.5,3.7,1308.8,3,1308,3z"/>
<g>
	
		<text transform="matrix(1 0 0 1 1319.2815 -112.1181)" class="st1" style="font-family:'NotoSansCJKsc-DemiLight-GBpc-EUC-H'; font-size:13px;">名言</text>
</g>
<path class="st1" d="M1414.3,4.5v10.6h-10.6V4.5H1414.3 M1414.3,3h-10.6c-0.8,0-1.5,0.7-1.5,1.5v10.6c0,0.8,0.7,1.5,1.5,1.5h10.6
	c0.8,0,1.5-0.7,1.5-1.5V4.5C1415.8,3.7,1415.1,3,1414.3,3z"/>
<g>
	
		<text transform="matrix(1 0 0 1 1319.2813 46.634)" class="st1" style="font-family:'NotoSansCJKsc-DemiLight-GBpc-EUC-H'; font-size:13px;">心情滤镜</text>
</g>
<path class="st1" d="M1308,36.5v10.6h-10.6V36.5H1308 M1308,35h-10.6c-0.8,0-1.5,0.7-1.5,1.5v10.6c0,0.8,0.7,1.5,1.5,1.5h10.6
	c0.8,0,1.5-0.7,1.5-1.5V36.5C1309.5,35.7,1308.8,35,1308,35z"/>
<g class="st50">
	<text transform="matrix(1 0 0 1 1533.4534 -39.5202)" style="font-family:'NotoSansCJKsc-Medium-GBpc-EUC-H'; font-size:10px;">T</text>
	<line class="st77" x1="1531.6" y1="-46.7" x2="1531.6" y2="-40"/>
	<polyline class="st77" points="1532.9,-41 1531.6,-39.7 1530.3,-41 	"/>
</g>
<path class="st51" d="M1559.6-278.6h24v24h-24V-278.6z"/>
<g>
	
		<image style="overflow:visible;opacity:0.36;" width="65" height="64" xlink:href="9BC9F8E2.png"  transform="matrix(1 0 0 1 1539.8712 -296.5709)">
	</image>
	<g>
		<circle class="st1" cx="1571.6" cy="-266.6" r="25.8"/>
	</g>
</g>
<path class="st61" d="M1577.6-262.5c-0.8,0-1.4,0.3-2,0.8l-7.1-4.1c0.1-0.2,0.1-0.5,0.1-0.7c0-0.2,0-0.5-0.1-0.7l7.1-4.1
	c0.5,0.5,1.3,0.8,2,0.8c1.7,0,3-1.3,3-3c0-1.7-1.3-3-3-3c-1.7,0-3,1.3-3,3c0,0.2,0,0.5,0.1,0.7l-7.1,4.1c-0.5-0.5-1.3-0.8-2-0.8
	c-1.7,0-3,1.3-3,3c0,1.7,1.3,3,3,3c0.8,0,1.5-0.3,2-0.8l7.1,4.2c-0.1,0.2-0.1,0.4-0.1,0.6c0,1.6,1.3,2.9,2.9,2.9s2.9-1.3,2.9-2.9
	C1580.5-261.2,1579.2-262.5,1577.6-262.5z"/>
<rect x="1797.5" y="-597.6" class="st0" width="375.1" height="664.7"/>
<rect x="1797.5" y="-597.6" class="st52" width="375" height="43.7"/>
<text transform="matrix(1 0 0 1 1813.9519 -567.3528)" class="st2" style="font-family:'MicrosoftYaHeiLight'; font-size:18.2964px;">&lt;-智能日记</text>
<g class="st66">
	<defs>
		<rect id="SVGID_35_" x="1955.5" y="-457.6" class="st66" width="59.1" height="59.1"/>
	</defs>
	<clipPath id="SVGID_36_">
		<use xlink:href="#SVGID_35_"  style="overflow:visible;"/>
	</clipPath>
	<path class="st78" d="M1962.9-447.8v-7.4h4.9v7.4h7.4v4.9h-7.4v7.4h-4.9v-7.4h-7.4v-4.9H1962.9z M1970.2-433v-7.4h7.4v-7.4h17.2
		l4.5,4.9h7.8c2.7,0,4.9,2.2,4.9,4.9v29.5c0,2.7-2.2,4.9-4.9,4.9h-39.4c-2.7,0-4.9-2.2-4.9-4.9V-433H1970.2z M1987.5-410.9
		c6.8,0,12.3-5.5,12.3-12.3c0-6.8-5.5-12.3-12.3-12.3c-6.8,0-12.3,5.5-12.3,12.3C1975.2-416.4,1980.7-410.9,1987.5-410.9z
		 M1979.6-423.2c0,4.4,3.5,7.9,7.9,7.9s7.9-3.5,7.9-7.9c0-4.4-3.5-7.9-7.9-7.9S1979.6-427.5,1979.6-423.2z"/>
</g>
<g>
	
		<image style="overflow:visible;opacity:0.36;" width="383" height="340" xlink:href="9BC9F8E1.png"  transform="matrix(1 0 0 1 1793.7841 -269.5709)">
	</image>
	<g>
		<rect x="1797.5" y="-265.8" class="st61" width="375.5" height="333"/>
	</g>
</g>
<path class="st70" d="M2142.6-212.7h-13.7c-2.9,0-5.3-2.4-5.3-5.3v0c0-2.9,2.4-5.3,5.3-5.3h13.7c2.9,0,5.3,2.4,5.3,5.3v0
	C2147.9-215,2145.5-212.7,2142.6-212.7z"/>
<circle class="st71" cx="2126.7" cy="-218.3" r="7.7"/>
<g>
	
		<text transform="matrix(1 0 0 1 2060.9646 -213.3943)" class="st1" style="font-family:'NotoSansCJKsc-DemiLight-GBpc-EUC-H'; font-size:13px;">叙事模式</text>
</g>
<text transform="matrix(1 0 0 1 1848.4567 -192.8065)" class="st1" style="font-family:'NotoSansCJKsc-DemiLight-GBpc-EUC-H'; font-size:10px;">文案</text>
<text transform="matrix(1 0 0 1 1848.4567 -116.4726)" class="st1" style="font-family:'NotoSansCJKsc-DemiLight-GBpc-EUC-H'; font-size:10px;">样式</text>
<g>
	
		<text transform="matrix(1 0 0 1 1875.5421 -28.8285)" class="st1" style="font-family:'NotoSansCJKsc-DemiLight-GBpc-EUC-H'; font-size:13px;">天气</text>
</g>
<line class="st72" x1="1848.8" y1="-160.9" x2="2125.1" y2="-160.9"/>
<text transform="matrix(1 0 0 1 1848.1838 -171.5352)" style="font-family:'NotoSansCJKsc-DemiLight-GBpc-EUC-H'; font-size:13px;">这是激活状态</text>
<line class="st73" x1="1928.9" y1="-185.4" x2="1928.9" y2="-167.3"/>
<g>
	<circle class="st7" cx="2115.9" cy="-176.6" r="4.9"/>
	<path class="st51" d="M2107.8-184.5h16.3v16.3h-16.3V-184.5z"/>
	<path class="st74" d="M2115.9-182.3c-3.8,0-6.8,3-6.8,6.8s3,6.8,6.8,6.8s6.8-3,6.8-6.8S2119.7-182.3,2115.9-182.3z M2119.3-173.1
		l-1,1l-2.4-2.4l-2.4,2.4l-1-1l2.4-2.4l-2.4-2.4l1-1l2.4,2.4l2.4-2.4l1,1l-2.4,2.4L2119.3-173.1z"/>
</g>
<text transform="matrix(1 0 0 1 2097.3809 -147.0566)" class="st66" style="font-family:'NotoSansCJKsc-DemiLight-GBpc-EUC-H'; font-size:10px;">6/25</text>
<path class="st1" d="M1853.7-146.4h1v-1h-1V-146.4z M1854.3-154.5c-2.8,0-5.1,2.3-5.1,5.1c0,2.8,2.3,5.1,5.1,5.1s5.1-2.3,5.1-5.1
	C1859.4-152.2,1857.1-154.5,1854.3-154.5z M1854.3-145.3c-2.3,0-4.1-1.8-4.1-4.1c0-2.3,1.8-4.1,4.1-4.1c2.3,0,4.1,1.8,4.1,4.1
	C1858.4-147.2,1856.5-145.3,1854.3-145.3z M1854.3-152.5c-1.1,0-2,0.9-2,2h1c0-0.6,0.5-1,1-1s1,0.5,1,1c0,1-1.5,0.9-1.5,2.6h1
	c0-1.2,1.5-1.3,1.5-2.6C1856.3-151.6,1855.4-152.5,1854.3-152.5z"/>
<line class="st58" x1="1823.1" y1="-55.8" x2="2154.9" y2="-55.8"/>
<g>
	
		<image style="overflow:visible;opacity:0.36;" width="283" height="31" xlink:href="9BC9F8FD.png"  transform="matrix(1 0 0 1 1846.7841 -110.5709)">
	</image>
	<g>
		<rect x="1850.7" y="-107.4" class="st0" width="275.5" height="23.8"/>
	</g>
</g>
<text transform="matrix(1 0 0 1 1853.4952 -91.5343)" class="st50" style="font-family:'NotoSansCJKsc-DemiLight-GBpc-EUC-H'; font-size:10px;">Noto Sans ...</text>
<text transform="matrix(1 0 0 1 1954.7129 -91.5343)" class="st50" style="font-family:'NotoSansCJKsc-DemiLight-GBpc-EUC-H'; font-size:10px;">12</text>
<polyline class="st75" points="1930.9,-98.6 1927.1,-94.8 1923.3,-98.6 "/>
<polyline class="st75" points="1995.5,-98.6 1991.7,-94.8 1988,-98.6 "/>
<line class="st76" x1="1938.8" y1="-103.4" x2="1938.8" y2="-87.7"/>
<line class="st76" x1="2004.2" y1="-103.4" x2="2004.2" y2="-87.7"/>
<path class="st51" d="M2084.5-103h24v24h-24V-103z"/>
<g>
	
		<text transform="matrix(1 0 0 1 1875.5421 -0.6793)" class="st1" style="font-family:'NotoSansCJKsc-DemiLight-GBpc-EUC-H'; font-size:13px;">位置</text>
</g>
<g>
	
		<text transform="matrix(1 0 0 1 1980.4656 -28.8286)" class="st1" style="font-family:'NotoSansCJKsc-DemiLight-GBpc-EUC-H'; font-size:13px;">时间</text>
</g>
<path class="st1" d="M1861.7-12h-10.4c-0.8,0-1.5,0.7-1.5,1.5v10.4c0,0.8,0.7,1.5,1.5,1.5h10.4c0.8,0,1.5-0.7,1.5-1.5v-10.4
	C1863.2-11.3,1862.5-12,1861.7-12z M1855-1.6l-3.7-3.7l1-1l2.7,2.7l5.6-5.6l1,1.1L1855-1.6z"/>
<path class="st1" d="M1861.9-38.9v10.6h-10.6v-10.6H1861.9 M1861.9-40.4h-10.6c-0.8,0-1.5,0.7-1.5,1.5v10.6c0,0.8,0.7,1.5,1.5,1.5
	h10.6c0.8,0,1.5-0.7,1.5-1.5v-10.6C1863.4-39.8,1862.7-40.4,1861.9-40.4z"/>
<path class="st1" d="M1968.2-38.9v10.6h-10.6v-10.6H1968.2 M1968.2-40.4h-10.6c-0.8,0-1.5,0.7-1.5,1.5v10.6c0,0.8,0.7,1.5,1.5,1.5
	h10.6c0.8,0,1.5-0.7,1.5-1.5v-10.6C1969.7-39.8,1969-40.4,1968.2-40.4z"/>
<g>
	
		<text transform="matrix(1 0 0 1 1873.1941 27.8545)" class="st1" style="font-family:'NotoSansCJKsc-DemiLight-GBpc-EUC-H'; font-size:13px;">心情滤镜</text>
</g>
<path class="st1" d="M1861.9,17.7v10.6h-10.6V17.7H1861.9 M1861.9,16.2h-10.6c-0.8,0-1.5,0.7-1.5,1.5v10.6c0,0.8,0.7,1.5,1.5,1.5
	h10.6c0.8,0,1.5-0.7,1.5-1.5V17.7C1863.4,16.9,1862.7,16.2,1861.9,16.2z"/>
<g class="st50">
	<text transform="matrix(1 0 0 1 2023.1652 -90.9753)" style="font-family:'NotoSansCJKsc-Medium-GBpc-EUC-H'; font-size:10px;">T</text>
	<line class="st77" x1="2021.3" y1="-98.2" x2="2021.3" y2="-91.5"/>
	<polyline class="st77" points="2022.6,-92.5 2021.3,-91.2 2020,-92.5 	"/>
</g>
<path class="st51" d="M2113.5-278.6h24v24h-24V-278.6z"/>
<g>
	
		<image style="overflow:visible;opacity:0.36;" width="65" height="64" xlink:href="9BC9F8FF.png"  transform="matrix(1 0 0 1 2093.7839 -296.5709)">
	</image>
	<g>
		<circle class="st1" cx="2125.5" cy="-266.6" r="25.8"/>
	</g>
</g>
<path class="st61" d="M2131.5-262.5c-0.8,0-1.4,0.3-2,0.8l-7.1-4.1c0.1-0.2,0.1-0.5,0.1-0.7c0-0.2,0-0.5-0.1-0.7l7.1-4.1
	c0.5,0.5,1.3,0.8,2,0.8c1.7,0,3-1.3,3-3c0-1.7-1.3-3-3-3s-3,1.3-3,3c0,0.2,0,0.5,0.1,0.7l-7.1,4.1c-0.5-0.5-1.3-0.8-2-0.8
	c-1.7,0-3,1.3-3,3c0,1.7,1.3,3,3,3c0.8,0,1.5-0.3,2-0.8l7.1,4.2c-0.1,0.2-0.1,0.4-0.1,0.6c0,1.6,1.3,2.9,2.9,2.9
	c1.6,0,2.9-1.3,2.9-2.9C2134.5-261.2,2133.2-262.5,2131.5-262.5z"/>
<g class="st50">
	
		<text transform="matrix(1 0 0 1 1374.984 -109.7991)" style="font-family:'NotoSansCJKsc-DemiLight-GBpc-EUC-H'; font-size:13.3054px;">心情</text>
</g>
<g class="st50">
	
		<text transform="matrix(1 0 0 1 1466.2341 -109.7991)" style="font-family:'NotoSansCJKsc-DemiLight-GBpc-EUC-H'; font-size:13.3054px;">开心</text>
</g>
<g>
	<defs>
		<circle id="SVGID_37_" cx="244.6" cy="-532.9" r="14.5"/>
	</defs>
	<clipPath id="SVGID_38_">
		<use xlink:href="#SVGID_37_"  style="overflow:visible;"/>
	</clipPath>
	<g style="clip-path:url(#SVGID_38_);">
		
			<image style="overflow:visible;" width="186" height="186" xlink:href="../../../../../个人/文档/犬夜叉頭像-微信.png"  transform="matrix(0.159 0 0 0.159 229.6734 -548.1995)">
		</image>
	</g>
</g>
<image style="overflow:visible;" width="120" height="73" xlink:href="9BC9F8E3.jpg"  transform="matrix(1 0 0 1 586.3151 -506.7644)">
</image>
</svg>
