<?xml version="1.0" encoding="utf-8"?>
<!-- Generator: Adobe Illustrator 21.0.0, SVG Export Plug-In . SVG Version: 6.00 Build 0)  -->
<svg version="1.1" id="图层_1" xmlns="http://www.w3.org/2000/svg" xmlns:xlink="http://www.w3.org/1999/xlink" x="0px" y="0px"
	 viewBox="0 0 200 200" style="enable-background:new 0 0 200 200;" xml:space="preserve">
<style type="text/css">
	.st0{fill:#3F8AE9;}
</style>
<path class="st0" d="M95.2,46.5H79.2V113h15.9c11.6,0,20.1-2.7,25.4-8c5.2-5.4,7.8-13.8,7.8-25.2c0-11.7-2.6-20.2-7.8-25.4
	C115.3,49.1,106.8,46.5,95.2,46.5L95.2,46.5z"/>
<path class="st0" d="M152.1,12H47.9c-11.7,0-21.2,9.5-21.2,21.2v134.7c0,11.7,9.5,21.2,21.2,21.2h104.2c8.3,0,15.6-4.9,19-11.9H49.3
	c-4.3,0-7.9-3.6-7.9-7.9v-10c0-4.3,3.6-7.9,7.9-7.9h95.3c15.8,0,28.7-12.9,28.7-28.7V33.1C173.3,21.5,163.8,12,152.1,12L152.1,12z
	 M132.4,113.5c-7.8,8.3-19.2,12.4-34.3,12.4H64V33.6H98c15.1,0,26.5,4.2,34.3,12.4c7.4,7.8,11.2,19,11.2,33.8
	C143.6,94.4,139.8,105.7,132.4,113.5L132.4,113.5z"/>
</svg>
