<?xml version="1.0" encoding="utf-8"?>
<!-- Generator: Adobe Illustrator 21.0.0, SVG Export Plug-In . SVG Version: 6.00 Build 0)  -->
<svg version="1.1" id="图层_1" xmlns="http://www.w3.org/2000/svg" xmlns:xlink="http://www.w3.org/1999/xlink" x="0px" y="0px"
	 viewBox="0 0 209 200" style="enable-background:new 0 0 209 200;" xml:space="preserve">
<style type="text/css">
	.st0{fill:#3F8AE9;}
</style>
<path class="st0" d="M164.4,10.6h-3.3c-3.6,0-6.6,2.9-6.6,6.5v16.3h-116c-2.6,0-5.1,1-7,2.9c-1.9,1.8-3,4.2-3,6.8v97.5H12
	c-3.6,0-6.5,2.8-6.6,6.4v3.5c0.1,3.5,3,6.4,6.6,6.4h16.6v22.8c0,5.5,4.3,9.8,9.9,9.8c5.3,0.2,9.8-4,9.9-9.4c0-0.1,0-0.2,0-0.4v-22.8
	h23.2c3.7,0,6.6-2.9,6.6-6.5v-3.3c0-3.6-3-6.5-6.6-6.5H48.4v-78c0-2.6,1-4.9,3-6.8s4.3-2.9,7-2.9h96.1v22.8c0,3.6,3,6.5,6.6,6.5h3.3
	c3.6,0,6.6-2.9,6.6-6.5V52.9h9.9c5.3,0.2,9.8-4,9.9-9.4c0-0.1,0-0.2,0-0.4c0-5.3-4.3-9.7-9.6-9.8c-0.1,0-0.2,0-0.3,0h-10V17.1
	C171,13.5,168,10.6,164.4,10.6L164.4,10.6z"/>
<path class="st0" d="M197.5,108.1h-19.9v-3.3c0-7.2-6-13-13.3-13h-39.8c-7.3,0-13.2,5.8-13.2,13v3.3H91.5c-3.6,0-6.6,2.9-6.6,6.5
	v61.8c0,3.6,3,6.5,6.6,6.5h106c3.6,0,6.6-2.9,6.6-6.5v-61.8C204.1,111,201.1,108.1,197.5,108.1L197.5,108.1z M146.1,174.3
	c-18,0-32.6-14.3-32.6-32s14.6-32,32.6-32s32.6,14.3,32.6,32C178.8,160,164.2,174.3,146.1,174.3z"/>
<path class="st0" d="M146.1,124.4c-9.9,0-18.2,8.1-18.2,17.9c0,9.8,8.3,17.9,18.2,17.9s18.2-8.1,18.2-17.9
	C164.4,132.5,156.1,124.4,146.1,124.4z"/>
</svg>
