<?xml version="1.0" encoding="utf-8"?>
<!-- Generator: Adobe Illustrator 21.0.0, SVG Export Plug-In . SVG Version: 6.00 Build 0)  -->
<svg version="1.1" id="图层_1" xmlns="http://www.w3.org/2000/svg" xmlns:xlink="http://www.w3.org/1999/xlink" x="0px" y="0px"
	 viewBox="0 0 204 204" style="enable-background:new 0 0 204 204;" xml:space="preserve">
<style type="text/css">
	.st0{fill:#3F8AE9;}
</style>
<path class="st0" d="M201.5,193.3L179.8,43.5c-1.2-8.5-5.7-16-12.6-21.2c-6.9-5.1-15.4-7.3-23.9-6.1s-16,5.7-21.2,12.6
	c-2.5,3.3-4.3,7.1-5.3,11v-6c0-17.7-14.4-32.2-32.2-32.2c-10.3,0-19.5,4.9-25.4,12.4C53.4,6.5,44.2,1.7,33.9,1.7
	C16.2,1.7,1.8,16.1,1.8,33.9v160.5c0,0.5,0,0.9,0.1,1.4c0.6,3.1,3.4,5.4,6.7,5.4h185.9c0.2,0,0.4,0,0.5,0c1.9-0.1,3.6-0.9,4.8-2.3
	C201.2,197.3,201.7,195.3,201.5,193.3L201.5,193.3z M133.1,37.1c3-4,7.3-6.5,12.2-7.3s9.8,0.5,13.8,3.5c4,3,6.5,7.3,7.3,12.2
	l20.5,142h-35.7L129.6,50.8C128.9,45.9,130.2,41,133.1,37.1L133.1,37.1z M137.3,187.5h-20.5V57.5L137.3,187.5L137.3,187.5z
	 M15.4,33.9c0-10.2,8.3-18.5,18.5-18.5s18.5,8.3,18.5,18.5v153.6H15.4V33.9z M66.1,187.5V33.9c0-10.2,8.3-18.5,18.5-18.5
	s18.5,8.3,18.5,18.5v153.6H66.1z"/>
</svg>
