<?xml version="1.0" standalone="no"?><!DOCTYPE svg PUBLIC "-//W3C//DTD SVG 1.1//EN" "http://www.w3.org/Graphics/SVG/1.1/DTD/svg11.dtd"><svg t="1528120916440" class="icon" style="" viewBox="0 0 1024 1024" version="1.1" xmlns="http://www.w3.org/2000/svg" p-id="12400" xmlns:xlink="http://www.w3.org/1999/xlink" width="200" height="200"><defs><style type="text/css"></style></defs><path d="M511.998977 65.290005c-246.299569 0-446.708971 200.410426-446.708972 446.709995 0 246.335385 200.409402 446.708971 446.708972 446.708971 246.335385 0 446.709995-200.373587 446.709994-446.708971S758.334361 65.290005 511.998977 65.290005z m0 829.321113c-210.981179 0-382.610094-171.657568-382.610095-382.610095 0-210.983225 171.628916-382.610094 382.610095-382.610094 210.952526 0 382.612141 171.627892 382.612141 382.610094 0 210.981179-171.659615 382.610094-382.612141 382.610095z" p-id="12401" fill="#d81e06"></path><path d="M463.926098 303.677371a48.074925 48.072879 90 1 0 96.145757 0 48.074925 48.072879 90 1 0-96.145757 0Z" p-id="12402" fill="#d81e06"></path><path d="M511.998977 415.85015c-17.691941 0-32.050973 14.359033-32.050974 32.051996v288.445458c0 17.72264 14.359033 32.051997 32.050974 32.051997 17.693987 0 32.051997-14.329357 32.051996-32.051997V447.902146c0.001023-17.693987-14.358009-32.051997-32.051996-32.051996z" p-id="12403" fill="#d81e06"></path></svg>