<?xml version="1.0" encoding="utf-8"?>
<!-- Generator: Adobe Illustrator 21.0.0, SVG Export Plug-In . SVG Version: 6.00 Build 0)  -->
<svg version="1.1" id="图层_1" xmlns="http://www.w3.org/2000/svg" xmlns:xlink="http://www.w3.org/1999/xlink" x="0px" y="0px"
	 viewBox="0 0 176.1 184.6" style="enable-background:new 0 0 176.1 184.6;" xml:space="preserve">
<style type="text/css">
	.st0{fill:none;stroke:#C7DBF1;stroke-width:1.5;stroke-miterlimit:10;}
	.st1{fill:#C7DBF1;}
	.st2{fill:none;stroke:#C7DBF1;stroke-width:1.5;stroke-linecap:round;stroke-miterlimit:10;}
	.st3{fill:#9ABFEF;}
</style>
<path class="st0" d="M123.9,136l-52.9,18.2c-5.7,2-12.1-1.1-14-6.9L29.6,67.8c-2-5.7,1.1-12.1,6.9-14l52.9-18.2
	c5.7-2,12.1,1.1,14,6.9l27.4,79.6C132.7,127.7,129.7,134.1,123.9,136z"/>
<rect x="112" y="65.8" transform="matrix(0.8762 0.4819 -0.4819 0.8762 59.5402 -44.1528)" class="st1" width="7.5" height="56.1"/>
<polygon class="st1" points="105.5,120.2 99.4,123.4 98.9,116.6 104,115.1 "/>
<line class="st2" x1="66.5" y1="154.8" x2="144.4" y2="154.8"/>
<line class="st2" x1="64.8" y1="159.7" x2="106.6" y2="159.7"/>
<line class="st2" x1="99.3" y1="8.7" x2="102.6" y2="23.2"/>
<line class="st2" x1="128.4" y1="17.9" x2="117" y2="28.8"/>
<line class="st2" x1="120.7" y1="44.4" x2="135.5" y2="47.1"/>
<path class="st1" d="M67.9,133.8c-0.3,0.1-0.5,0.5-0.4,0.8c0.1,0.3,0.3,0.4,0.6,0.4c0.1,0,0.2,0,0.2,0l14.3-5.3
	c0.3-0.1,0.5-0.5,0.4-0.8l0,0c-0.1-0.3-0.5-0.5-0.8-0.4L67.9,133.8z"/>
<path class="st1" d="M99.9,122.4c-0.1-0.4-0.5-0.5-0.9-0.4l-12.1,4.6c-0.3,0.1-0.5,0.5-0.4,0.9h0c0.1,0.4,0.5,0.6,0.9,0.4l12.1-4.6
	C99.9,123.2,100,122.8,99.9,122.4z"/>
<path class="st1" d="M60.1,114.1c-0.3,0.1-0.5,0.5-0.4,0.8c0.1,0.3,0.3,0.4,0.6,0.4c0.1,0,0.2,0,0.2,0l14.3-5.3
	c0.3-0.1,0.5-0.5,0.4-0.8l0,0c-0.1-0.3-0.5-0.5-0.8-0.4L60.1,114.1z"/>
<path class="st1" d="M92.1,102.7c-0.1-0.4-0.5-0.5-0.9-0.4l-12.1,4.6c-0.3,0.1-0.5,0.5-0.4,0.9v0c0.1,0.4,0.5,0.6,0.9,0.4l12.1-4.6
	C92,103.4,92.2,103,92.1,102.7z"/>
<path class="st1" d="M107.2,96.9c-0.1-0.4-0.5-0.5-0.9-0.4l-12.1,4.6c-0.3,0.1-0.5,0.5-0.4,0.9l0,0c0.1,0.4,0.5,0.6,0.9,0.4
	l12.1-4.6C107.2,97.7,107.4,97.3,107.2,96.9z"/>
<g>
	<g>
		<path class="st3" d="M8.3,169v3.2H11c0.3,0,0.6,0.1,0.9,0.4c0.2,0.2,0.4,0.5,0.4,0.9v3.5c0,0.3-0.1,0.6-0.4,0.9
			c-0.2,0.2-0.5,0.4-0.9,0.4H3.9v-0.7H11c0.4,0,0.6-0.2,0.6-0.6v-1.4H4.1v-0.7h7.5v-1.4c0-0.4-0.2-0.6-0.6-0.6H3.9v-0.7h3.7V169H8.3
			z M4.8,169.1l1.4,2.5l-0.6,0.3l-1.4-2.5L4.8,169.1z M11.9,169.4c-0.2,0.5-0.4,1-0.6,1.3c-0.2,0.4-0.5,0.8-0.8,1.2l-0.5-0.4
			c0.3-0.4,0.6-0.7,0.8-1.1c0.2-0.4,0.4-0.8,0.6-1.3L11.9,169.4z"/>
		<path class="st3" d="M21.4,169.3l-0.5,0.9h1.6v0.7h-8.8v-0.7h1.6l-0.5-0.9l0.6-0.3l0.6,1.2h4.1l0.7-1.2L21.4,169.3z M13.9,178.2
			l0-5.4c0-0.3,0.1-0.6,0.4-0.9c0.2-0.2,0.5-0.4,0.9-0.4h2.4c0.3,0,0.6,0.1,0.9,0.4s0.4,0.5,0.4,0.9v4.2c0,0.3-0.1,0.6-0.4,0.9
			c-0.2,0.2-0.5,0.4-0.9,0.4h-0.4v-0.7h0.4c0.4,0,0.6-0.2,0.6-0.6v-0.5h-3.6l0,1.7H13.9z M15.1,172.2c-0.4,0-0.6,0.2-0.6,0.6v0.9
			h3.6v-0.9c0-0.4-0.2-0.6-0.6-0.6H15.1z M14.5,175.8h3.6v-1.4h-3.6V175.8z M20.4,171.8v4.7h-0.7v-4.7H20.4z M19.8,177.5h1.4
			c0.4,0,0.5-0.2,0.5-0.6v-5.5h0.7v5.5c0,0.3-0.1,0.6-0.3,0.9c-0.2,0.2-0.5,0.4-0.9,0.4h-1.4V177.5z"/>
		<path class="st3" d="M25.9,175l-1.6,3.2l-0.6-0.3l1.6-3.2L25.9,175z M25,169.2v1.9h-0.7v-1.9H25z M25,172v1.9h-0.7V172H25z
			 M26.8,173.9l2.9,1.8c0.7-0.6,1.3-1.2,1.8-1.9h-5v-0.7h6.1c-0.6,1.2-1.4,2.2-2.4,3l2.4,1.5l-0.4,0.6l-2.6-1.6
			c-0.8,0.6-1.9,1.1-3.2,1.6l-0.3-0.6c1.2-0.5,2.1-0.9,2.8-1.4l-2.7-1.7L26.8,173.9z M32.7,172.6h-0.2c-0.3,0-0.6-0.1-0.9-0.4
			c-0.2-0.2-0.4-0.5-0.4-0.9v-1.1c0-0.4-0.2-0.6-0.6-0.6h-2.5c-0.3,0-0.5,0.2-0.6,0.6l-0.4,2.3l-0.7-0.1l0.4-2.3
			c0.1-0.3,0.2-0.6,0.4-0.8c0.2-0.2,0.5-0.4,0.8-0.4h2.5c0.3,0,0.6,0.1,0.9,0.4s0.4,0.5,0.4,0.9v1.1c0,0.4,0.2,0.6,0.6,0.6h0.2
			V172.6z"/>
		<path class="st3" d="M37.7,169.3c0,0.1-0.1,0.2-0.2,0.4l-0.2,0.3h5.3v0.7h-5.6c-0.2,0.4-0.4,0.7-0.6,1.1l0.1,0h4.4
			c0.3,0,0.6,0.1,0.9,0.4c0.2,0.2,0.4,0.5,0.4,0.9v3.8c0,0.3-0.1,0.6-0.4,0.9s-0.5,0.4-0.9,0.4h-0.7v-0.7h0.7c0.4,0,0.6-0.2,0.6-0.6
			v-0.4H36l0,1.7h-0.7l0-4.8c-0.3,0.4-0.7,0.8-1.1,1.1l-0.5-0.5c0.5-0.5,1-1,1.4-1.5c0.5-0.6,0.9-1.2,1.2-1.9H34V170h2.6
			c0.2-0.3,0.3-0.6,0.4-0.9L37.7,169.3z M36.5,172.5c-0.4,0-0.6,0.2-0.6,0.6v0.7h5.5v-0.7c0-0.4-0.2-0.6-0.6-0.6H36.5z M36,175.8
			h5.5v-1.3H36V175.8z"/>
		<path class="st3" d="M44.7,173.7v3.6l0.8-0.2V173h-0.7c-0.2,0-0.4-0.1-0.6-0.3c-0.2-0.2-0.3-0.4-0.3-0.6v-2c0-0.2,0.1-0.5,0.3-0.6
			c0.2-0.2,0.4-0.3,0.6-0.3h1.5c0.6,0,0.9,0.3,0.9,0.9v2c0,0.2-0.1,0.5-0.3,0.6c-0.2,0.2-0.4,0.3-0.6,0.3h-0.2v1.2h1.2v0.7h-1.2v2.1
			l1-0.2l0.2,0.7l-3.5,0.9l-0.2-0.7l0.4-0.1v-3.7H44.7z M44.8,169.9c-0.1,0-0.2,0.1-0.2,0.2v2c0,0.1,0.1,0.2,0.2,0.2h1.5
			c0.1,0,0.2-0.1,0.2-0.2v-2c0-0.1-0.1-0.2-0.2-0.2H44.8z M48.1,170.9l2.1,1.4c0.6-0.5,1-1.1,1.4-1.8H48l0.5-1.4l0.7,0.2l-0.2,0.5
			h3.6c-0.5,1.1-1.1,2.1-1.9,2.9l2.1,1.4l-0.4,0.6l-2.2-1.5c-0.4,0.3-0.8,0.6-1.2,0.8c-0.4,0.2-0.8,0.5-1.3,0.7l-0.3-0.6
			c0.8-0.4,1.6-0.8,2.2-1.3l-1.9-1.3L48.1,170.9z M49,178.2c-0.3,0-0.6-0.1-0.8-0.3c-0.2-0.2-0.3-0.5-0.3-0.8v-1.6
			c0-0.3,0.1-0.6,0.3-0.8c0.2-0.2,0.5-0.3,0.8-0.3h2.5c0.3,0,0.5,0.1,0.8,0.3c0.2,0.2,0.3,0.5,0.3,0.8v1.6c0,0.3-0.1,0.5-0.3,0.8
			c-0.2,0.2-0.5,0.3-0.8,0.3H49z M51.5,177.5c0.3,0,0.4-0.1,0.4-0.4v-1.6c0-0.3-0.1-0.4-0.4-0.4H49c-0.3,0-0.4,0.1-0.4,0.4v1.6
			c0,0.3,0.1,0.4,0.4,0.4H51.5z"/>
		<path class="st3" d="M54.7,169.2v1.7H54v-1.7H54.7z M62.3,178.2h-7c-0.3,0-0.6-0.1-0.9-0.4c-0.2-0.2-0.4-0.5-0.4-0.9v-5.3h0.7v5.3
			c0,0.4,0.2,0.6,0.6,0.6h7V178.2z M56.7,171.7c-0.1,0.8-0.2,1.5-0.4,2.1c-0.2,0.6-0.4,1.2-0.7,1.8l-0.6-0.3
			c0.3-0.5,0.5-1.1,0.7-1.7c0.2-0.6,0.3-1.3,0.4-2L56.7,171.7z M59.3,169.1v1.1h3.1v0.7h-1.9v5c0,0.3-0.1,0.6-0.4,0.9
			s-0.5,0.4-0.9,0.4h-0.6v-0.7h0.6c0.4,0,0.6-0.2,0.6-0.6v-5h-1.8c0,1.4-0.1,2.6-0.4,3.5c-0.2,0.9-0.6,1.8-1.2,2.7l-0.6-0.4
			c0.5-0.8,0.9-1.7,1.1-2.5c0.2-0.9,0.4-2,0.4-3.3h-1.9v-0.7h3.1v-1.1H59.3z M61.7,171.6l0.9,4.4l-0.7,0.1l-0.9-4.4L61.7,171.6z"/>
		<path class="st3" d="M65.3,176.3l-0.7,2l-0.6-0.2l0.7-2L65.3,176.3z"/>
		<path class="st3" d="M74.4,170.1v7h-0.7v-7H74.4z M76,169v3.1H77v0.7H76v5.4h-0.7V169H76z M79.9,169l0,1h1.2
			c0.3,0,0.6,0.1,0.9,0.4c0.2,0.2,0.4,0.5,0.4,0.9v2.3h0.5v0.7h-2.1l2.1,3.5l-0.6,0.4l-2.4-3.9h-0.1c-0.1,0.9-0.4,1.7-0.8,2.3
			c-0.4,0.6-0.9,1.1-1.7,1.6l-0.4-0.6c0.6-0.4,1.1-0.9,1.4-1.4c0.4-0.5,0.6-1.2,0.8-2h-2v-0.7h2.1c0-0.4,0.1-0.7,0.1-1.2v-0.8
			c0-0.3,0-0.6,0-0.8h-1.9V170h1.9v-1H79.9z M79.9,170.7l0,1.7c0,0.4,0,0.8-0.1,1.2h1.8v-2.3c0-0.4-0.2-0.6-0.6-0.6H79.9z"/>
		<path class="st3" d="M83.8,177.8l1-2.1l0.6,0.3l-1,2.1L83.8,177.8z M87.5,169v0.8h5v0.7h-5v1.3h4c0.3,0,0.5,0.1,0.8,0.3
			c0.2,0.2,0.3,0.5,0.3,0.8v1.4c0,0.3-0.1,0.5-0.3,0.8c-0.2,0.2-0.5,0.3-0.8,0.3h-6.1c-0.3,0-0.5-0.1-0.8-0.3
			c-0.2-0.2-0.3-0.5-0.3-0.8v-1.4c0-0.3,0.1-0.5,0.3-0.8c0.2-0.2,0.5-0.3,0.8-0.3h1.5V169H87.5z M91.5,174.7c0.3,0,0.4-0.1,0.4-0.4
			v-1.4c0-0.3-0.1-0.4-0.4-0.4h-6.1c-0.3,0-0.4,0.1-0.4,0.4v1.4c0,0.3,0.1,0.4,0.4,0.4H91.5z M86.8,178.1v-2.2h0.7v2.2H86.8z
			 M89.1,178.1v-2.2h0.7v2.2H89.1z M92.3,178.1l-1-2.1l0.6-0.3l1,2.1L92.3,178.1z"/>
		<path class="st3" d="M98.7,169v1.1h3.7v0.7h-3.7v2h4v0.7h-4v4h2.5c0.4,0,0.6-0.2,0.6-0.6v-2.4h0.7v2.4c0,0.3-0.1,0.6-0.4,0.9
			s-0.5,0.4-0.9,0.4h-5.6c-0.4,0-0.7-0.1-0.9-0.4c-0.2-0.2-0.4-0.5-0.4-0.9v-2.4H95v2.4c0,0.4,0.2,0.6,0.6,0.6H98v-4h-4v-0.7h4v-2
			h-3.7v-0.7H98V169H98.7z"/>
		<path class="st3" d="M104,169.4h8.8v0.7h-4.6v7.8h-0.7v-7.8H104V169.4z M110.1,171.2l1.8,5.2l-0.7,0.2l-1.8-5.2L110.1,171.2z"/>
		<path class="st3" d="M114,170h4v-1h0.7v1h4v0.7h-6.3c0,0.3,0,0.6,0,0.9l-0.1,0.8h4.5c0.3,0,0.6,0.1,0.9,0.4
			c0.2,0.2,0.4,0.5,0.4,0.9v3.2c0,0.3-0.1,0.6-0.4,0.9s-0.5,0.4-0.9,0.4h-1.4v-0.7h1.4c0.4,0,0.6-0.2,0.6-0.6v-3.2
			c0-0.4-0.2-0.6-0.6-0.6h-4.6c-0.1,0.9-0.3,1.9-0.5,2.7c-0.2,0.8-0.5,1.6-0.8,2.3l-0.6-0.3c0.2-0.5,0.4-1,0.6-1.5
			c0.2-0.5,0.3-1.1,0.5-1.7c0.1-0.6,0.2-1.2,0.3-1.9c0.1-0.7,0.1-1.4,0.1-2.1H114V170z"/>
		<path class="st3" d="M124.2,177.5h0.5c0.4,0,0.6-0.2,0.6-0.6V175l-1.1,0.6l-0.3-0.6l1.4-0.8v-3.2H124v-0.7h1.3v-1.3h0.7v1.3h0.8
			v0.7H126v2.8l0.9-0.5l0.3,0.6l-1.2,0.7v2.3c0,0.3-0.1,0.6-0.4,0.9c-0.2,0.2-0.5,0.4-0.9,0.4h-0.5V177.5z M129.7,171.5l-0.4,1.1
			h3.7v0.7h-0.6c-0.2,1.3-0.7,2.3-1.6,3.1l2,1.2l-0.3,0.6l-2.3-1.3c-0.4,0.3-0.8,0.5-1.4,0.7c-0.5,0.2-1,0.4-1.6,0.5l-0.2-0.7
			c1-0.3,1.8-0.6,2.4-1l-1.1-0.6c-0.4-0.3-0.6-0.6-0.6-1.1c0-0.2,0-0.3,0.1-0.4l0.4-1h-1v-0.7h1.3l0.5-1.4L129.7,171.5z M130.5,169
			v0.6h1.2c0.3,0,0.6,0.1,0.9,0.4s0.4,0.5,0.4,0.9v1h-0.7v-1c0-0.4-0.2-0.6-0.6-0.6h-3.1c-0.4,0-0.6,0.2-0.6,0.6v1h-0.7v-1
			c0-0.3,0.1-0.6,0.4-0.9c0.2-0.2,0.5-0.4,0.9-0.4h1.2V169H130.5z M130.3,176.1c0.8-0.7,1.4-1.6,1.5-2.7h-2.7l-0.4,1.2
			c0,0.1,0,0.1,0,0.2c0,0.2,0.1,0.4,0.3,0.5L130.3,176.1z"/>
		<path class="st3" d="M135.2,169.3l-0.4,1.1h2.1v0.7h-3l0.6-2L135.2,169.3z M136.9,178.2H136c-0.3,0-0.6-0.1-0.9-0.4
			s-0.4-0.5-0.4-0.9v-2h-0.9v-0.7h0.9v-1.5h-0.9v-0.7h3v0.7h-1.4v1.5h1.4v0.7h-1.4v2c0,0.4,0.2,0.6,0.6,0.6h0.9V178.2z M137.7,169.3
			h3.5c0.3,0,0.6,0.1,0.9,0.4c0.2,0.2,0.4,0.5,0.4,0.9v7h0.6v0.7h-5.9v-0.7h1.2l0.2-3.6h-0.9v-0.7h1l0.2-3.3h-1.1V169.3z M139,177.5
			h2.7V174h-2.5L139,177.5z M139.5,170l-0.2,3.3h2.5v-2.7c0-0.4-0.2-0.6-0.6-0.6H139.5z"/>
		<path class="st3" d="M144,172.3l1.1-2.2c0.3-0.5,0.7-0.8,1.3-0.8h1.7c0.6,0,1,0.3,1.3,0.8l1,2.2l-0.6,0.3l-1-2.2
			c-0.1-0.3-0.4-0.4-0.7-0.4h-1.7c-0.3,0-0.5,0.1-0.7,0.4l-1.1,2.2L144,172.3z M146.7,175.3h1.7c0.3,0,0.4-0.1,0.4-0.4v-1.5
			c0-0.3-0.1-0.4-0.4-0.4h-2.8c-0.3,0-0.4,0.1-0.4,0.4v3.5c0,0.4,0.2,0.6,0.6,0.6h4.1v0.7h-4.1c-0.3,0-0.6-0.1-0.9-0.4
			s-0.4-0.5-0.4-0.9v-3.5c0-0.3,0.1-0.5,0.3-0.8s0.5-0.3,0.8-0.3h2.8c0.3,0,0.5,0.1,0.8,0.3c0.2,0.2,0.3,0.5,0.3,0.8v1.5
			c0,0.3-0.1,0.5-0.3,0.8c-0.2,0.2-0.5,0.3-0.8,0.3h-1.7V175.3z M150.6,177.5h1.1c0.4,0,0.5-0.2,0.5-0.6v-7.9h0.7v7.9
			c0,0.3-0.1,0.6-0.4,0.9c-0.2,0.2-0.5,0.4-0.9,0.4h-1.1V177.5z M151.4,169.9v6.6h-0.7v-6.6H151.4z"/>
		<path class="st3" d="M154.2,172.6h0.6l1.2-2.6h-1.9v-0.7h2.9l-1.5,3.3h1.3c-0.3,1.5-0.6,2.6-1.1,3.5c0.8,0.8,1.7,1.2,2.7,1.2h4.6
			v0.7h-4.6c-1.2,0-2.2-0.4-3-1.3c-0.3,0.5-0.6,0.9-1,1.3l-0.5-0.5c0.4-0.5,0.8-1,1-1.4c-0.3-0.5-0.6-1-0.9-1.5l0.6-0.3
			c0.2,0.4,0.3,0.8,0.6,1.1c0.3-0.6,0.5-1.4,0.7-2.3h-1.8V172.6z M160.3,169v0.5h1.2c0.3,0,0.5,0.1,0.8,0.3c0.2,0.2,0.3,0.5,0.3,0.8
			v0.6h0.5v0.7h-0.5v0.4c0,0.3-0.1,0.5-0.3,0.8s-0.5,0.3-0.8,0.3h-1.2v0.7h2.3v0.7h-2.3v0.8h2.6v0.7h-2.6v0.7h-0.7v-0.7H157v-0.7
			h2.6v-0.8h-2.3v-0.7h2.3v-0.7h-2.2v-0.7h2.2v-0.8h-2.7v-0.7h2.7v-1h-2.2v-0.7h2.2V169H160.3z M160.3,170.2v1h1.6v-0.6
			c0-0.3-0.1-0.4-0.4-0.4H160.3z M161.5,172.7c0.3,0,0.4-0.1,0.4-0.4v-0.4h-1.6v0.8H161.5z"/>
		<path class="st3" d="M165.3,178c-0.3,0-0.6-0.1-0.9-0.4s-0.4-0.5-0.4-0.9v-6c0-0.3,0.1-0.6,0.4-0.9s0.5-0.4,0.9-0.4h0.9
			c0.3,0,0.6,0.1,0.9,0.4s0.4,0.5,0.4,0.9v6c0,0.3-0.1,0.6-0.4,0.9s-0.5,0.4-0.9,0.4H165.3z M166.1,177.3c0.4,0,0.6-0.2,0.6-0.6v-6
			c0-0.4-0.2-0.6-0.6-0.6h-0.9c-0.4,0-0.6,0.2-0.6,0.6v6c0,0.4,0.2,0.6,0.6,0.6H166.1z M173.1,178.2h-3.9c-0.3,0-0.6-0.1-0.9-0.4
			c-0.2-0.2-0.4-0.5-0.4-0.9v-6.6c0-0.3,0.1-0.6,0.4-0.9c0.2-0.3,0.5-0.4,0.9-0.4h2.5c0.3,0,0.6,0.1,0.9,0.4
			c0.2,0.2,0.4,0.5,0.4,0.9v2.9c0,0.3-0.1,0.6-0.4,0.9s-0.5,0.4-0.9,0.4h-3.1v2.4c0,0.4,0.2,0.6,0.6,0.6h3.9V178.2z M168.7,173.8
			h1.5v-4h-0.9c-0.4,0-0.6,0.2-0.6,0.6V173.8z M170.8,169.8v4h1c0.4,0,0.6-0.2,0.6-0.6v-2.9c0-0.4-0.2-0.6-0.6-0.6H170.8z"/>
	</g>
</g>
</svg>
