<?xml version="1.0" encoding="utf-8"?>
<!-- Generator: Adobe Illustrator 21.0.0, SVG Export Plug-In . SVG Version: 6.00 Build 0)  -->
<svg version="1.1" id="图层_1" xmlns="http://www.w3.org/2000/svg" xmlns:xlink="http://www.w3.org/1999/xlink" x="0px" y="0px"
	 viewBox="0 0 200 200" style="enable-background:new 0 0 200 200;" xml:space="preserve">
<style type="text/css">
	.st0{fill:#757575;}
</style>
<path class="st0" d="M180.3,65.4l-44.1-44.1c-3-3.1-8-3.1-11-0.1c0,0,0,0-0.1,0.1l-88.3,88.2c-1.2,1.1-2,2.5-2.3,4.1l-10.7,54.5
	c-0.7,4,1.9,7.8,5.9,8.5c0.8,0.1,1.7,0.2,2.5,0l55-9.5c1.7-0.2,3.3-0.9,4.5-2.1l88.6-88.6C183.3,73.5,183.4,68.6,180.3,65.4
	C180.3,65.5,180.3,65.5,180.3,65.4L180.3,65.4z M83.1,153.1l-43,7.4l8.3-41.9l52.8-52.7l34.5,34.6L83.1,153.1L83.1,153.1z M146,90.2
	l-34.6-34.6l19.2-19.1L165.2,71L146,90.2L146,90.2z"/>
</svg>
