<?xml version="1.0" standalone="no"?><!DOCTYPE svg PUBLIC "-//W3C//DTD SVG 1.1//EN" "http://www.w3.org/Graphics/SVG/1.1/DTD/svg11.dtd"><svg t="1527752375462" class="icon" style="" viewBox="0 0 1024 1024" version="1.1" xmlns="http://www.w3.org/2000/svg" p-id="1905" xmlns:xlink="http://www.w3.org/1999/xlink" width="200" height="200"><defs><style type="text/css"></style></defs><path d="M923.175385 237.725538L697.186462 11.815385a39.936 39.936 0 0 0-56.792616 0L188.258462 463.556923a37.021538 37.021538 0 0 0-11.815385 21.110154l-54.665846 279.079385a37.494154 37.494154 0 0 0 43.086769 43.638153l281.836308-48.679384a37.572923 37.572923 0 0 0 22.843077-10.791385l453.474461-453.474461a39.936 39.936 0 0 0 0.157539-56.713847zM425.275077 686.631385l-220.081231 37.966769 42.535385-214.488616 270.099692-270.020923 176.836923 177.073231-269.390769 269.390769z m322.402461-322.402462L570.604308 187.155692 668.750769 89.166769l176.994462 176.994462-97.988923 98.067692z m199.364924 591.399385H76.8a37.415385 37.415385 0 0 1 0-74.83077h870.4a37.415385 37.415385 0 1 1-0.157538 74.83077z" p-id="1906" fill="#3f8ae9"></path></svg>