<?xml version="1.0" standalone="no"?><!DOCTYPE svg PUBLIC "-//W3C//DTD SVG 1.1//EN" "http://www.w3.org/Graphics/SVG/1.1/DTD/svg11.dtd"><svg t="1527752475146" class="icon" style="" viewBox="0 0 1024 1024" version="1.1" xmlns="http://www.w3.org/2000/svg" p-id="3467" xmlns:xlink="http://www.w3.org/1999/xlink" width="200" height="200"><defs><style type="text/css"></style></defs><path d="M768 128 128 128l0 170.666667 640 0L768 128zM768 341.333333 128 341.333333l0 85.333333 640 0L768 341.333333zM768 512l0-42.666667L128 469.333333l0 85.333333 597.333333 0L768 512zM682.666667 597.333333 128 597.333333l0 85.333333 469.333333 0L682.666667 597.333333zM554.666667 725.333333 128 725.333333l0 85.333333 341.333333 0L554.666667 725.333333zM384 981.333333l42.666667 0c105.301333-112.981333 128-128 128-128 240.725333-22.4 384-426.666667 384-426.666667C570.069333 717.952 384 981.333333 384 981.333333z" p-id="3468" fill="#3f8ae9"></path></svg>