<?xml version="1.0" encoding="utf-8"?>
<!-- Generator: Adobe Illustrator 21.0.0, SVG Export Plug-In . SVG Version: 6.00 Build 0)  -->
<svg version="1.1" id="图层_1" xmlns="http://www.w3.org/2000/svg" xmlns:xlink="http://www.w3.org/1999/xlink" x="0px" y="0px"
	 viewBox="0 0 211.7 200" style="enable-background:new 0 0 211.7 200;" xml:space="preserve">
<style type="text/css">
	.st0{fill:#FFFFFF;}
</style>
<path class="st0" d="M208.3,101.9c-4.7,4.5-12.2,4.5-16.8,0l-3.2-7.8v94.1c0.1,6.4-5.1,11.7-11.6,11.8c-0.1,0-0.1,0-0.2,0H35.3
	c-6.4,0.1-11.7-5.1-11.8-11.5c0-0.1,0-0.2,0-0.2V94.1l-3.5,7.8c-4.6,4.6-12.1,4.6-16.8,0c-4.6-4.6-4.6-12.1-0.1-16.7L97.3,3.6
	c4.5-4.7,12-4.7,16.6-0.2c0.1,0.1,0.1,0.1,0.2,0.2l94.1,81.5C212.9,89.8,212.9,97.2,208.3,101.9
	C208.3,101.8,208.3,101.9,208.3,101.9L208.3,101.9z M164.8,94.1V82.4l-59-54.6L47.1,82.4l-0.9,17.5v76.4h119.1L164.8,94.1z
	 M82.4,106h47.1c6.5,0,11.7,5.1,11.8,11.6c0,0,0,0,0,0v23.5c0,6.5-5.3,11.8-11.8,11.8c-6.5,0-11.8-5.3-11.8-11.8v-11.8H94.2v11.8
	c0,6.5-5.3,11.8-11.8,11.8s-11.8-5.3-11.8-11.8l0,0v-23.5C70.7,111.2,75.9,106,82.4,106C82.4,106,82.4,106,82.4,106z"/>
</svg>
