<?xml version="1.0" encoding="utf-8"?>
<!-- Generator: Adobe Illustrator 21.0.0, SVG Export Plug-In . SVG Version: 6.00 Build 0)  -->
<svg version="1.1" id="Ebene_1" xmlns="http://www.w3.org/2000/svg" xmlns:xlink="http://www.w3.org/1999/xlink" x="0px" y="0px"
	 viewBox="0 0 73.3 71.2" style="enable-background:new 0 0 73.3 71.2;" xml:space="preserve">
<style type="text/css">
	.st0{fill:#FFFFFF;}
</style>
<g>
	<g>
		<path class="st0" d="M36.7,21.6c-1.3,0-2.3-1-2.3-2.3v-6.6c0-1.3,1-2.3,2.3-2.3c1.3,0,2.3,1,2.3,2.3v6.6
			C38.9,20.6,37.9,21.6,36.7,21.6z"/>
		<path class="st0" d="M20.4,37.9h-6.6c-1.3,0-2.3-1-2.3-2.3c0-1.3,1-2.3,2.3-2.3h6.6c1.3,0,2.3,1,2.3,2.3
			C22.7,36.9,21.6,37.9,20.4,37.9z"/>
		<path class="st0" d="M36.7,60.7c-1.3,0-2.3-1-2.3-2.3v-6.6c0-1.3,1-2.3,2.3-2.3c1.3,0,2.3,1,2.3,2.3v6.6
			C38.9,59.7,37.9,60.7,36.7,60.7z"/>
		<path class="st0" d="M59.5,37.9h-6.6c-1.3,0-2.3-1-2.3-2.3c0-1.3,1-2.3,2.3-2.3h6.6c1.3,0,2.3,1,2.3,2.3
			C61.8,36.9,60.7,37.9,59.5,37.9z"/>
		<path class="st0" d="M36.7,47.6c-6.6,0-12-5.4-12-12c0-6.6,5.4-12,12-12s12,5.4,12,12C48.7,42.2,43.3,47.6,36.7,47.6z M36.7,28.2
			c-4.1,0-7.5,3.4-7.5,7.5c0,4.1,3.4,7.5,7.5,7.5c4.1,0,7.5-3.4,7.5-7.5C44.1,31.5,40.8,28.2,36.7,28.2z"/>
	</g>
	<path class="st0" d="M25.2,26.4c-0.6,0-1.2-0.2-1.6-0.7l-2.3-2.3c-0.9-0.9-0.9-2.3,0-3.2c0.9-0.9,2.3-0.9,3.2,0l2.3,2.3
		c0.9,0.9,0.9,2.3,0,3.2C26.3,26.2,25.7,26.4,25.2,26.4z"/>
	<path class="st0" d="M22.8,51.7c-0.6,0-1.2-0.2-1.6-0.7c-0.9-0.9-0.9-2.3,0-3.2l2.3-2.3c0.9-0.9,2.3-0.9,3.2,0
		c0.9,0.9,0.9,2.3,0,3.2L24.4,51C24,51.5,23.4,51.7,22.8,51.7z"/>
	<path class="st0" d="M50.5,51.7c-0.6,0-1.2-0.2-1.6-0.7l-2.3-2.3c-0.9-0.9-0.9-2.3,0-3.2c0.9-0.9,2.3-0.9,3.2,0l2.3,2.3
		c0.9,0.9,0.9,2.3,0,3.2C51.6,51.5,51.1,51.7,50.5,51.7z"/>
	<path class="st0" d="M48.2,26.4c-0.6,0-1.2-0.2-1.6-0.7c-0.9-0.9-0.9-2.3,0-3.2l2.3-2.3c0.9-0.9,2.3-0.9,3.2,0
		c0.9,0.9,0.9,2.3,0,3.2l-2.3,2.3C49.3,26.2,48.7,26.4,48.2,26.4z"/>
</g>
</svg>
