<?xml version="1.0" encoding="utf-8"?>
<!-- Generator: Adobe Illustrator 21.0.0, SVG Export Plug-In . SVG Version: 6.00 Build 0)  -->
<svg version="1.1" id="Ebene_1" xmlns="http://www.w3.org/2000/svg" xmlns:xlink="http://www.w3.org/1999/xlink" x="0px" y="0px"
	 viewBox="0 0 73.3 71.2" style="enable-background:new 0 0 73.3 71.2;" xml:space="preserve">
<style type="text/css">
	.st0{fill:#FFFFFF;}
</style>
<path class="st0" d="M44.9,42.1c-3.1-1.3-5.5-3.7-6.8-6.8c-1.3-3.1-1.3-6.5,0-9.6c0.4-0.9,0.8-1.7,1.4-2.5c1-1.5,2.4-2.7,4-3.6
	c-1.9-0.7-3.9-1.1-5.9-1.1c-2.2,0-4.5,0.4-6.6,1.3c-8.7,3.6-12.8,13.6-9.2,22.2c3.6,8.7,13.6,12.8,22.2,9.2c2.2-0.9,4.1-2.2,5.6-3.8
	c1.4-1.5,2.6-3.1,3.4-5c-1.8,0.5-3.6,0.6-5.4,0.3C46.7,42.7,45.7,42.5,44.9,42.1z M42.2,47.2c-3.1,1.3-6.5,1.3-9.6,0
	c-3.1-1.3-5.5-3.7-6.8-6.8c-1.3-3.1-1.3-6.5,0-9.6c1.3-3.1,3.7-5.5,6.8-6.8c0.5-0.2,1-0.4,1.5-0.5c-1.9,4.1-2.1,9-0.2,13.5
	c1.9,4.5,5.5,7.8,9.7,9.4C43.1,46.7,42.7,47,42.2,47.2z"/>
</svg>
