<?xml version="1.0" encoding="utf-8"?>
<!-- Generator: Adobe Illustrator 21.0.0, SVG Export Plug-In . SVG Version: 6.00 Build 0)  -->
<svg version="1.1" id="Ebene_1" xmlns="http://www.w3.org/2000/svg" xmlns:xlink="http://www.w3.org/1999/xlink" x="0px" y="0px"
	 viewBox="0 0 73.3 71.2" style="enable-background:new 0 0 73.3 71.2;" xml:space="preserve">
<style type="text/css">
	.st0{fill:#FFFFFF;}
</style>
<path class="st0" d="M70,33.1c-0.7-2.9-2.3-5.5-4.7-7.3c-2-1.6-4.5-2.5-7-2.7c-3.1-4.8-8.4-7.7-14.2-7.7c-3.9,0-7.7,1.4-10.7,3.8
	c-1,0.8-1.9,1.8-2.7,2.9c-3.6,0.2-7.2,1.5-10,3.8c-2.4,2-4.2,4.5-5.2,7.4c-1.3-0.1-2.6-0.1-3.9,0.2c-2.9,0.7-5.4,2.5-7,5.1
	c-1.6,2.6-2.1,5.6-1.4,8.5c0.6,2.5,2,4.7,4,6.3c2,1.5,4.4,2.4,6.9,2.4l0.1,0h30.3c1,0,2-0.1,3-0.4c3.7-0.9,6.7-3.3,8.4-6.3h1.3
	c1,0,2-0.1,3-0.4C67.3,47.1,71.7,40.1,70,33.1z M50.2,49.2c-1,0.9-2.3,1.6-3.7,1.9c-0.6,0.2-1.3,0.2-2,0.2H14.3l-0.1,0
	c-3.1,0-5.8-2.1-6.6-5.2c-0.4-1.8-0.1-3.6,0.8-5.1c0.9-1.5,2.4-2.6,4.2-3c0.5-0.1,1-0.2,1.6-0.2c0.5,0,1,0.1,1.4,0.2
	c0.2,0.1,0.5,0.1,0.7,0.2c0.6,0.2,1.3,0.1,1.9-0.2c0.6-0.3,1-0.9,1.1-1.5c1.2-5.7,6.3-9.8,12.1-9.8c0.6,0,1.1,0,1.7,0.1
	c3.9,0.5,7.3,2.9,9.2,6.4c0.4,0.8,1.2,1.2,2.1,1.2c0.1,0,0.2,0,0.3,0c4,0,7.3,2.7,8.3,6.5c0.3,1.3,0.3,2.6,0,3.8
	C52.5,46.4,51.6,48,50.2,49.2z M59.3,44.4c-0.6,0.1-1.2,0.2-1.8,0.2c0.2-1.6,0.2-3.2-0.2-4.8c-0.7-2.9-2.3-5.5-4.7-7.3
	c-2-1.6-4.5-2.5-7-2.7c-2.2-3.4-5.5-5.9-9.3-7c2.2-1.8,4.9-2.9,7.9-2.9c4.5,0,8.7,2.5,10.9,6.5c0.4,0.8,1.2,1.2,2.1,1.2
	c0.1,0,0.2,0,0.3,0c4,0,7.3,2.7,8.3,6.5C66.7,38.7,63.8,43.3,59.3,44.4z"/>
</svg>
