<?xml version="1.0" encoding="utf-8"?>
<!-- Generator: Adobe Illustrator 21.0.0, SVG Export Plug-In . SVG Version: 6.00 Build 0)  -->
<svg version="1.1" id="Ebene_1" xmlns="http://www.w3.org/2000/svg" xmlns:xlink="http://www.w3.org/1999/xlink" x="0px" y="0px"
	 viewBox="0 0 73.3 71.2" style="enable-background:new 0 0 73.3 71.2;" xml:space="preserve">
<style type="text/css">
	.st0{fill:#FFFFFF;}
</style>
<g>
	<path class="st0" d="M47.4,21.9c-1.3,0-2.3-1-2.3-2.3v-6.6c0-1.3,1-2.3,2.3-2.3s2.3,1,2.3,2.3v6.6C49.7,20.9,48.6,21.9,47.4,21.9z"
		/>
	<path class="st0" d="M35.9,26.7c-0.6,0-1.2-0.2-1.6-0.7l-4.6-4.6c-0.9-0.9-0.9-2.3,0-3.2c0.9-0.9,2.3-0.9,3.2,0l4.6,4.6
		c0.9,0.9,0.9,2.3,0,3.2C37,26.4,36.5,26.7,35.9,26.7z"/>
	<path class="st0" d="M63.5,54.3c-0.6,0-1.2-0.2-1.6-0.7L57.3,49c-0.9-0.9-0.9-2.3,0-3.2c0.9-0.9,2.3-0.9,3.2,0l4.6,4.6
		c0.9,0.9,0.9,2.3,0,3.2C64.7,54.1,64.1,54.3,63.5,54.3z"/>
	<path class="st0" d="M70.2,38.2h-6.6c-1.3,0-2.3-1-2.3-2.3c0-1.3,1-2.3,2.3-2.3h6.6c1.3,0,2.3,1,2.3,2.3
		C72.5,37.1,71.5,38.2,70.2,38.2z"/>
	<path class="st0" d="M58.9,26.7c-0.6,0-1.2-0.2-1.6-0.7c-0.9-0.9-0.9-2.3,0-3.2l4.6-4.6c0.9-0.9,2.3-0.9,3.2,0
		c0.9,0.9,0.9,2.3,0,3.2L60.5,26C60,26.4,59.5,26.7,58.9,26.7z"/>
	<path class="st0" d="M59.4,35.9c0-6.6-5.4-12-12-12c-4,0-7.6,2-9.8,5c-2.5-1.4-5.3-2.2-8.3-2.2c-3.9,0-7.7,1.4-10.7,3.8
		c-2.4,2-4.2,4.5-5.2,7.4c-1.3-0.1-2.6-0.1-3.9,0.2c-2.9,0.7-5.4,2.5-7,5.1c-1.6,2.6-2.1,5.6-1.4,8.5c0.6,2.5,2,4.7,4,6.3
		c2,1.5,4.4,2.4,6.9,2.4h30.4c1,0,2-0.1,3-0.4c6.8-1.6,11.1-8.4,9.8-15.2C57.8,42.7,59.4,39.5,59.4,35.9z M44.4,55.7
		c-0.6,0.2-1.3,0.2-2,0.2H12.1c-3.1,0-5.8-2.1-6.6-5.2c-0.4-1.8-0.1-3.6,0.8-5.1c0.9-1.5,2.4-2.6,4.2-3c0.5-0.1,1-0.2,1.6-0.2
		c0.7,0,1.5,0.1,2.2,0.4c0.6,0.2,1.3,0.1,1.9-0.2c0.6-0.3,1-0.9,1.1-1.5c1.2-5.7,6.3-9.8,12.1-9.8c2.3,0,4.5,0.6,6.4,1.8
		c1.8,1.1,3.3,2.7,4.4,4.6c0,0,0,0.1,0.1,0.1c0.4,0.8,1.2,1.2,2.1,1.2c0.1,0,0.2,0,0.3,0c3,0,5.7,1.6,7.2,4c0.5,0.8,0.8,1.6,1,2.5
		c0.1,0.6,0.2,1.3,0.2,1.9C51,51.2,48.4,54.8,44.4,55.7z M50.5,37.2c-2-1.6-4.5-2.5-7-2.7c-0.7-1-1.4-1.9-2.2-2.8
		c1.3-2,3.6-3.2,6.1-3.2c4.1,0,7.5,3.4,7.5,7.5c0,1.7-0.5,3.2-1.5,4.4C52.6,39.1,51.7,38,50.5,37.2z"/>
</g>
</svg>
