<?xml version="1.0" encoding="utf-8"?>
<!-- Generator: Adobe Illustrator 21.0.0, SVG Export Plug-In . SVG Version: 6.00 Build 0)  -->
<svg version="1.1" id="Ebene_1" xmlns="http://www.w3.org/2000/svg" xmlns:xlink="http://www.w3.org/1999/xlink" x="0px" y="0px"
	 viewBox="0 0 73.3 71.2" style="enable-background:new 0 0 73.3 71.2;" xml:space="preserve">
<style type="text/css">
	.st0{fill:#FFFFFF;}
</style>
<g>
	<path class="st0" d="M64.9,30.2c0.8-1.9,1-3.9,0.8-5.9c0,0,0,0-0.1,0.1c-1.2,1.2-2.8,2-4.4,2.1c-2.2,0.2-4.4-0.5-6-2.1
		c-1.6-1.6-2.4-3.9-2.1-6c0.2-1.6,0.9-3.2,2.1-4.5c0,0,0,0,0.1-0.1c-2-0.2-4,0-5.9,0.8c-1.4,0.6-2.8,1.5-4,2.6
		c-2.1,2.1-3.3,4.8-3.5,7.6c-1.8-0.7-3.8-1-5.8-1c-3.9,0-7.7,1.4-10.7,3.8c-2.4,2-4.2,4.5-5.2,7.4c-1.3-0.1-2.6-0.1-3.9,0.2
		c-2.9,0.7-5.4,2.5-7,5.1c-1.6,2.6-2.1,5.6-1.4,8.5c0.6,2.5,2,4.7,4,6.3c2,1.5,4.4,2.4,6.9,2.4h30.4c1,0,2-0.1,3-0.4
		c7-1.7,11.3-8.7,9.7-15.7c-0.5-1.9-1.3-3.7-2.6-5.2c1-0.5,2-1.3,2.9-2.1C63.4,33,64.3,31.6,64.9,30.2z M48.5,20.5
		c0.3,2.6,1.4,5.1,3.4,7.1c2,2,4.5,3.1,7.1,3.4c-1.1,1-2.4,1.7-3.7,2c-1.6-0.8-3.3-1.3-5.1-1.5c-1-1.5-2.2-2.9-3.6-4
		C46,25.1,46.6,22.4,48.5,20.5z M51.2,52.8c-0.6,0.2-1.3,0.2-2,0.2H18.8c-3.1,0-5.8-2.1-6.6-5.2c-0.4-1.8-0.1-3.6,0.8-5.1
		c0.9-1.5,2.4-2.6,4.2-3c0.5-0.1,1-0.2,1.6-0.2c0.7,0,1.5,0.1,2.2,0.4c0.6,0.2,1.3,0.1,1.9-0.2c0.6-0.3,1-0.9,1.1-1.5
		c1.2-5.7,6.3-9.8,12.1-9.8c2.4,0,4.8,0.7,6.7,2c1.7,1.1,3.1,2.6,4.1,4.5c0.4,0.8,1.2,1.2,2.1,1.2c0.1,0,0.2,0,0.3,0
		c1.9,0,3.6,0.6,5,1.6c1.6,1.2,2.8,2.9,3.2,4.9C58.6,47.1,55.7,51.7,51.2,52.8z"/>
</g>
</svg>
