<?xml version="1.0" encoding="utf-8"?>
<!-- Generator: Adobe Illustrator 21.0.0, SVG Export Plug-In . SVG Version: 6.00 Build 0)  -->
<svg version="1.1" id="Ebene_1" xmlns="http://www.w3.org/2000/svg" xmlns:xlink="http://www.w3.org/1999/xlink" x="0px" y="0px"
	 viewBox="0 0 73.3 71.2" style="enable-background:new 0 0 73.3 71.2;" xml:space="preserve">
<style type="text/css">
	.st0{fill:#FFFFFF;}
</style>
<path class="st0" d="M63.7,36.5C63,33.6,61.3,31,59,29.2c-2-1.6-4.5-2.5-7-2.7c-3.1-4.8-8.4-7.7-14.2-7.7c-3.9,0-7.7,1.4-10.7,3.8
	c-2.4,2-4.2,4.5-5.2,7.4c-1.3-0.1-2.6-0.1-3.9,0.2c-2.9,0.7-5.4,2.5-7,5.1c-1.6,2.6-2.1,5.6-1.4,8.5c0.6,2.5,2,4.7,4,6.3
	c2,1.5,4.4,2.4,6.9,2.4h0.1h3.6c0,0,20.2,0,24.8,0l0,0c0,0,0,0,0,0c0.6,0,1,0,1,0l0,0H51c1,0,2-0.1,3-0.4
	C61,50.5,65.3,43.4,63.7,36.5z M52.9,47.7c-0.6,0.2-1.3,0.2-2,0.2h-1.9l0,0H24.2h-3.6c0,0,0,0,0,0h-0.1c-3.1,0-5.8-2.1-6.6-5.2
	c-0.4-1.8-0.1-3.6,0.8-5.1c0.9-1.5,2.4-2.6,4.2-3c0.5-0.1,1-0.2,1.6-0.2c0.7,0,1.5,0.1,2.2,0.4c0.6,0.2,1.3,0.1,1.9-0.2
	c0.6-0.3,1-0.9,1.1-1.5c1.2-5.7,6.3-9.8,12.1-9.8c4.5,0,8.7,2.5,10.9,6.5c0.4,0.8,1.2,1.2,2.1,1.2c0.1,0,0.2,0,0.3,0
	c4,0,7.3,2.7,8.3,6.5C60.3,42.1,57.5,46.6,52.9,47.7z"/>
</svg>
