<?xml version="1.0" encoding="utf-8"?>
<!-- Generator: Adobe Illustrator 21.0.0, SVG Export Plug-In . SVG Version: 6.00 Build 0)  -->
<svg version="1.1" id="Ebene_1" xmlns="http://www.w3.org/2000/svg" xmlns:xlink="http://www.w3.org/1999/xlink" x="0px" y="0px"
	 viewBox="0 0 73.3 71.2" style="enable-background:new 0 0 73.3 71.2;" xml:space="preserve">
<style type="text/css">
	.st0{fill:#FFFFFF;}
</style>
<g>
	<g>
		<path class="st0" d="M47.4,15.8c-1.3,0-2.3-1-2.3-2.3V6.9c0-1.3,1-2.3,2.3-2.3c1.3,0,2.3,1,2.3,2.3v6.6
			C49.6,14.7,48.6,15.8,47.4,15.8z"/>
		<path class="st0" d="M35.9,20.5c-0.6,0-1.2-0.2-1.6-0.7l-4.6-4.6c-0.9-0.9-0.9-2.3,0-3.2c0.9-0.9,2.3-0.9,3.2,0l4.6,4.6
			c0.9,0.9,0.9,2.3,0,3.2C37,20.3,36.5,20.5,35.9,20.5z"/>
		<path class="st0" d="M63.5,48.2c-0.6,0-1.2-0.2-1.6-0.7l-4.6-4.6c-0.9-0.9-0.9-2.3,0-3.2c0.9-0.9,2.3-0.9,3.2,0l4.6,4.6
			c0.9,0.9,0.9,2.3,0,3.2C64.7,47.9,64.1,48.2,63.5,48.2z"/>
		<path class="st0" d="M70.2,32h-6.6c-1.3,0-2.3-1-2.3-2.3c0-1.3,1-2.3,2.3-2.3h6.6c1.3,0,2.3,1,2.3,2.3C72.5,31,71.5,32,70.2,32z"
			/>
		<path class="st0" d="M58.9,20.5c-0.6,0-1.2-0.2-1.6-0.7c-0.9-0.9-0.9-2.3,0-3.2l4.6-4.6c0.9-0.9,2.3-0.9,3.2,0
			c0.9,0.9,0.9,2.3,0,3.2l-4.6,4.6C60,20.3,59.5,20.5,58.9,20.5z"/>
	</g>
	<g>
		<path class="st0" d="M20.5,62.3c-0.3,0-0.6-0.1-0.9-0.2c-1.2-0.5-1.7-1.8-1.2-3l0.6-1.4c0.5-1.2,1.8-1.7,3-1.2
			c1.2,0.5,1.7,1.8,1.2,3l-0.6,1.4C22.2,61.8,21.4,62.3,20.5,62.3z M23.4,55.4c-0.3,0-0.6-0.1-0.9-0.2c-1.2-0.5-1.7-1.8-1.2-3
			l2.3-5.6c0.5-1.2,1.8-1.7,3-1.2c1.2,0.5,1.7,1.8,1.2,3L25.5,54C25.1,54.8,24.2,55.4,23.4,55.4z"/>
		<path class="st0" d="M27.4,66.5c-0.3,0-0.6-0.1-0.9-0.2c-1.2-0.5-1.7-1.8-1.2-3l2.3-5.6c0.5-1.2,1.8-1.7,3-1.2
			c1.2,0.5,1.7,1.8,1.2,3l-2.3,5.6C29.2,66,28.3,66.5,27.4,66.5z M32,55.4c-0.3,0-0.6-0.1-0.9-0.2c-1.2-0.5-1.7-1.8-1.2-3l2.3-5.6
			c0.5-1.2,1.8-1.7,3-1.2s1.7,1.8,1.2,3L34.1,54C33.8,54.8,32.9,55.4,32,55.4z"/>
		<path class="st0" d="M59.4,29.8c0-6.6-5.4-12-12-12c-4,0-7.6,2-9.8,5c-2.5-1.4-5.3-2.2-8.3-2.2c-3.9,0-7.7,1.4-10.7,3.8
			c-2.4,2-4.2,4.5-5.2,7.4c-1.3-0.1-2.6-0.1-3.9,0.2c-2.9,0.7-5.4,2.5-7,5.1c-1.6,2.6-2.1,5.6-1.4,8.5c0.6,2.5,2,4.7,4,6.3
			c2,1.5,4.4,2.4,6.9,2.4h5.7l1.9-4.5h-7.6c-3.1,0-5.8-2.1-6.6-5.2c-0.4-1.8-0.1-3.6,0.8-5.1c0.9-1.5,2.4-2.6,4.2-3
			c0.5-0.1,1-0.2,1.6-0.2c0.7,0,1.5,0.1,2.2,0.4c0.6,0.2,1.3,0.1,1.9-0.2c0.6-0.3,1-0.9,1.1-1.5c1.2-5.7,6.3-9.8,12.1-9.8
			c2.3,0,4.5,0.6,6.4,1.8c1.8,1.1,3.3,2.7,4.4,4.6c0,0,0,0.1,0.1,0.1c0.4,0.8,1.2,1.2,2.1,1.2c0.1,0,0.2,0,0.3,0
			c3,0,5.7,1.6,7.2,4.1c0.5,0.8,0.8,1.6,1,2.5c0.1,0.6,0.2,1.3,0.2,1.9c0,3.9-2.6,7.4-6.5,8.4c-0.6,0.2-1.3,0.2-2,0.2h-4l-1.9,4.5
			h5.9c1,0,2-0.1,3-0.4c6.8-1.6,11.1-8.4,9.8-15.2C57.8,36.6,59.4,33.4,59.4,29.8z M50.5,31c-2-1.6-4.5-2.5-7-2.7
			c-0.7-1-1.4-1.9-2.2-2.8c1.3-2,3.6-3.2,6.2-3.2c4.1,0,7.5,3.4,7.5,7.5c0,1.7-0.5,3.2-1.5,4.4C52.6,33,51.6,31.9,50.5,31z"/>
	</g>
</g>
</svg>
