<?xml version="1.0" encoding="utf-8"?>
<!-- Generator: Adobe Illustrator 21.0.0, SVG Export Plug-In . SVG Version: 6.00 Build 0)  -->
<svg version="1.1" id="Ebene_1" xmlns="http://www.w3.org/2000/svg" xmlns:xlink="http://www.w3.org/1999/xlink" x="0px" y="0px"
	 viewBox="0 0 73.3 71.2" style="enable-background:new 0 0 73.3 71.2;" xml:space="preserve">
<style type="text/css">
	.st0{fill:#FFFFFF;}
</style>
<g>
	<path class="st0" d="M54,44.2c-1,0.2-2,0.4-3,0.4h-5.2c-1.3,0-2.3-1-2.3-2.3c0-1.3,1-2.3,2.3-2.3H51c0.7,0,1.3-0.1,2-0.2
		c4.6-1.1,7.4-5.7,6.3-10.2C58.3,25.7,54.9,23,51,23c-0.1,0-0.2,0-0.3,0c-0.9,0-1.7-0.4-2.1-1.2c-2.2-4-6.3-6.5-10.9-6.5
		c-5.8,0-10.9,4.1-12.1,9.8c-0.1,0.6-0.5,1.2-1.1,1.5c-0.6,0.3-1.2,0.4-1.9,0.2c-0.7-0.2-1.4-0.4-2.2-0.4c-0.5,0-1,0.1-1.6,0.2
		c-1.8,0.4-3.2,1.5-4.2,3c-0.9,1.5-1.2,3.3-0.8,5.1c0.7,3.1,3.4,5.2,6.6,5.2h7.6c1.3,0,2.3,1,2.3,2.3c0,1.3-1,2.3-2.3,2.3h-7.6
		c-2.5,0-5-0.9-6.9-2.4c-2-1.6-3.4-3.8-4-6.3c-0.7-2.9-0.2-6,1.4-8.5c1.6-2.6,4.1-4.4,7-5.1c1.3-0.3,2.6-0.4,3.9-0.2
		c1-2.9,2.8-5.4,5.2-7.4c3-2.5,6.8-3.8,10.7-3.8c5.8,0,11.1,2.9,14.2,7.7c2.5,0.2,5,1.1,7,2.7c2.3,1.8,4,4.4,4.7,7.3
		C65.3,35.5,61,42.5,54,44.2z"/>
	<polygon class="st0" points="37.6,43.9 40.8,43.9 33.9,60.5 35.6,48.6 32.5,48.6 34.9,35.3 41.2,35.3 	"/>
</g>
</svg>
