<?xml version="1.0" encoding="utf-8"?>
<!-- Generator: Adobe Illustrator 21.0.0, SVG Export Plug-In . SVG Version: 6.00 Build 0)  -->
<svg version="1.1" id="Ebene_1" xmlns="http://www.w3.org/2000/svg" xmlns:xlink="http://www.w3.org/1999/xlink" x="0px" y="0px"
	 viewBox="0 0 73.3 71.2" style="enable-background:new 0 0 73.3 71.2;" xml:space="preserve">
<style type="text/css">
	.st0{fill:#FFFFFF;}
</style>
<g>
	<path class="st0" d="M63.7,28.5C63,25.6,61.3,23,59,21.2c-2-1.6-4.5-2.5-7-2.7c-3.1-4.8-8.4-7.7-14.2-7.7c-3.9,0-7.7,1.4-10.7,3.8
		c-2.4,2-4.2,4.5-5.2,7.4c-1.3-0.1-2.6-0.1-3.9,0.2c-2.9,0.7-5.4,2.5-7,5.1c-1.6,2.6-2.1,5.6-1.4,8.5c0.6,2.5,2,4.7,4,6.3
		c2,1.5,4.4,2.4,6.9,2.4h0.1h0.9l1.9-4.5h-2.8c0,0,0,0,0,0l-0.1,0c-3.1,0-5.8-2.1-6.6-5.2c-0.4-1.8-0.1-3.6,0.8-5.1
		c0.9-1.5,2.4-2.6,4.2-3c0.5-0.1,1-0.2,1.6-0.2c0.7,0,1.5,0.1,2.2,0.4c0.6,0.2,1.3,0.1,1.9-0.2c0.6-0.3,1-0.9,1.1-1.5
		c1.2-5.7,6.3-9.8,12.1-9.8c4.5,0,8.7,2.5,10.9,6.5c0.4,0.8,1.2,1.2,2.1,1.2c0.1,0,0.2,0,0.3,0c4,0,7.3,2.7,8.3,6.5
		c1,4.2-1.3,8.4-5.3,9.9l-2.1,5c0.7,0,1.4-0.2,2.1-0.3C61,42.5,65.3,35.5,63.7,28.5z"/>
	<path class="st0" d="M24.2,52.5c-0.3,0-0.6-0.1-0.9-0.2c-1.2-0.5-1.7-1.8-1.2-3l5.2-12.6c0.5-1.2,1.8-1.7,3-1.2
		c1.2,0.5,1.7,1.8,1.2,3l-5.2,12.6C26,52,25.1,52.5,24.2,52.5z"/>
	<path class="st0" d="M29.8,60.1c-0.3,0-0.6-0.1-0.9-0.2c-1.2-0.5-1.7-1.8-1.2-3L36,36.8c0.5-1.2,1.8-1.7,3-1.2
		c1.2,0.5,1.7,1.8,1.2,3l-8.4,20.2C31.5,59.6,30.7,60.1,29.8,60.1z"/>
	<g>
		<polygon class="st0" points="46.2,43.9 49.4,43.9 42.5,60.5 44.1,48.6 41.1,48.6 43.5,35.3 49.7,35.3 		"/>
	</g>
</g>
</svg>
