<?xml version="1.0" encoding="utf-8"?>
<!-- Generator: Adobe Illustrator 21.0.0, SVG Export Plug-In . SVG Version: 6.00 Build 0)  -->
<svg version="1.1" id="Ebene_1" xmlns="http://www.w3.org/2000/svg" xmlns:xlink="http://www.w3.org/1999/xlink" x="0px" y="0px"
	 viewBox="0 0 73.3 71.2" style="enable-background:new 0 0 73.3 71.2;" xml:space="preserve">
<style type="text/css">
	.st0{fill:#FFFFFF;}
</style>
<g>
	<path class="st0" d="M63.7,28.6c-0.7-2.9-2.3-5.5-4.7-7.3c-2-1.6-4.5-2.5-7-2.7c-3.1-4.8-8.4-7.7-14.2-7.7c-3.9,0-7.7,1.4-10.7,3.8
		c-2.4,2-4.2,4.5-5.2,7.4c-1.3-0.1-2.6-0.1-3.9,0.2c-2.9,0.7-5.4,2.5-7,5.1C9.4,30,8.9,33,9.6,35.9c0.6,2.5,2,4.7,4,6.3
		c1,0.8,2.1,1.4,3.4,1.8l1.7-4.2c-2.3-0.7-4.1-2.5-4.7-4.9c-0.4-1.8-0.1-3.6,0.8-5.1c0.9-1.5,2.4-2.6,4.2-3c0.5-0.1,1-0.2,1.6-0.2
		c0.7,0,1.5,0.1,2.2,0.4c0.6,0.2,1.3,0.1,1.9-0.2c0.6-0.3,1-0.9,1.1-1.5c1.2-5.7,6.3-9.8,12.1-9.8c4.5,0,8.7,2.5,10.9,6.5
		c0.4,0.8,1.2,1.2,2.1,1.2c0.1,0,0.2,0,0.3,0c4,0,7.3,2.7,8.3,6.5c0.9,3.7-0.9,7.5-4,9.3c-0.1,0.2-0.1,0.4-0.2,0.6l-2,4.9
		c0.3-0.1,0.7-0.1,1-0.2C61,42.6,65.3,35.6,63.7,28.6z"/>
	<path class="st0" d="M19.4,52.6c-0.3,0-0.6-0.1-0.9-0.2c-1.2-0.5-1.7-1.8-1.2-3l5.2-12.6c0.5-1.2,1.8-1.7,3-1.2
		c1.2,0.5,1.7,1.8,1.2,3l-5.2,12.6C21.2,52.1,20.3,52.6,19.4,52.6z"/>
	<path class="st0" d="M45.5,52.6c-0.3,0-0.6-0.1-0.9-0.2c-1.2-0.5-1.7-1.8-1.2-3l5.2-12.6c0.5-1.2,1.8-1.7,3-1.2
		c1.2,0.5,1.7,1.8,1.2,3l-5.2,12.6C47.2,52.1,46.4,52.6,45.5,52.6z"/>
	<path class="st0" d="M25,60.2c-0.3,0-0.6-0.1-0.9-0.2c-1.2-0.5-1.7-1.8-1.2-3l8.4-20.2c0.5-1.2,1.8-1.7,3-1.2
		c1.2,0.5,1.7,1.8,1.2,3l-8.4,20.2C26.7,59.7,25.8,60.2,25,60.2z"/>
	<path class="st0" d="M33.6,60.4c-0.3,0-0.6-0.1-0.9-0.2c-1.2-0.5-1.7-1.8-1.2-3l8.4-20.3c0.5-1.2,1.8-1.7,3-1.2
		c1.2,0.5,1.7,1.8,1.2,3L35.7,59C35.3,59.8,34.5,60.4,33.6,60.4z"/>
</g>
</svg>
