<?xml version="1.0" encoding="utf-8"?>
<!-- Generator: Adobe Illustrator 21.0.0, SVG Export Plug-In . SVG Version: 6.00 Build 0)  -->
<svg version="1.1" id="Ebene_1" xmlns="http://www.w3.org/2000/svg" xmlns:xlink="http://www.w3.org/1999/xlink" x="0px" y="0px"
	 viewBox="0 0 73.3 71.2" style="enable-background:new 0 0 73.3 71.2;" xml:space="preserve">
<style type="text/css">
	.st0{fill:#FFFFFF;}
</style>
<g>
	<g>
		<path class="st0" d="M42.2,45.9l-1.1-0.6l1.1-0.6c0.4-0.2,0.5-0.7,0.3-1.1c-0.2-0.4-0.7-0.5-1.1-0.3l-1.1,0.6v-1.2
			c0-0.5-0.4-0.8-0.8-0.8c-0.5,0-0.8,0.4-0.8,0.8v1.2l-1.1-0.6c-0.4-0.2-0.9-0.1-1.1,0.3c-0.2,0.4-0.1,0.9,0.3,1.1l1.1,0.6l-1.1,0.6
			c-0.4,0.2-0.5,0.7-0.3,1.1c0.2,0.3,0.4,0.4,0.7,0.4c0.1,0,0.3,0,0.4-0.1l1.1-0.6v1.2c0,0.5,0.4,0.8,0.8,0.8c0.5,0,0.8-0.4,0.8-0.8
			v-1.2l1.1,0.6c0.1,0.1,0.3,0.1,0.4,0.1c0.3,0,0.6-0.1,0.7-0.4C42.8,46.6,42.6,46.1,42.2,45.9z"/>
	</g>
	<g>
		<path class="st0" d="M36.5,54.1L35,53.3l1.4-0.8c0.5-0.3,0.7-1,0.4-1.5c-0.3-0.5-1-0.7-1.5-0.4l-1.4,0.8v-1.6
			c0-0.6-0.5-1.1-1.1-1.1c-0.6,0-1.1,0.5-1.1,1.1v1.6l-1.4-0.8c-0.5-0.3-1.2-0.1-1.5,0.4c-0.3,0.5-0.1,1.2,0.4,1.5l1.4,0.8l-1.4,0.8
			c-0.5,0.3-0.7,1-0.4,1.5c0.2,0.4,0.6,0.5,1,0.5c0.2,0,0.4,0,0.5-0.1l1.4-0.8v1.6c0,0.6,0.5,1.1,1.1,1.1c0.6,0,1.1-0.5,1.1-1.1
			v-1.6l2,1c0.2,0.1-0.2,0,0,0c0.4,0,0.7-0.2,1-0.5C37.2,55.1,37,54.4,36.5,54.1z"/>
	</g>
	<path class="st0" d="M63.7,31.1c-0.7-2.9-2.3-5.5-4.7-7.3c-2-1.6-4.5-2.5-7-2.7c-3.1-4.8-8.4-7.7-14.2-7.7c-3.9,0-7.7,1.4-10.7,3.8
		c-2.4,2-4.2,4.5-5.2,7.4c-1.3-0.1-2.6-0.1-3.9,0.2c-2.9,0.7-5.4,2.5-7,5.1c-1.6,2.6-2.1,5.6-1.4,8.5c0.6,2.5,2,4.7,4,6.3
		c2,1.5,4.4,2.4,6.9,2.4h0.1h3.6c0,0,0,0,0,0c1.3,0,2.3-1,2.3-2.3c0-1.3-1-2.3-2.3-2.3v0h-3.6c0,0,0,0,0,0l-0.1,0
		c-3.1,0-5.8-2.1-6.6-5.2c-0.4-1.8-0.1-3.6,0.8-5.1c0.9-1.5,2.4-2.6,4.2-3c0.5-0.1,1-0.2,1.6-0.2c0.7,0,1.5,0.1,2.2,0.4
		c0.6,0.2,1.3,0.1,1.9-0.2c0.6-0.3,1-0.9,1.1-1.5c1.2-5.7,6.3-9.8,12.1-9.8c4.5,0,8.7,2.5,10.9,6.5c0.4,0.8,1.2,1.2,2.1,1.2
		c0.1,0,0.2,0,0.3,0c4,0,7.3,2.7,8.3,6.5c1.1,4.6-1.8,9.1-6.3,10.2c-0.6,0.2-1.3,0.2-2,0.2h-1.9v0c-1.3,0-2.3,1-2.3,2.3
		c0,1.3,1,2.3,2.3,2.3c0,0,0,0,0,0H51c1,0,2-0.1,3-0.4C61,45.1,65.3,38,63.7,31.1z"/>
</g>
</svg>
