<?xml version="1.0" encoding="utf-8"?>
<!-- Generator: Adobe Illustrator 21.0.0, SVG Export Plug-In . SVG Version: 6.00 Build 0)  -->
<svg version="1.1" id="Ebene_1" xmlns="http://www.w3.org/2000/svg" xmlns:xlink="http://www.w3.org/1999/xlink" x="0px" y="0px"
	 viewBox="0 0 73.3 71.2" style="enable-background:new 0 0 73.3 71.2;" xml:space="preserve">
<style type="text/css">
	.st0{fill:#FFFFFF;}
</style>
<g>
	<g>
		<path class="st0" d="M47.2,54.5l-1.5-0.8l1.5-0.8c0.5-0.3,0.7-1,0.4-1.5c-0.3-0.5-1-0.7-1.5-0.4l-1.5,0.8V50
			c0-0.6-0.5-1.1-1.1-1.1c-0.6,0-1.1,0.5-1.1,1.1v1.7l-1.4-0.8c-0.5-0.3-1.2-0.1-1.5,0.4c-0.3,0.5-0.1,1.2,0.4,1.5l1.4,0.8l-1.4,0.8
			c-0.5,0.3-0.7,1-0.4,1.5c0.2,0.4,0.6,0.6,1,0.6c0.2,0,0.4,0,0.6-0.2l1.4-0.8v1.7c0,0.6,0.5,1.1,1.1,1.1c0.6,0,1.1-0.5,1.1-1.1
			v-1.7l1.5,0.8c0.2,0.1,0.4,0.2,0.6,0.2c0.4,0,0.8-0.2,1-0.6C48,55.5,47.8,54.8,47.2,54.5z"/>
	</g>
	<g>
		<path class="st0" d="M35.6,44.9l-0.9-0.5l0.9-0.5c0.3-0.2,0.5-0.6,0.3-1c-0.2-0.3-0.6-0.5-1-0.3L34,43.2v-1c0-0.4-0.3-0.7-0.7-0.7
			c-0.4,0-0.7,0.3-0.7,0.7v1l-0.9-0.5c-0.3-0.2-0.8-0.1-1,0.3c-0.2,0.3-0.1,0.8,0.3,1l0.9,0.5L31,44.9c-0.3,0.2-0.5,0.6-0.3,1
			c0.1,0.2,0.4,0.4,0.6,0.4c0.1,0,0.2,0,0.4-0.1l0.9-0.5v1c0,0.4,0.3,0.7,0.7,0.7c0.4,0,0.7-0.3,0.7-0.7v-1l0.9,0.5
			c0.1,0.1,0.2,0.1,0.4,0.1c0.2,0,0.5-0.1,0.6-0.4C36.1,45.6,35.9,45.1,35.6,44.9z"/>
	</g>
	<g>
		<path class="st0" d="M43.9,44.9L43,44.4l0.9-0.5c0.3-0.2,0.5-0.6,0.3-1c-0.2-0.3-0.6-0.5-1-0.3l-0.9,0.5v-1c0-0.4-0.3-0.7-0.7-0.7
			c-0.4,0-0.7,0.3-0.7,0.7v1L40,42.7c-0.3-0.2-0.8-0.1-1,0.3c-0.2,0.3-0.1,0.8,0.3,1l0.9,0.5l-0.9,0.5c-0.3,0.2-0.5,0.6-0.3,1
			c0.1,0.2,0.4,0.4,0.6,0.4c0.1,0,0.2,0,0.4-0.1l0.9-0.5v1c0,0.4,0.3,0.7,0.7,0.7c0.4,0,0.7-0.3,0.7-0.7v-1l0.9,0.5
			c0.1,0.1,0.2,0.1,0.4,0.1c0.2,0,0.5-0.1,0.6-0.4C44.3,45.6,44.2,45.1,43.9,44.9z"/>
	</g>
	<g>
		<path class="st0" d="M33.6,54.5l-1.5-0.8l1.5-0.8c0.5-0.3,0.7-1,0.4-1.5c-0.3-0.5-1-0.7-1.5-0.4L31,51.7V50c0-0.6-0.5-1.1-1.1-1.1
			c-0.6,0-1.1,0.5-1.1,1.1v1.7l-1.4-0.8c-0.5-0.3-1.2-0.1-1.5,0.4c-0.3,0.5-0.1,1.2,0.4,1.5l1.4,0.8l-1.4,0.8
			c-0.5,0.3-0.7,1-0.4,1.5c0.2,0.4,0.6,0.6,1,0.6c0.2,0,0.4,0,0.6-0.2l1.4-0.8v1.7c0,0.6,0.5,1.1,1.1,1.1c0.6,0,1.1-0.5,1.1-1.1
			v-1.7l1.5,0.8c0.2,0.1,0.4,0.2,0.6,0.2c0.4,0,0.8-0.2,1-0.6C34.3,55.5,34.1,54.8,33.6,54.5z"/>
	</g>
	<path class="st0" d="M63.7,30.5C63,27.6,61.3,25,59,23.2c-2-1.6-4.5-2.5-7-2.7c-3.1-4.8-8.4-7.7-14.2-7.7c-3.9,0-7.7,1.4-10.7,3.8
		c-2.4,2-4.2,4.5-5.2,7.4c-1.3-0.1-2.6-0.1-3.9,0.2c-2.9,0.7-5.4,2.5-7,5.1c-1.6,2.6-2.1,5.6-1.4,8.5c0.6,2.5,2,4.7,4,6.3
		c2,1.5,4.4,2.4,6.9,2.4h0.1h3.6c0,0,0,0,0,0c1.3,0,2.3-1,2.3-2.3c0-1.3-1-2.3-2.3-2.3v0h-3.6c0,0,0,0,0,0l-0.1,0
		c-3.1,0-5.8-2.1-6.6-5.2c-0.4-1.8-0.1-3.6,0.8-5.1c0.9-1.5,2.4-2.6,4.2-3c0.5-0.1,1-0.2,1.6-0.2c0.7,0,1.5,0.1,2.2,0.4
		c0.6,0.2,1.3,0.1,1.9-0.2c0.6-0.3,1-0.9,1.1-1.5c1.2-5.7,6.3-9.8,12.1-9.8c4.5,0,8.7,2.5,10.9,6.5c0.4,0.8,1.2,1.2,2.1,1.2
		c0.1,0,0.2,0,0.3,0c4,0,7.3,2.7,8.3,6.5c1.1,4.6-1.8,9.1-6.3,10.2c-0.6,0.2-1.3,0.2-2,0.2h-1.9v0c-1.3,0-2.3,1-2.3,2.3
		c0,1.3,1,2.3,2.3,2.3c0,0,0,0,0,0H51c1,0,2-0.1,3-0.4C61,44.5,65.3,37.5,63.7,30.5z"/>
</g>
</svg>
