<?xml version="1.0" encoding="utf-8"?>
<!-- Generator: Adobe Illustrator 21.0.0, SVG Export Plug-In . SVG Version: 6.00 Build 0)  -->
<svg version="1.1" id="Ebene_1" xmlns="http://www.w3.org/2000/svg" xmlns:xlink="http://www.w3.org/1999/xlink" x="0px" y="0px"
	 viewBox="0 0 53.1 51.6" style="enable-background:new 0 0 53.1 51.6;" xml:space="preserve">
<style type="text/css">
	.st0{fill:#333333;}
	.st1{fill:#FFFFFF;}
</style>
<g>
	<g>
		<path class="st1" d="M26.4,11.8c-1.3,0-2.3-1-2.3-2.3V3c0-1.3,1-2.3,2.3-2.3c1.3,0,2.3,1,2.3,2.3v6.6
			C28.7,10.8,27.7,11.8,26.4,11.8z"/>
		<path class="st1" d="M10.2,28.1H3.6c-1.3,0-2.3-1-2.3-2.3c0-1.3,1-2.3,2.3-2.3h6.6c1.3,0,2.3,1,2.3,2.3
			C12.4,27,11.4,28.1,10.2,28.1z"/>
		<path class="st1" d="M26.4,50.9c-1.3,0-2.3-1-2.3-2.3V42c0-1.3,1-2.3,2.3-2.3c1.3,0,2.3,1,2.3,2.3v6.6
			C28.7,49.9,27.7,50.9,26.4,50.9z"/>
		<path class="st1" d="M49.3,28.1h-6.6c-1.3,0-2.3-1-2.3-2.3c0-1.3,1-2.3,2.3-2.3h6.6c1.3,0,2.3,1,2.3,2.3
			C51.5,27,50.5,28.1,49.3,28.1z"/>
		<path class="st1" d="M26.4,37.8c-6.6,0-12-5.4-12-12c0-6.6,5.4-12,12-12c6.6,0,12,5.4,12,12C38.4,32.4,33,37.8,26.4,37.8z
			 M26.4,18.3c-4.1,0-7.5,3.4-7.5,7.5c0,4.1,3.4,7.5,7.5,7.5c4.1,0,7.5-3.4,7.5-7.5C33.9,21.7,30.5,18.3,26.4,18.3z"/>
	</g>
	<path class="st1" d="M14.9,16.6c-0.6,0-1.2-0.2-1.6-0.7L11,13.6c-0.9-0.9-0.9-2.3,0-3.2c0.9-0.9,2.3-0.9,3.2,0l2.3,2.3
		c0.9,0.9,0.9,2.3,0,3.2C16.1,16.3,15.5,16.6,14.9,16.6z"/>
	<path class="st1" d="M12.6,41.9c-0.6,0-1.2-0.2-1.6-0.7c-0.9-0.9-0.9-2.3,0-3.2l2.3-2.3c0.9-0.9,2.3-0.9,3.2,0
		c0.9,0.9,0.9,2.3,0,3.2l-2.3,2.3C13.8,41.7,13.2,41.9,12.6,41.9z"/>
	<path class="st1" d="M40.2,41.9c-0.6,0-1.2-0.2-1.6-0.7l-2.3-2.3c-0.9-0.9-0.9-2.3,0-3.2c0.9-0.9,2.3-0.9,3.2,0l2.3,2.3
		c0.9,0.9,0.9,2.3,0,3.2C41.4,41.7,40.8,41.9,40.2,41.9z"/>
	<path class="st1" d="M37.9,16.6c-0.6,0-1.2-0.2-1.6-0.7c-0.9-0.9-0.9-2.3,0-3.2l2.3-2.3c0.9-0.9,2.3-0.9,3.2,0
		c0.9,0.9,0.9,2.3,0,3.2l-2.3,2.3C39.1,16.3,38.5,16.6,37.9,16.6z"/>
</g>
</svg>
